<?xml version="1.0" encoding="utf-8"?>
<!-- Generator: Adobe Illustrator 18.0.0, SVG Export Plug-In . SVG Version: 6.00 Build 0)  -->
<!DOCTYPE svg PUBLIC "-//W3C//DTD SVG 1.1//EN" "http://www.w3.org/Graphics/SVG/1.1/DTD/svg11.dtd">
<svg version="1.1" id="Слой_1" xmlns="http://www.w3.org/2000/svg" xmlns:xlink="http://www.w3.org/1999/xlink" x="0px" y="0px"
	 viewBox="0 0 91 54.4" enable-background="new 0 0 91 54.4" xml:space="preserve">
<g>
	<path fill="#E8BC00" d="M72.7,0c-6.9,0-12.5,5.6-12.5,12.5s5.6,12.5,12.5,12.5c6.9,0,12.5-5.6,12.5-12.5S79.5,0,72.7,0z M72.7,22.7
		c-5.6,0-10.2-4.6-10.2-10.2c0-5.6,4.6-10.2,10.2-10.2c5.6,0,10.2,4.6,10.2,10.2C82.9,18.1,78.3,22.7,72.7,22.7z"/>
	<path fill="#E8BC00" d="M91,38c0-6-4.9-10.8-10.8-10.8h-3.8c-0.5,0-0.9,0.3-1.1,0.8l-2,6c-0.1,0.2-0.1,0.4,0,0.6l2.1,9.4l-3.1,2.9
		l-3-3.2l2.1-9.1c0.1-0.2,0-0.4,0-0.6l-2.2-6.1c-0.2-0.4-0.6-0.7-1.1-0.7h-3.9c-6,0-10.8,4.9-10.8,10.8v15.3c0,0.6,0.5,1.1,1.1,1.1
		h35.4c0.6,0,1.1-0.5,1.1-1.1V38z M88.7,52.2H55.6V38c0-4.7,3.9-8.6,8.6-8.6h3.1l1.9,5.1l0,0.1l-2.2,9.3c-0.1,0.4,0,0.7,0.3,1
		l4.2,4.4c0.2,0.2,0.5,0.3,0.8,0.3l0.1,0c0.3,0,0.5-0.1,0.7-0.3l4.4-4.2c0.3-0.3,0.4-0.7,0.3-1.1l-2.2-9.7l0-0.1l1.6-4.9h3
		c4.8,0,8.6,3.9,8.6,8.6V52.2z"/>
	<path fill="#E8BC00" d="M19.3,0C12.5,0,6.9,5.6,6.9,12.5s5.6,12.5,12.5,12.5c6.9,0,12.5-5.6,12.5-12.5S26.2,0,19.3,0z M19.3,22.7
		c-5.6,0-10.2-4.6-10.2-10.2c0-5.6,4.6-10.2,10.2-10.2c5.6,0,10.2,4.6,10.2,10.2C29.6,18.1,25,22.7,19.3,22.7z"/>
	<path fill="#E8BC00" d="M37.6,38c0-6-4.9-10.8-10.8-10.8h-3.8c-0.5,0-0.9,0.3-1.1,0.8l-2,6c-0.1,0.2-0.1,0.4,0,0.6l2.1,9.4
		l-3.1,2.9l-3-3.2l2.1-9.1c0.1-0.2,0-0.4,0-0.6l-2.2-6.1c-0.2-0.4-0.6-0.7-1-0.7h-3.9C4.9,27.1,0,32,0,38v15.3
		c0,0.6,0.5,1.1,1.1,1.1h35.4c0.6,0,1.1-0.5,1.1-1.1V38z M35.4,52.2H2.2V38c0-4.7,3.9-8.6,8.6-8.6h3.1l1.9,5.1l0,0.1l-2.2,9.3
		c-0.1,0.4,0,0.7,0.3,1l4.2,4.4c0.2,0.2,0.5,0.3,0.8,0.3l0.1,0c0.3,0,0.5-0.1,0.7-0.3l4.4-4.2c0.3-0.3,0.4-0.7,0.3-1.1l-2.2-9.7
		l0-0.1l1.6-4.9h3c4.7,0,8.6,3.9,8.6,8.6V52.2z"/>
	<path fill="#E8BC00" d="M50.7,27.9l4-3.2c0.2-0.2,0.4-0.5,0.4-0.8l0-0.1c0.2-0.4,0.1-0.9-0.3-1.2l-4.3-3.9
		c-0.4-0.4-1.2-0.4-1.6,0.1c-0.4,0.5-0.4,1.2,0.1,1.6l2.2,2H40c-0.6,0-1.1,0.5-1.1,1.1c0,0.6,0.5,1.1,1.1,1.1h11.3l-2,1.6
		c-0.5,0.4-0.6,1.1-0.2,1.6C49.5,28.2,50.2,28.3,50.7,27.9z"/>
	<path fill="#E8BC00" d="M54.1,12H42.8l2.2-2c0.2-0.2,0.3-0.5,0.4-0.8c0-0.3-0.1-0.6-0.3-0.8c-0.2-0.2-0.5-0.4-0.8-0.4
		c-0.3,0-0.5,0.1-0.8,0.3l-4.3,3.9c-0.3,0.3-0.5,0.8-0.3,1.2c0,0,0,0,0,0.1l0,0.1c0,0.3,0.2,0.6,0.4,0.8l4,3.2
		c0.5,0.4,1.2,0.3,1.6-0.2c0.2-0.2,0.3-0.5,0.2-0.8c0-0.3-0.2-0.6-0.4-0.7l-2-1.6h11.3c0.6,0,1.1-0.5,1.1-1.1
		C55.2,12.5,54.7,12,54.1,12z"/>
</g>
</svg>
