<?xml version="1.0" encoding="utf-8"?>
<!-- Generator: Adobe Illustrator 18.0.0, SVG Export Plug-In . SVG Version: 6.00 Build 0)  -->
<!DOCTYPE svg PUBLIC "-//W3C//DTD SVG 1.1//EN" "http://www.w3.org/Graphics/SVG/1.1/DTD/svg11.dtd">
<svg version="1.1" id="Слой_1" xmlns="http://www.w3.org/2000/svg" xmlns:xlink="http://www.w3.org/1999/xlink" x="0px" y="0px"
	 viewBox="0 0 91 54.3" enable-background="new 0 0 91 54.3" xml:space="preserve">
<path fill="#E8BC00" d="M91,31.3c0-0.7-0.6-1.2-1.2-1.2H79V9.6c0-0.7-0.6-1.2-1.2-1.2H65.8V1.2c0-0.7-0.6-1.2-1.2-1.2H26.9
	c-0.7,0-1.2,0.6-1.2,1.2v7.1l-12.5,0c-0.7,0-1.2,0.6-1.2,1.2v20.5H1.2c-0.7,0-1.2,0.6-1.2,1.2v21.8c0,0.7,0.6,1.2,1.2,1.2h24
	c0.7,0,1.2-0.6,1.2-1.2V31.3c0-0.7-0.6-1.2-1.2-1.2H14.5V10.8h11.2l0,0.3V20c0,0.7,0.6,1.2,1.2,1.2h17.6v8.8H33.8
	c-0.7,0-1.2,0.6-1.2,1.2v21.8c0,0.7,0.6,1.2,1.2,1.2h24c0.7,0,1.2-0.6,1.2-1.2V31.3c0-0.7-0.6-1.2-1.2-1.2H47v-8.8h17.6
	c0.7,0,1.2-0.6,1.2-1.2v-9.2h10.7v19.3H65.8c-0.7,0-1.2,0.6-1.2,1.2v21.8c0,0.7,0.6,1.2,1.2,1.2h24c0.7,0,1.2-0.6,1.2-1.2V31.3z
	 M24,32.6v19.3H2.5V32.6H24z M56.5,32.6v19.3H35V32.6H56.5z M63.4,18.8H28.2V2.5h35.2V18.8z M88.5,51.9H67V32.6h21.5V51.9z"/>
</svg>
