<?xml version="1.0" encoding="utf-8"?>
<!-- Generator: Adobe Illustrator 18.0.0, SVG Export Plug-In . SVG Version: 6.00 Build 0)  -->
<!DOCTYPE svg PUBLIC "-//W3C//DTD SVG 1.1//EN" "http://www.w3.org/Graphics/SVG/1.1/DTD/svg11.dtd">
<svg version="1.1" id="Слой_1" xmlns="http://www.w3.org/2000/svg" xmlns:xlink="http://www.w3.org/1999/xlink" x="0px" y="0px"
	 viewBox="0 0 181.4 191.4" enable-background="new 0 0 181.4 191.4" xml:space="preserve">
<g>
	<g>
		<path fill-rule="evenodd" clip-rule="evenodd" fill="#FFFFFF" d="M120,189.1l1.2-0.4c1.8-0.6,3.6-1.1,5.3-1.8
			c0.7-0.3,1.5-0.6,2.2-0.9c0.6-0.3,1.3-0.6,2-0.8c0.6-0.2,1.2-0.4,1.8-0.6c0.7-0.2,1.3-0.4,2-0.7c2.2-0.9,4.6-1.9,7.2-3
			c3.5-1.6,7-3.6,10.8-6.3c4.5-3.2,8.6-6.8,12.2-10.6c2.2-2.4,4.7-5.2,6.7-8.6c1.5-2.5,2.8-4.8,4-7c1.4-2.8,2.4-4.9,3.1-6.9
			c0.4-1.2,0.8-2.4,1.2-3.8c-0.3,1-0.7,2-1.1,3c-0.8,2.1-1.6,4.1-2.4,5.9c-0.8,1.7-1.6,3.3-2.5,4.7l-0.3,0.6
			c-1.4,2.3-2.9,4.6-4.5,6.8c-2.5,3.3-5,6.1-7.6,8.4c-0.5,0.4-0.9,0.8-1.4,1.2c-1.4,1.2-2.8,2.5-4.3,3.7c-1.9,1.5-4.2,3-7,4.7
			c-2,1.2-4.1,2.3-6.1,3.4l-0.2,0.1c-0.9,0.5-1.8,0.8-2.7,1.2c-0.4,0.2-0.8,0.3-1.2,0.5l-0.4,0.2l-0.4-0.8l0.3-0.3
			c0.4-0.3,0.9-0.6,1.4-1c1-0.7,2-1.4,2.9-2.2c1.2-1,2.4-2,3.5-3c0.9-0.8,1.9-1.6,2.8-2.4c0.7-0.6,1.4-1.1,2.1-1.7
			c0.8-0.7,1.7-1.3,2.5-2c2.3-2,4.6-4,6.7-6.1c3-3,5.7-6.3,8-9.9c0.6-0.9,1.2-1.9,1.7-2.9c0.6-1,1.2-2,1.8-3c1-1.6,1.8-3.3,2.5-5.3
			c1-2.4,1.9-4.7,2.9-7.1c0.2-0.6,0.5-1.1,0.7-1.7c0.2-0.4,0.4-0.8,0.5-1.2l-1-0.2l1.4-7.1l1.8,0.4c0.1-0.6,0.3-1.2,0.4-1.8
			c0.7-3.8,1-8,0.8-12.3c0-1.1-0.2-2.3-0.3-3.4c-0.1-0.7-0.2-1.5-0.2-2.2c0-0.5-0.1-1-0.1-1.5c0-0.7,0-1.3-0.1-1.9
			c-0.1-0.8-0.3-1.7-0.5-2.5c-0.1-0.6-0.3-1.3-0.4-1.9c-0.1-0.6-0.1-1.3,0-2.2l0.2-1.7c-0.2-0.6-0.3-1.2-0.5-1.9
			c-0.1-0.2-0.1-0.5-0.2-0.7c-0.1-0.4-0.3-0.8-0.3-1.2c-0.1-0.7-0.3-1.5-0.4-2.2c-0.2-1.2-0.4-2.3-0.7-3.5c-0.5-1.9-1-3.9-1.7-5.9
			l-0.2-0.6c-0.8-2.4-1.6-4.9-2.6-7.2c-1-2.2-2-4.3-3.1-6.4c-0.6-1.1-1.1-2.2-1.7-3.3c-0.7-1.4-1.3-2.9-2-4.2
			c-0.4-0.8-0.7-1.7-1.1-2.5c-0.7-1.6-1.4-3.3-2.3-4.9c-1.4-2.7-2.8-5.2-4.4-7.7c-1.4-2.2-3.1-4.5-5-7.1c-2.1-2.8-4.6-5.4-7.6-8.2
			c-2.6-2.4-5.3-4.6-8-6.4c-0.6-0.4-1.2-0.8-1.8-1.1c-0.8-0.5-1.6-1-2.4-1.6c-3.5-2.6-7.1-4.9-10.8-6.9c-3.5-1.9-7.3-3.7-11.3-5.2
			c-3.1-1.2-5.9-2.1-8.7-2.7c-2.1-0.5-4.4-0.9-7.3-1.4C93.8,0.1,91.6,0,88.9,0l-1.9,0c-1.7,0-3.8,0-5.7,0.5
			c-0.9,0.2-1.8,0.4-2.7,0.5c-1.1,0.2-2.1,0.4-3.2,0.6C74,2,72.4,2.5,71,3.1l-0.4,0.2c-0.5,0.2-1,0.4-1.6,0.6
			c-0.6,0.3-1.3,0.6-2,0.8c-0.5,0.2-0.9,0.5-1.4,0.8c-0.5,0.4-0.9,0.7-1.6,0.9c0,0,0,0,0,0c0,0.1-0.1,0.3-0.1,0.4
			c-0.1,0.2-0.2,0.3-0.3,0.5l-0.4,0.5l-0.8-0.5l0-0.2C62,7.4,61.5,7.7,61,8c-1.1,0.7-2.3,1.4-3.6,2c-3.9,1.7-6.7,3.2-9.3,4.9
			c-2.8,1.9-5.4,3.8-7.7,5.7c-1.9,1.6-3.7,3.5-5.5,5.3l-0.1,0.1c-0.9,1-1.9,2.1-2.7,3.1c-0.5,0.6-1.1,1.2-1.6,1.9
			c-1,1.1-2,2.2-3,3.3c-2,2.2-4.1,4.5-6,6.8c-1.8,2.1-3.3,4.3-4.4,6.1c-2,3.1-3.8,5.9-5.3,8.7c-1.3,2.3-2.4,4.6-3.4,6.9
			c-0.8,1.8-1.6,3.8-2.5,6c-0.7,1.8-1.2,3.7-1.8,5.5L3.8,75c-0.4,1.2-0.8,2.5-1.1,3.8c-0.5,2.1-1.1,4.9-1.5,7.7
			c-0.4,2.2-0.6,4.5-0.8,6.3l0,0.3C0.2,95.3,0,97.5,0,99.7c0,3.4,0.1,6.7,0.3,9.4c0.1,1.4,0.3,2.9,0.5,4.3l0.1,0.3
			c0.3,1.8,0.6,3.7,1,5.6c0.3,1.3,0.7,2.7,1.2,4.3l0.1,0.4c0.7,2.1,1.4,4.4,2.3,6.5c0.7,1.8,1.6,3.6,2.6,5.4c1.2,2.1,2.6,4.7,4.3,7
			c1.5,2.1,3.2,4.2,4.8,6.1c2.8,3.3,6.3,6.6,11,10.3c1.8,1.4,3.8,2.9,6.3,4.5c1.6,1.1,3.3,2.1,4.9,3.1l1.4,0.9
			c0.4,0.2,0.8,0.5,1.2,0.7c0.6,0.3,1.1,0.6,1.7,1c1,0.7,2,1.4,2.9,2.1c1,0.7,2.1,1.5,3.2,2.2c1.6,1.1,3.1,2,4.6,2.9
			c1.8,1,3.7,2,5.7,3c1.1,0.5,2.2,1,3.2,1.5c0.7,0.3,1.4,0.6,2,0.9c1,0.4,1.9,0.9,2.9,1.3c1.9,0.9,3.9,1.8,5.9,2.6
			c2.7,1,5.6,1.9,8.4,2.7l0.5,0.2c1.6,0.5,3.4,0.9,5.7,1.3c2,0.4,4.4,0.8,6.8,1.1c1.9,0.2,3.9,0.3,5.9,0.3l0.2,0
			c2.5,0,5.2-0.1,8.1-0.3c0.8-0.1,1.7-0.2,2.5-0.3c0.7-0.1,1.4-0.2,2.1-0.3l0.1,0c0.2,0,0.4,0,0.5-0.1c0,0,0-0.1,0-0.2l0-0.1
			c0,0-0.1,0-0.1,0c-0.8,0.2-1.6,0.3-2.5,0.4l-1.1,0.1c-2.3,0.3-4.7,0.5-7.1,0.6c-1.5,0-3,0-4.5-0.1c-0.8,0-1.5-0.1-2.3-0.1
			c-3.1-0.1-6-0.7-8.7-1.2l-0.9-0.2c-1.4-0.3-2.9-0.6-4.3-1c-1.4-0.4-2.8-0.8-4.2-1.3c-0.6-0.2-1.2-0.4-1.8-0.6l-2.5-0.8l2.6-0.2
			c0.7,0,1.3,0,1.9,0.1c3,0.7,5.8,1.2,8.3,1.3c1.1,0.1,2.2,0.2,3.3,0.3c1.5,0.1,3,0.3,4.5,0.3c3.5,0.2,7,0.2,10.3,0.3
			c0.9,0,1.8,0,2.6,0l3.4,0c0.4,0,0.9,0,1.3,0l0,0c0.1,0,0.2,0,0.2,0c0,0,0-0.1,0-0.1c0-0.1,0-0.2,0-0.3l-4.5,0c-1.4,0-2.7,0-4.1,0
			c-0.6,0-1.3-0.1-1.9-0.2c-0.3,0-0.6-0.1-0.8-0.1l0.1-1c0.6,0,1.2,0,1.9,0c12.1,0,24-3.1,37.5-9.7l1.2-0.6l-0.5,1.2
			c-0.1,0.2-0.2,0.4-0.4,0.6c-0.6,0.4-1.1,0.8-1.7,1.1c-1.4,1-2.9,2-4.4,2.9c-1.5,0.9-3.1,1.9-4.9,2.5c-1.3,0.5-2.7,0.8-4.1,1.1
			c-0.5,0.1-1,0.2-1.4,0.3c-1.1,0.3-2.3,0.6-3.5,0.7c-0.8,0.1-1.6,0.2-2.4,0.3c-0.8,0.1-1.6,0.2-2.4,0.3c-0.6,0.1-1.3,0.3-1.8,0.6
			c0,0,0,0.1,0,0.1c0,0,0.1,0,0.1,0c1.5-0.2,3.1-0.3,5-0.6c0.3,0,0.7-0.1,1-0.2c0.2,0,0.3-0.1,0.5-0.1l0.5-0.1l0.3,1.1l-1.3,0.4
			c-0.6,0.2-1.2,0.4-1.9,0.5c-0.1,0-0.3,0.1-0.4,0.1c-0.7,0.2-1.2,0.3-1.4,0.7l0.3-0.1C118.3,189.6,119.2,189.3,120,189.1z
			 M179.8,105l0.6-2.6l0.3,2.6c0.8,6.1,0.8,11.5,0,16.5l-0.2,1.3l-0.7-1.1C179,120.2,179,108.2,179.8,105z M148.5,171.4l-3,1.8
			l9.9-10.3l0.7,0.6c-0.4,0.4-0.7,0.9-1,1.3C153.2,167.3,151.3,169.8,148.5,171.4z M151.2,165.1c-2.6,1.9-5.2,3.9-8,5.6
			c-1.9,1.1-3.9,2.1-5.9,3c-0.6,0.3-1.2,0.5-1.7,0.8c-1,0.5-2,0.9-3.1,1.3c-0.5,0.2-0.9,0.4-1.4,0.6l-0.4,0.2l-0.5-1l0.4-0.3
			c11.5-5.4,21.5-13,29.7-22.5l0.3-0.4l0.8,0.7l-0.6,0.9c-0.3,0.4-0.5,0.8-0.7,1.2C158.1,158.9,155.2,162.1,151.2,165.1z
			 M175.2,135.3c-0.1,0.4-0.2,0.9-0.4,1.3c-1.4,4.1-3,7.8-4.8,11.2c-0.3,0.5-0.6,0.9-1.1,1.2l0.3,0.1l-0.3,0.5
			c-3,5.1-6.9,9.9-11.4,14.2l-3.1,3l3.9-5.8c2.6-3.9,5.3-7.9,7.8-11.9l0,0l0.1,0c3-4.8,5.9-9.6,8.4-14.7l0.9,0.4
			C175.3,135,175.3,135.1,175.2,135.3z M177.3,123.4c-0.2,3.9-1.6,7.5-3.5,11.6l-1.6,3.3l0.6-3.6c0.5-2.9,1.5-5.7,2.4-8.4
			c0.4-1,0.7-2.1,1.1-3.1l1.2-3.6L177.3,123.4z M177.4,84.3l1.4,8.9l-1.3,0.2l-1.4-8.9L177.4,84.3z M176,117.3l0.6-4.3l1.2,0.2
			l0,0.5l-0.7,4.3l-1.1-0.1L176,117.3z M172.4,78.8c0.1,0.4,0.3,0.8,0.4,1.2c0.9,2.7,1.9,5.5,1.8,8.6l0,4.1l-3.1-13.6L172.4,78.8z
			 M165.6,57.4c1.4,2.1,2.3,4.5,3.1,6.7c0.1,0.4,0.3,0.8,0.4,1.2l-0.9,0.4l-0.3-0.6c-1.3-2.3-2.6-4.7-3.2-7.3l-0.6-2.6L165.6,57.4z
			 M166,64.1c0.5,0.7,0.7,1.5,1,2.3l0.1,0.3c0.3,1,0.6,1.9,0.9,2.9l0.2,0.8c0.6,1.9,1.1,3.9,1.7,5.8l0.3,1.2c0.3,1,0.6,2.1,0.9,3.1
			c0.4,1.8,0.8,3.6,1.2,5.3l0.3,1.4c0.2,1,0.4,2,0.6,3l0.2,1.1c0.3,1.6,0.6,3.3,0.8,5c0.3,1.9,0.5,3.8,0.6,5.9c0,0.5,0.1,1,0.2,1.5
			c0.2,1.5,0.3,3.1,0.3,4.6c-0.1,2.1-0.3,4.2-0.6,6.3c-0.1,0.8-0.2,1.6-0.3,2.3c-0.2,1.5-0.3,2.9-0.5,4.1c-0.1,1-0.3,2-0.5,2.8
			c-0.2,0.9-0.4,1.8-0.6,2.8l-0.4,1.6l-1.1-0.1l0-0.5c0.1-0.4,0.1-0.8,0.2-1.2c0.1-0.8,0.3-1.7,0.4-2.5l0.1-0.8
			c0.2-1.5,0.4-3,0.5-4.5l0-0.9c0.1-2.8,0.3-5.7,0.2-8.5c-0.1-3.1-0.4-6.1-0.7-9.5c-0.3-2.9-0.6-5.3-1.1-7.7
			c-0.7-3.1-1.5-6.2-2.5-9.8c-0.6-2-1.3-4.1-2.2-6.5c-1-2.7-1.9-4.9-2.9-6.9c-1-2.2-2.3-4.4-3.4-6.5c-1.4-2.5-2.6-4.6-3.8-6.6
			c-0.9-1.5-2-3.1-3.4-5c-1.9-2.7-3.6-4.9-5.3-6.9l0.7-0.7c0.3,0.3,0.6,0.5,0.9,0.8c0.7,0.6,1.3,1.1,1.9,1.8c2,2.2,4,4.5,6.2,7.1
			c1.5,1.8,3,3.7,4.7,5.8C163.5,60.5,164.9,62.3,166,64.1z M88.3,5.7l0.2,1.1l-0.8,0.1l-4.4,0.3L83.3,6l0.5,0L88.3,5.7z M83.9,4.1
			L84.4,4c0.3,0,0.5-0.1,0.8-0.1c0.6-0.1,1.2-0.2,1.8-0.2c0.6,0,1.2,0,1.9,0c0.3,0,0.5,0,0.8,0H90l0.1,0.9l-0.5,0.2L84,5.2L83.9,4.1
			z M84,7.9c2.7-0.4,5.6-0.7,8.5-0.7c0.9,0,1.7,0,2.5,0.1c1.9,0.1,3.8,0.7,5,1.1c2.1,0.7,4.2,1.5,6.3,2.2l1.2,0.5
			c0.4,0.2,0.8,0.4,1.1,0.6c0.1,0.1,0.3,0.2,0.4,0.3l0.2,0.1l0,0.8l-0.6,0l-0.4-0.1c-0.3,0-0.6-0.1-0.9-0.1
			c-0.4-0.1-0.8-0.2-1.3-0.3c-0.7-0.2-1.4-0.4-2.1-0.5c-1.4-0.2-2.9-0.4-4.5-0.5l-0.9-0.1c-1.5-0.1-3-0.3-4.5-0.2
			c-2.9,0.1-5.7,0.4-8.3,0.7c-2.8,0.4-5.6,0.9-8.1,1.5c-3,0.7-6,1.7-8.8,2.6c-1.9,0.6-3.8,1.3-5.7,2.1c-2.3,0.9-4.1,1.7-5.8,2.5
			c-1.8,0.8-3.7,1.8-5.7,2.9c-1.3,0.7-2.7,1.5-3.9,2.3c-0.6,0.4-1.3,0.7-1.9,1.1l-0.1,0.1l-0.1,0c-0.1,0-0.2,0-0.2,0
			c0,0-0.1,0-0.1,0l-0.9-0.2l0.7-0.6c0.1-0.1,0.2-0.2,0.3-0.3c0.2-0.2,0.4-0.4,0.7-0.6c1-0.7,1.9-1.5,2.9-2.2
			c2.4-1.9,4.9-3.8,7.5-5.6c2.5-1.8,5.2-3.3,7.9-4.8l0.2-0.1c0.7-0.4,1.5-0.6,2.3-0.8c0.3-0.1,0.6-0.2,0.9-0.3
			c0.7-0.2,1.4-0.4,2-0.6c0.6-0.2,1.2-0.3,1.8-0.5c1.6-0.4,3.2-0.9,4.8-1.2C78.5,8.7,81,8.3,84,7.9z M90.1,12.1h0.4c0.5,0,1,0,1.5,0
			c0.5,0,1,0,1.5,0c0.7,0,1.3,0,1.9,0c2.8,0.2,5.5,0.4,8.2,0.7c0.7,0.1,1.4,0.3,2.1,0.4c0.5,0.1,1.1,0.3,1.7,0.4
			c1.9,0.3,3.7,0.9,5.4,1.5c0.5,0.2,1.1,0.4,1.6,0.5c2.8,0.9,5,2,6.9,3.5c1.2,0.9,2.5,1.8,3.7,2.7c0.6,0.4,1.1,0.8,1.7,1.2l0.4,0.3
			l-0.6,1l-0.4-0.2c-11.6-7-23.2-10.5-35.5-10.7l-0.5,0L90.1,12.1z M126.5,21.2l1.3,0.8c15.6,9.5,26.3,23.2,33.9,34l0.2,0.3
			l-0.8,0.8l-0.7-0.8c-0.2-0.3-0.5-0.6-0.7-0.9c-0.9-1.1-1.8-2.2-2.7-3.3c-2.1-2.6-4.4-5.3-6.6-7.8c-2.3-2.6-4.7-4.9-7.5-7.5
			c-3.5-3.4-7.1-6.6-9.8-9c-1.2-1.1-2.5-2.1-3.7-3.1c-0.6-0.5-1.2-0.9-1.7-1.4c-0.2-0.2-0.4-0.3-0.5-0.6L126.5,21.2z M161.4,52.2
			l1.7,3.8l-10.4-13.7l0.8-0.6c0.7,0.8,1.5,1.7,2.2,2.5C157.8,46.6,160,49.1,161.4,52.2z M158.4,40.2l-0.8,0.6l-8.1-10.3l0.7-0.6
			C153.3,33,156.1,36.5,158.4,40.2z M147.1,26.5l0.4,0.3l2.5,2.7l-0.8,0.9l-2.9-3.1L147.1,26.5z M138,23.8
			c5.3,3.8,16.9,15.4,17.9,17.9l1.1,2.6l-1.9-2.1c-6.2-6.9-12-12.6-17.7-17.7L138,23.8z M133.9,22.9c1.9,1.5,3.7,3.1,5.5,4.7
			c0.7,0.6,1.4,1.2,2,1.8c0.1,0.1,0.2,0.3,0.2,0.4c0,0.1,0,0.1,0.1,0.2l0.8,1.8l-1.5-1.2c-0.5-0.4-0.9-0.7-1.4-1.1
			c-1-0.8-1.9-1.5-2.8-2.3l-0.4-0.3c-1.9-1.4-3.8-2.8-5.8-4.1c-2.8-1.7-5.5-3.3-8.1-4.7c-1.1-0.6-2.4-1.1-3.6-1.6
			c-0.8-0.3-1.6-0.6-2.3-1c-0.5-0.2-1.1-0.6-1.6-0.8c-0.4-0.2-0.7-0.4-1.1-0.6c-1.3-0.7-2.6-1.3-4-1.9l-0.4-0.2c-1-0.5-2-1-3.1-1.4
			c-0.7-0.3-1.5-0.6-2.2-1L103,8.9l-0.1-1l1.6,0.3c0.8,0.1,1.5,0.2,2.3,0.4c0.3,0.1,0.7,0.1,1,0.1c0.8,0.1,1.7,0.2,2.5,0.4
			c1.8,0.5,3.2,0.9,4.6,1.5c1.6,0.7,3.3,1.6,5,2.6c2.3,1.4,5,3,7.6,4.8C129.5,19.4,131.6,20.9,133.9,22.9z M68.4,4.9
			c1.1-0.4,2.1-0.9,3.2-1.3c0.9-0.3,1.9-0.7,2.9-1c0.5-0.1,1-0.2,1.5-0.4c1.9-0.5,4-1,6-1.2c4.1-0.6,7.7-0.6,11.1-0.2
			C94,1,94.8,1.1,95.6,1.2c1.7,0.2,3.5,0.4,5.2,0.7c1.5,0.2,3,0.7,4.5,1.1c2.1,0.6,4.4,1.3,6.6,2.1c1.7,0.6,3.3,1.3,4.8,2
			c1.2,0.6,2.4,1.2,3.6,1.8c0.5,0.2,1,0.5,1.4,0.7c0.3,0.2,0.7,0.4,1.1,0.8l1.3,1.3l-2.5-0.8c-0.5-0.2-1.1-0.3-1.6-0.5
			c-0.5-0.1-0.9-0.3-1.4-0.4c-0.8-0.2-1.5-0.4-2.3-0.6c-0.5-0.1-0.9-0.4-1.3-0.6c-0.2-0.1-0.5-0.2-0.7-0.3l-0.4-0.2
			c-1.2-0.5-2.4-1-3.7-1.5c-1-0.4-2-0.8-3.1-1.1c-1.4-0.4-2.9-0.8-4.3-1.1l-0.3-0.1c-1-0.3-2.1-0.5-3.1-0.7
			c-1.4-0.2-2.9-0.4-4.2-0.6l-0.5-0.1c-1-0.1-2-0.2-3-0.2l-0.4,0c-0.5,0-1,0-1.5,0c-1.4,0-3.1,0-4.7,0.2c-2.2,0.2-4.5,0.5-6.9,1
			c-1.5,0.3-3,0.7-4.4,1.1c-0.9,0.2-1.8,0.5-2.7,0.7c-0.8,0.2-1.7,0.4-2.5,0.5c-0.4,0.1-0.7,0.1-1.1,0.2L67,6.7l-0.4-1.1L68.4,4.9z
			 M54.4,14c0.2-0.1,0.4-0.3,0.6-0.4c0.5-0.3,0.9-0.6,1.4-0.8l1-0.5c1.7-0.9,3.5-1.7,5.3-2.5c0.4-0.2,0.9-0.4,1.3-0.5
			c-0.2-0.1-0.3-0.4-0.3-0.5c-0.1-0.2,0.1-0.5,0.2-0.6c0.2-0.2,0.3-0.3,0.5-0.3l0.1,0c0.2,0,0.3,0,0.3,0C65,7.7,65,7.3,65,7.1l0-0.3
			l0.8-0.4L66,6.7c0,0,0.1,0.1,0.1,0.1c0.2,0.1,0.4,0.3,0.4,0.6c0,0.3,0,0.6-0.1,0.9c0.9-0.3,1.9-0.7,2.9-1.1c1.6-0.6,3-1,4.2-1.3
			c0.8-0.2,1.6-0.2,2.3-0.3c0.3,0,0.5,0,0.8-0.1l3.7-0.3l-3.5,1.3c-1.1,0.4-2.1,0.8-3.2,1.2c-2.5,0.9-5.1,1.9-7.7,2.8
			c-3.7,1.3-7.4,2.6-10.9,4.4l-0.4,0.2l-0.5-1L54.4,14z M45.9,22.7c1.6-2.5,3.9-4.2,7-5.4l3.1-1.2l-11.7,9L45.9,22.7z M41.7,25
			l1.7-0.7l-1.1,1.5c-0.5,0.6-0.9,1.3-1.4,1.9c-1,1.4-2.1,2.9-3.3,4.2c-1.2,1.3-2.5,2.4-4,3.6c-0.6,0.5-1.2,1-1.8,1.6L31,37.7l0-1.1
			C31.1,35,40,25.8,41.7,25z M31.3,41.6l-1.2,2c-6.7,11.6-11.9,24.2-15.4,37.4l-0.9-0.2c0-0.7,0.1-1.4,0.1-2.2
			c0.1-1.7,0.2-3.4,0.3-5.1c0.1-1.6,0.4-3.3,0.6-4.9l0.1-0.9c0.2-1.6,0.9-3,1.6-4.3c0.4-0.7,0.8-1.5,1.2-2.2c0.8-1.5,1.5-3,2.4-4.4
			c1-1.8,2.2-3.5,3.5-5.6c1.3-1.9,2.6-3.9,3.9-5.7l1.3-1.8c0.2-0.3,0.4-0.5,0.7-0.7L31.3,41.6z M32.5,31.1c0.5-0.4,1-0.9,1.5-1.3
			l0.7,0.7c-3.4,3.6-6.3,7.8-9.1,11.9c-0.5,0.7-1,1.5-1.6,2.2l-0.3,0.4l-1.1-0.7l0.2-0.4c0.4-0.7,0.8-1.4,1.3-2.2
			C25,40,26,38.4,27,36.8C28.4,34.4,30.5,32.7,32.5,31.1z M12.3,58c2.6-5.6,5.9-10.9,9.8-15.8l2.8-3.4l-2.3,4.6
			c-0.3,0.5-0.5,1-0.8,1.5c-0.2,0.4-0.4,0.9-0.6,1.3c-0.4,0.9-0.8,1.8-1.3,2.7c-0.5,0.8-1,1.4-1.5,2.1c-0.4,0.5-0.8,1-1.1,1.5
			c-0.9,1.2-1.7,2.5-2.5,3.8c-0.4,0.6-0.8,1.2-1.2,1.9c-0.1,0.2-0.3,0.3-0.5,0.4l-1.3,0.8L12.3,58z M6.3,76.7c0-0.3,0.1-0.6,0.2-0.9
			c0.1-0.4,0.2-0.9,0.3-1.3c0.3-1.2,0.5-2.4,0.9-3.6c0.4-1.4,1-2.8,1.6-4.1c1.3-2.6,2.5-5.1,3.9-7.6c0.8-1.5,1.8-2.9,2.7-4.2
			c0.4-0.6,0.8-1.2,1.2-1.8l0.2-0.4l1,0.6l-0.2,0.4c-0.1,0.3-0.3,0.5-0.4,0.8c-0.3,0.6-0.5,1.2-0.9,1.7c-0.5,0.9-1,1.8-1.5,2.8
			c-0.8,1.5-1.6,3-2.4,4.5c-1.1,2.1-1.9,3.9-2.6,5.5c-0.7,1.7-1.3,3.5-2,5.2c-0.3,0.8-0.6,1.7-0.9,2.5c-0.1,0.4-0.3,0.6-0.6,0.9
			l-1,0.9L6.3,76.7z M14.3,63.3l0.9,0.4l-0.3,0.8c-0.2,0.6-0.4,1.1-0.7,1.7c-0.4,1-0.8,1.9-1.2,2.9c-0.4,1-0.9,2-1.3,3l-0.1,0.3
			c-0.5,1.2-1,2.5-1.5,3.7c-0.5,1.3-0.9,2.7-1.3,4l-0.4,1.3c-0.3,1-0.6,2-0.9,2.9c-0.3,1.1-0.5,2.2-0.8,3.3c-0.2,0.7-0.3,1.3-0.5,2
			c-0.1,0.3-0.2,0.5-0.2,0.8l-0.3,0.8l-1.1-0.3l0.1-0.4C6.6,81.3,9.7,72.5,14.3,63.3z M9,102.5c0.1,2.2,0.2,4.2,0.4,6.2
			c0.3,2.6,0.6,5,1.1,7.2c0.5,2.6,1.1,5.3,1.9,8.5c0.2,0.8,0.5,1.7,0.8,2.5c0.2,0.4,0.3,0.8,0.5,1.2c0.1,0.2,0,0.3,0,0.4v0.4
			l-0.4,0.2l-0.4,0.1l-0.2-0.4c-0.1-0.3-0.2-0.6-0.4-0.8c-0.3-0.6-0.6-1.3-0.8-1.9c-0.5-1.3-1.1-2.9-1.6-4.4l-0.1-0.4
			c-0.6-1.7-1.1-3.5-1.6-5.3c-0.8-3.4-1.5-6.5-2.1-9.6c-0.3-1.8-0.6-3.6-0.6-5.5c0-1.5,0.3-3.1,0.5-4.6c0.1-0.4,0.2-0.9,0.2-1.3
			c0.3-1.7,0.6-3.5,1-5.8c0.1-0.7,0.3-1.4,0.5-2l0.1-0.4c0.6-2.2,1.2-4.2,1.9-6.3l0.9,0.2c-0.1,0.4-0.1,0.7-0.2,1.1
			c-0.1,0.8-0.3,1.6-0.4,2.4c-0.2,1.5-0.4,3-0.5,4.6C9.4,91,9.2,93.5,9.1,96C9,98.2,8.9,100.4,9,102.5z M3.1,95.5l0,0.4
			c-0.4,4.1-0.8,8.3-0.8,12.4c0,0.7,0.1,1.3,0.1,2c0,0.3,0,0.6,0.1,0.9l-1,0.1c-0.7-4.9-0.9-10.1-0.5-16.4
			c0.4-5.3,1.3-10.7,2.8-16.1L4.7,79l-0.1,0.7c-0.1,0.5-0.2,1-0.2,1.5l-0.2,1C4,83.5,3.8,84.8,3.6,86c-0.3,1.8-0.3,3.6-0.4,5.4
			C3.2,92.8,3.2,94.2,3.1,95.5z M4.6,101l-1.2,0l0.2-3.7l1.2,0L4.6,101z M5.2,109.3l0-3.8l4.3,16l-0.9,0.3c-0.3-0.9-0.6-1.8-1-2.7
			C6.4,116.1,5.2,112.8,5.2,109.3z M28.2,156.4C16.1,146.1,9,134.2,6.4,119.8l0.9-0.2c4.9,13.8,13.3,25.6,21.6,36.2l2.9,3.7
			L28.2,156.4z M47.4,168.4c-3.2-2.1-5.8-4-8.2-5.8c-3.6-2.7-7-6-10.5-9.8c-3.1-3.4-5.8-7-8.1-10.8c-1.5-2.4-2.7-4.9-3.8-7.3
			c-1-2.1-1.9-4.3-2.6-6.3c-0.7-2.2-1.4-4.5-2.1-7.1c-0.6-2.5-1.2-5.1-1.6-7.8c-0.9-5.8-1.2-11.9-0.9-18.1c0.1-2.3,0.4-4.6,0.7-6.8
			c0.1-0.6,0.1-1.1,0.2-1.7c0.2-2.1,0.6-4.2,0.9-6.6c0.1-0.8,0.3-1.6,0.5-2.4c0.1-0.4,0.2-0.7,0.3-1.1c0.2-0.7,0.3-1.3,0.6-1.9
			l1-2.1l-0.1,2.4c0,0.6-0.1,1.1-0.1,1.7c-0.1,1.2-0.2,2.5-0.2,3.8c0,1.3,0,2.7,0.1,4.1c0,0.9,0.1,1.8,0.1,2.7
			c0,0.3-0.1,0.6-0.1,0.9c0,0.2-0.1,0.3-0.1,0.5c-0.1,0.6-0.1,1.2-0.2,1.7c-0.1,1.2-0.2,2.4-0.5,3.6c-0.1,0.7-0.2,1.3-0.3,2
			c0,0,0.1-0.1,0.1-0.1c0.4-0.4,1-0.6,1.9-0.5l0.5,0.1c-0.1-0.6-0.2-1.3-0.3-1.9L14.5,92c0-0.2-0.1-0.5-0.1-0.7
			c-0.3-1.8,0.1-3.6,0.4-5.3l0.1-0.4c0.5-2.3,1-4.6,1.5-6.9c0.3-1.1,0.6-2.2,0.9-3.2l0.4-1.4c0.5-1.5,0.9-3.1,1.4-4.6
			c0.4-1.3,0.9-2.5,1.4-3.8l0.3-0.7c0.6-1.5,1-2.7,1.5-3.8c0.7-1.6,1.4-3.3,2.1-4.9c0.9-1.9,1.9-4,3-6.1c1.2-2.3,2.3-4.3,3.4-6.1
			c1.7-2.9,3.6-5.8,5.3-8.5c0.3-0.5,0.8-1,1.4-1.4c0.5-0.4,1-0.8,1.6-1.2c1.6-1.3,3.2-2.6,5-3.7c2.6-1.7,5.5-3.4,9.4-5.6
			c2.4-1.4,4.8-2.6,7.2-3.6c3.1-1.3,5.8-2.4,8.5-3.2c2.2-0.7,4.7-1.3,7.5-1.9c2.4-0.4,4.7-0.7,7.4-1l0.2,0c2.1-0.2,4.3-0.4,6.4-0.4
			l0.4,0c3.8,0,6.8,0.3,9.6,0.9c0.3,0.1,0.7,0.1,1,0.1c0.4,0,0.8,0,1.3,0.1c1.1,0.3,2.2,0.6,3.3,0.9l0.8,0.2c1.1,0.3,2.2,0.6,3.2,1
			l0.7,0.2c0.8,0.3,1.7,0.5,2.5,0.9c0.5,0.2,1.1,0.5,1.6,0.7c2.1,0.9,4.3,1.8,6.3,2.9c4,2.1,7.5,4.3,10.7,6.7
			c0.4,0.3,0.9,0.6,1.3,0.9c1,0.7,2,1.4,2.9,2.3c2.7,2.6,5,5.1,7.3,7.6c2.2,2.4,4.3,5.1,6.3,7.8c1.5,2,2.9,4.2,4.3,6.2l1.1,1.7
			c1.1,1.7,2.2,3.4,3.2,5.2c1.8,3.3,3.4,6.3,4.8,9.2c1.3,2.6,2.2,4.9,3,7.1c0.9,2.5,1.7,5.1,2.4,7.6l0.4,1.5
			c0.5,1.8,0.9,3.3,1.3,4.8c0.4,1.7,0.7,3.5,1,5.3l0.1,0.4c0.3,1.6,0.6,3.4,0.8,5.1c0.1,1.2,0.2,2.4,0.3,3.5c0,0.6,0.1,1.3,0.1,1.9
			c0.3,3.6,0.3,7.4-0.2,11.8c-0.2,2.5-0.6,5.1-1.1,8c-0.4,2.2-0.8,4.3-1.3,6.4l-0.1,0.6c-0.4,1.6-0.7,3.2-1.3,4.7
			c-0.6,1.5-1.4,3.1-2.4,4.6c-1.9,2.9-4,6-6.2,9c-2.8,3.7-6,7.1-9.5,9.9l-0.9,0.8c-2.3,1.9-4.6,3.8-7.1,5.5c-2.8,1.9-5.8,3.5-8.7,5
			l-0.4,0.2c-2.4,1.3-4.6,2.3-6.7,3.1c-2.4,0.9-4.9,1.7-7.3,2.4l-1.7,0.5c-1.5,0.5-3,0.9-4.6,1.2c-2.8,0.5-5.2,0.9-7.6,0.9
			c-0.3,0-0.6,0-1,0c-1.9,0-3.8-0.1-5.6-0.3c-0.7,0-1.4-0.1-2.1-0.1c-1.5-0.1-3.5-0.2-5.5-0.5c-1.6-0.2-3.1-0.5-4.6-0.8l-0.1,0
			c-2.2-0.5-4.5-0.9-6.8-1.5c-1.7-0.4-3.3-1-4.9-1.5c-2.1-0.7-4.1-1.4-6.1-2.2c-1.8-0.7-3.6-1.6-5.4-2.4c-0.4-0.2-0.7-0.3-1-0.5
			c-1.2-0.6-2.4-1.1-3.6-1.9c-2-1.3-3.8-2.7-5.3-4.1c-3.7-3.4-6.5-6.1-9.1-8.7c-2-2.1-4-4.4-6-7.1c-2-2.6-4.5-5.9-6.8-9.6
			c-1.9-2.9-3.5-6-5.1-9l-0.6-1.1c-1.1-2.1-2.1-4.2-3-6.2c-1.2-2.9-2.3-5.9-3.4-8.8c-0.5-1.5-1.2-3.4-1.8-5.4
			c-0.5-1.8-0.9-3.7-1.3-5.5l-0.2-1c-0.2-0.9-0.4-1.8-0.6-2.7c-0.1,0.1-0.3,0.2-0.5,0.3c0,0.1-0.1,0.2-0.1,0.2l0.1,0.4
			c0.5,2.2,1.1,4.5,1.7,6.7c0.6,2.3,1.4,4.9,2.3,7.5c1.1,3.2,2.1,5.8,3.1,8.1c1.6,3.6,2.9,6.4,4.3,8.9c1.7,3.1,3.6,6.3,5.7,9.4
			c1.7,2.5,3.6,5.2,6,8.3c3.2,4.1,6.8,8.1,10.7,11.7c0.4,0.3,0.8,0.8,1.1,1.4l1,1.8l-2.2-1.5c-0.4-0.3-0.9-0.6-1.3-0.9
			c-4.3-3.1-7.7-5.9-10.6-8.7c-2.3-2.3-4.6-4.7-6.8-7l-1.3-1.4c-2.4-2.6-4.6-5.7-6.7-9.5c-1.6-2.8-2.9-5.8-4.3-9.1
			c-0.9-2.1-1.6-4.3-2.2-6.4c-0.7-2.7-1.3-5.6-1.7-8.4c-0.6-3.8-0.8-7.9-0.6-12c0-0.4,0.1-0.7,0.1-1.1c0,0,0,0,0,0h-1
			c-0.1,1.8,0,3.6,0.1,5.3c0.1,2.9,0.5,5.8,0.8,8.6l0,0.2c0.3,2,0.6,3.9,1.1,5.8c0.7,2.8,1.4,5.1,2.1,7.1c0.8,2.3,1.8,4.6,3,6.8
			c1.2,2.4,2.5,4.6,3.8,6.6c3.3,5,7.5,9.9,12.4,14.3c2.9,2.6,5.8,5.1,8.8,7.5c2.5,1.9,5.1,3.6,7.5,5.2c1.3,0.8,2.6,1.6,3.9,2.3
			c1.2,0.7,2.5,1.5,3.7,2.2c1.5,1,3,2,4.5,3c0.9,0.6,1.7,1.2,2.6,1.8c0.5,0.3,1.1,0.7,1.6,1c0.3,0.1,0.5,0.3,0.8,0.5l0.4,0.3
			l-0.6,0.9l-0.3-0.1c-0.9-0.3-1.7-0.6-2.6-0.9c-2-0.7-4.1-1.5-6.1-2.2c-2.2-0.8-4.5-1.8-6.7-2.8C51.2,170.8,49.4,169.7,47.4,168.4z
			 M92.7,181.8l-0.6,0.1l-1.5-0.1c-1.1-0.1-2.2-0.2-3.3-0.3l-0.5,0c-1.4-0.1-2.9-0.3-4.4-0.5c-1.1-0.2-2.1-0.4-3.2-0.6l-1.1-0.2
			c-0.3,0-0.5-0.1-0.8-0.1c-0.7-0.1-1.4-0.2-2.1-0.5c-0.8-0.2-1.6-0.7-2.2-1c-2.2-1.2-3.9-2.3-5.5-3.3l-3.4-2.2l3.8,1.3
			c0.8,0.3,1.6,0.6,2.4,0.9c1.8,0.6,3.6,1.3,5.4,1.9c2.7,0.8,5.5,1.6,8.2,2.2c1.9,0.4,3.9,0.8,5.8,1.1c0.8,0.1,1.7,0.3,2.5,0.5
			l0.4,0.1L92.7,181.8z M93.1,187.4l-1.8-0.2c-1.1-0.1-2.2-0.2-3.3-0.3l-0.7-0.1c-1.4-0.1-2.7-0.3-4.1-0.5c-1.3-0.2-2.7-0.5-4.3-0.8
			l-0.3-0.1c-2-0.4-4.1-0.9-6.1-1.4c-1-0.3-1.9-0.6-2.9-0.9c-0.6-0.2-1.3-0.4-1.9-0.6c-2.6-0.8-4.9-2.1-7.2-3.4
			c-0.6-0.3-1.2-0.7-1.8-1c-1-0.5-1.9-1.1-2.8-1.9l-2.3-1.9l3.7,1.4c0.6,0.2,1.3,0.5,1.9,0.7l1.5,0.5c1.9,0.7,3.8,1.4,5.7,2
			c1.8,0.6,3.4,1.2,5,1.6c3,0.9,5.8,1.7,8.3,2.5c1.5,0.4,3.1,0.8,4.8,1.2c0.9,0.2,1.9,0.4,2.8,0.6c0.8,0.2,1.6,0.3,2.3,0.5
			c0.7,0.2,1.5,0.4,2.2,0.5c0.3,0.1,0.7,0.2,1,0.3l0.4,0.1L93.1,187.4z M139.6,176.2c-3,1.8-5.5,3.1-8,4.1c-2.3,1-4.7,1.6-7.1,2.3
			l-0.3,0.1c-2,0.5-4,1-6.3,1.4c-2,0.3-4.2,0.7-6.4,0.8c-3.7,0.1-6.5,0.2-9.2,0.2c-1.2,0-2.4,0-3.6,0c-1.8,0-3.7-0.3-5.5-0.5
			c-0.8-0.1-1.6-0.2-2.4-0.3l-0.3,0l-0.4-0.9l0.7,0c0.7,0,1.4,0,2.1,0c0.7,0,1.4,0,2.1,0c1,0,1.8,0,2.6-0.1c2.8-0.2,5.7-0.4,9.4-0.9
			c1.9-0.2,3.8-0.6,5.7-0.9l1.6-0.3c2.1-0.4,4.2-0.8,6.3-1.2c3.2-0.7,5.6-1.4,7.8-2.1c2.9-0.9,5.5-1.8,7.9-2.8
			c1.8-0.8,3.7-1.7,5.4-2.7l0.5-0.3c0.7-0.4,1.4-0.8,2.1-1.2c0.9-0.5,1.8-1.1,2.8-1.5l3.7-1.9l-3.2,2.7c-0.3,0.2-0.5,0.5-0.8,0.7
			c-0.6,0.5-1.2,1.1-1.8,1.5c-0.4,0.3-0.8,0.6-1.2,0.9C142.5,174.2,141.1,175.3,139.6,176.2z"/>
		<path fill-rule="evenodd" clip-rule="evenodd" fill="#FFFFFF" d="M15,97.6c0.1,0,0.1,0,0.2,0c0-0.1,0-0.3,0-0.4
			c-0.1-0.5-0.1-0.9-0.2-1.4l-0.1,0.4c0,0.1-0.1,0.2-0.1,0.2c0,0.1-0.1,0.2-0.1,0.3c0,0.3,0,0.5,0,0.8L15,97.6z"/>
	</g>
	<g>
		<path fill-rule="evenodd" clip-rule="evenodd" fill="#FFFFFF" d="M97.6,126.8c0.7-1.7,1.2-3.4,1.7-5c0.2-0.6,0.3-1.2,0.4-1.8
			c0-0.3,0.1-0.5,0.1-0.8c0.1-0.3,0.1-0.6,0.1-0.9c0.1-0.7,0.2-1.5,0.5-2.2c0.9-2.1,1.4-4.4,1.4-6.9c0.1-7.3,0.4-14.5,0.8-22.4
			c0.2-3.5,0.2-7.1,0.3-10.4c0-1.4,0.1-2.9,0.1-4.2l-0.1-3.5c-0.1-2.8-0.2-5.3-0.3-7.9l0-0.6c0-0.9-0.1-1.9-0.2-2.9
			c-0.3-2.4-0.6-4.2-0.9-5.8c-0.4-1.9-0.7-3.5-1.2-4.9c-0.3-0.9-0.7-1.8-1.1-2.8c-0.2-0.5-0.4-1-0.6-1.5c-0.2-0.5-0.4-1.1-0.6-1.6
			c-0.4-1-0.7-2-1.1-2.9c-0.1-0.1-0.1-0.3-0.2-0.4l-2.1-0.6c-0.1,0-0.1,0-0.2-0.1l0.8,1c0.2,0.2,0.4,0.5,0.6,0.7
			c0.4,0.5,0.8,0.9,1.1,1.4c1.4,2,2.3,3.9,2.6,5.9c0.1,0.9,0.4,1.7,0.6,2.7c0.2,0.8,0.4,1.6,0.6,2.4c0.3,1.6,0.5,3.1,0.6,4.5
			c0.2,1.7,0.3,3.4,0.3,5.2c0,5.7,0,11.4,0,16.8c0,1.1,0,2.2-0.1,3.3c0,0.6,0,1.2-0.1,1.9l0,1.6c-0.1,2.5-0.1,5-0.2,7.5
			c0,1.9-0.1,3.7-0.1,5.6c-0.1,4.1-0.1,8.4-0.3,12.6c-0.1,1.8-0.4,3.6-0.8,5.3c-0.1,0.5-0.2,1-0.3,1.5c-0.1,0.5-0.4,0.9-0.6,1.2
			c-0.1,0.1-0.2,0.2-0.2,0.3l-0.3,0.5l-1.4-0.5l0.1-0.7c0-0.3,0.1-0.6,0.1-0.8c0.1-0.6,0.2-1.2,0.3-1.8c0.1-0.5,0.1-1.1,0.2-1.6
			c0.2-1.4,0.4-2.8,0.4-4.2c0-15.2,0.1-31.6,0-48c0-2.3-0.3-4.7-0.7-7c-0.1-0.5-0.1-1.1-0.2-1.6c-0.2-1.7-0.5-3.8-1.1-5.7
			c-0.5-1.8-1.1-3.5-1.7-5.2c-0.3-0.8-0.6-1.6-0.8-2.4c-0.1-0.2,0-0.4,0-0.5c0-0.1,0-0.1,0-0.2l0.1-1.7c-1.7-0.7-3-1.9-4.3-3.1
			c-0.3-0.3-0.6-0.6-0.9-0.9l-1.1-1c0,0-0.1,0-0.1,0c-2.5,0.9-3.9,3.1-4.9,5.2c-1,2.1-1.6,4.1-1.8,6.1c-0.1,1-0.2,1.9-0.3,2.9
			c-0.2,1.8-0.5,3.6-0.5,5.4c-0.1,7.5,0,16.4,0.6,25.3c0.1,1.2,0.2,2.4,0.4,3.9c0.2,1.2,0.3,2.4,0.5,3.6c0.1,0.6,0.2,1.3,0.3,1.9
			c0.1,0.5,0.1,1,0.2,1.5c0.1,0.8,0.2,1.7,0.4,2.5c0.1,0.7,0.2,1.4,0.4,2.1c0.1,0.8,0.3,1.5,0.4,2.3c0.3,2.2,0.7,4.5,1,6.8
			c0.3,2.4,0.6,4.4,0.8,6.2c0.1,0.7,0.1,1.3,0.2,2c0.1,0.9,0.2,1.9,0.3,2.8c0.3,2.2,0.7,4.6,1.3,6.9c0.3,1.3,0.8,2.6,1.3,3.9
			c0.3,0.7,0.5,1.5,0.8,2.2c0.1,0.3,0.3,0.6,0.4,0.9c0.3,0.5,0.7,1.1,0.7,1.9c0.1,0.7,0.6,1,0.9,1.1c0.5,0.2,1.1,0.5,1.7,0.9
			c0.6,0.5,1.3,0.5,2.2,0.1C96.1,129.3,97,128.3,97.6,126.8z M84.6,39.1c0-1.7,1.1-4.7,3-5.5c0.9-0.4,2-0.2,2.9,0.7l1.1,1l-1.4,0.3
			c-1.7,0.4-2.6,1.8-3.6,3.3c-0.1,0.2-0.3,0.4-0.4,0.6l-1.5,2.3L84.6,39.1z M82,56.2l1.6-0.1l1.6,22.9l-1.8,0.1l-0.1-0.7
			C82.4,72,82,65,82,56.2z M85.2,107.6l-1.8-17.9l1.7-0.2l0.1,0.7c1.1,5.7,1.5,11.5,1.7,16.4l0,0.8L85.2,107.6z M90.4,113.3l1.4-0.2
			l0.3,0.6c0.2,0.4,0.3,0.7,0.4,1.1c0.1,0.2,0.1,0.4,0.2,0.5c-0.2-0.6-0.3-1.3-0.5-1.9c-0.5-1.8-0.9-3.6-1.3-5.4
			c-0.4-2.1-0.7-4.3-1-6.4c-0.1-0.7-0.2-1.4-0.3-2.1c-0.1-0.9-0.2-1.8-0.3-2.6c-0.2-1.4-0.3-2.9-0.6-4.3c-0.2-1.1-0.4-2.2-0.6-3.3
			c-0.2-1.2-0.5-2.4-0.7-3.6c-0.2-1.5-0.4-3.1-0.6-4.6c-0.1-1-0.2-1.9-0.4-2.9c-0.1-0.9-0.3-1.9-0.4-2.8c-0.2-1-0.3-2-0.4-3
			c-0.1-0.7-0.2-1.4-0.2-2.1c-0.1-0.9-0.2-1.8-0.3-2.7c-0.6-3.7-0.5-7.5-0.5-11.1c0-1.6,0.1-3.3,0-5c0-2.1,0.1-4.4,0.5-7.2
			c0.1-0.9,0.5-1.7,0.8-2.5c0.1-0.3,0.3-0.7,0.4-1c0-0.1,0.1-0.1,0.1-0.2c0,0,0-0.1,0-0.1c-0.1-1.5,0.5-2.5,1.9-2.9
			c1.7-0.6,2.9-0.2,4.1,1.2c1.1,1.3,1.8,2.9,2.1,4.7l0.2,1.4c0.3,1.8,0.6,3.7,0.8,5.6c0.2,1.8,0.2,3.6,0.3,5.3
			c0.1,1.3,0.1,2.6,0.2,3.9c0.6,9.3,0.5,18.7,0.4,27.8c0,2-0.1,4-0.1,6l0,0.4c0,1.9,0,3.8-0.2,5.7c-0.1,1.9-0.3,3.8-0.5,5.6l1.1,5.1
			c0.5,2.2,0.1,4.3-0.2,6.3c-0.1,0.5-0.2,1.1-0.2,1.6l-0.1,0.8l-1.9-0.1l0.4-4.3c0,0.1,0,0.3-0.1,0.4l-0.2,1.2l-1.4,0.2
			c0.1,0.2,0.2,0.4,0.3,0.6c0.9,1.4,0.8,2.7,0.6,4c-0.1,0.5-0.1,1-0.2,1.5c0,0.5-0.1,1-0.2,1.5c-0.1,0.4-0.3,0.7-0.5,0.9
			c-0.1,0.1-0.1,0.1-0.1,0.2l-0.4,0.6l-1.3-0.6L90.4,113.3z M94,128.6l-1.4-0.9l4.9-6.9l-0.9,4c-0.3,1.4-1,2.6-2.1,3.5L94,128.6z"/>
		<path fill-rule="evenodd" clip-rule="evenodd" fill="#FFFFFF" d="M96.7,37c-1-1.9-2.3-3.4-3.8-4.6c-0.9-0.7-2-1.1-3-1.2
			c3,0.8,4.6,2.7,5.8,4.3L96.7,37z"/>
	</g>
	<path fill-rule="evenodd" clip-rule="evenodd" fill="#FFFFFF" d="M99.8,153.9c0.1-0.8-0.2-1.7-0.4-2.5c-0.3-1.1-0.7-2.4-1.3-3.7
		c-0.2-0.4-0.5-0.7-0.8-1.1c-0.2-0.3-0.5-0.6-0.7-0.9c-0.7-1.1-1.8-1.8-3.4-2c-1.1-0.2-2.1-0.1-3.7,0.3c-1.7,0.4-2.9,1.1-3.7,2.2
		c-0.4,0.6-0.8,1.2-1.2,1.9c-0.2,0.3-0.4,0.6-0.6,0.9c-0.1,0.1-0.1,0.2-0.2,0.2c-0.1,0.1-0.2,0.2-0.2,0.3c-0.8,1.6-0.3,3.3,0.3,5.1
		c0.3,0.7,0.7,1.4,1.1,2.1c0.1,0.2,0.3,0.5,0.4,0.7c0.6,1,1.5,1.7,2.6,1.9c0.5,0.1,1,0.2,1.5,0.4l2.3-1.9c0.2-0.2,0.4-0.3,0.6-0.5
		c0.4-0.4,0.9-0.7,1.3-1.1c0.4-0.4,0.7-0.8,1.1-1.2c0.2-0.2,0.3-0.4,0.5-0.6l0.6-0.7l1.1,1.2l-0.1,0.4c-0.7,2.1-2.2,3.4-4.3,3.7
		l-2.9,0.5c0.3,0.1,0.6,0.2,0.9,0.3c1.4,0.4,2.3,0.5,3.1,0.2c0.2-0.1,0.5-0.2,0.7-0.2c0.2-0.1,0.4-0.1,0.6-0.2
		c0.3-0.1,0.6-0.2,0.9-0.3c0.5-0.2,1-0.3,1.5-0.5l-0.4-0.6l1.6-1.3C99.4,156.3,99.7,155.3,99.8,153.9z M93.7,152.1
		c0.3,0.5,0.5,1.2,0.5,1.9l0,0.3l-0.2,0.2c-0.1,0.2-0.3,0.5-0.6,0.7c-0.2,0.2-0.4,0.3-0.6,0.4c-0.1,0.1-0.2,0.1-0.3,0.2
		c-0.4,0.3-0.7,0.5-1.1,0.5c-0.4,0-0.9-0.2-1.3-0.9c-0.4-0.7-0.9-1.6-0.9-2.7l0,0l-1.3-0.2c0.2,1,0.6,1.9,1.3,3.1l0.8,1.3l-1.6-0.1
		c-1.7-0.1-2-1.3-2.1-2.5c0,0,0-0.1-0.2-0.2l-0.2-0.2l0-0.3c-0.2-1.8-0.1-2.6,0.6-3.6l1.9-2.7l-0.5,3.3c-0.1,0.4-0.1,0.9,0,1.3
		L88,151c0.1-0.6,0.2-1.2,0.3-1.8c0.1-0.4,0.5-0.8,0.9-0.9c0.3-0.1,0.7-0.2,1.2-0.2c1.3,0,3,0.6,3.8,1.7c0.2,0.3,0.3,0.6,0.4,0.9
		c0,0.1,0.1,0.2,0.1,0.3l0.3,0.8L93.7,152.1z"/>
</g>
</svg>
