<?xml version="1.0" encoding="utf-8"?>
<!-- Generator: Adobe Illustrator 18.0.0, SVG Export Plug-In . SVG Version: 6.00 Build 0)  -->
<!DOCTYPE svg PUBLIC "-//W3C//DTD SVG 1.1//EN" "http://www.w3.org/Graphics/SVG/1.1/DTD/svg11.dtd">
<svg version="1.1" id="Слой_1" xmlns="http://www.w3.org/2000/svg" xmlns:xlink="http://www.w3.org/1999/xlink" x="0px" y="0px"
	 viewBox="0 0 241.1 353.1" enable-background="new 0 0 241.1 353.1" xml:space="preserve">
<g>
	<defs>
		<path id="SVGID_1_" d="M262.2,243.7L245,144.8L213.7,33.2L176.1-19l-40.9,5.8c0,0-78.7,30.9-77.7,30.5c1-0.4-37.5,31.8-37.5,31.8
			l-26.6,68.4l-19.8,62.3l12.5,72.4l44.8,93.8l101.9,39.5c0,0,92.3-5.5,95.3-3.3c3.1,2.2,47.2-29.9,47.5-38
			C275.8,336.1,262.2,243.7,262.2,243.7z"/>
	</defs>
	<clipPath id="SVGID_2_">
		<use xlink:href="#SVGID_1_"  overflow="visible"/>
	</clipPath>
	<g clip-path="url(#SVGID_2_)">
		<path fill-rule="evenodd" clip-rule="evenodd" d="M104.6,113.8c-0.2,0.4-0.4,0.9-0.7,1.3c-0.7,0.9-1.5,1.6-2.2,2.5
			c-0.5,0.7-1.2,0.9-1.9,0.8c-0.7-0.1-1.2-0.6-1.2-1.6c-2.4,0.1-4.7,0.1-7.1,0.3c-1.5,0.1-2.8,0.8-4,1.7c-1.4,1-2.3,0.8-2.8-0.8
			c-0.2-0.6-0.5-0.9-0.9-1.3c-4.6-4-8.1-8.8-10.9-14.1c-2.2-4.2-3.9-8.6-5-13.2c-1.8-7.6-2.3-15.4-1.6-23.2
			c0.9-8.8,3.1-17.3,6.5-25.5C79.2,25.6,90.1,15.1,105,8.4c10-4.5,20.5-7.2,31.5-8.1c7.3-0.6,14.5-0.3,21.7,1.3
			c4.6,1.1,8.9,2.8,13,5.2c1.1,0.7,2.3,1.2,3.5,1.8c5.9,2.7,10.9,6.4,15.1,11.4c4.7,5.6,7.9,11.8,9.8,18.8
			c2.3,8.5,3.5,17.1,3.9,25.9c0.3,7.1,0.6,14.2,1.3,21.3c0.5,5.2,1.8,10.3,4.2,15.1c0.8,1.6,0.7,2.1-0.8,3.1
			c-0.8,0.5-1.7,0.9-2.6,1.2c-2.9,0.7-5.3,2.2-7.7,3.9c-0.1,0.1-0.3,0.2-0.4,0.3c-4.5,3.9-9.7,6.8-15,9.4c-3.7,1.9-7.3,4-10.6,6.6
			c-0.8,0.6-1.7,0.9-2.6,0.3c-0.2-0.1-0.4-0.2-0.6-0.2c-2.9,0.4-5.9,0.3-8.9,1.1c-1.5,0.4-3,0.5-4.5,0.7c-1,0.1-1.7-0.2-2.2-1.2
			c-0.4-0.7-0.8-1.5-1.3-2.1c-0.3-0.4-0.8-0.6-1.3-0.7c-2.3-0.8-4.4-2-6.3-3.6c-3.6-2.9-5.3-6.8-5.5-11.4c-0.2-3.9,0.5-7.7,0.8-11.6
			c0.2-2.9,0.2-5.8,0.3-8.8c0.1-1.3-0.9-2-1.4-3c-1.6-3-4.2-4.9-7.4-5.9c-2.4-0.7-4.7-0.6-6.8,0.8c-1.8,1.2-2.8,2.9-2.8,5.1
			c0,0.7,0,1.5,0.1,2.2c0.4,0.2,0.9,0.3,1.2,0.5c0.9,0.6,1.1,1.4,0.5,2.5c-0.4,0.7-0.3,1.3,0.1,1.9c1.1,1.3,2.1,2.6,3.3,3.8
			c0.6,0.6,1.2,1.1,0.9,2c-0.2,0.9-1,1.6-1.8,1.5c-1.5-0.1-2.3,0.7-3.3,1.5c-1.8,1.5-3.7,2.7-5.6,4.1c-3.5,2.7-7.1,5.4-10.6,8.1
			C105.8,113.5,105.1,113.7,104.6,113.8c0-1.2,0-1.2-1.2-1.2c-0.1,0.4-0.2,0.9-0.4,1.4c-0.6-0.1-1.2-0.5-1.3,0.5
			c0.6,0.1,1.1,0.1,1.3-0.6C103.6,114.4,104.1,114.3,104.6,113.8z M188.3,92.2c-0.9,0-1.4-0.6-1.7-1.3c-0.5-1.2-1-2.4-1.6-3.5
			c-2.2-4-2.8-8.3-2.9-12.7c-0.1-3.6,0.3-7.3,0.7-11c0.6-6.2,2-12.4,2.1-18.7c0.1-3.1,0.3-6.2-0.9-9.2c-0.1-0.2,0-0.6,0-0.8
			c0-0.6,0-1.1-0.1-1.7c-1.3-6.7-4-12.7-8.8-17.6c-2-2.1-4.1-4.2-7.2-4.9c-0.5-0.1-0.9-0.6-1.3-0.9c-0.5-0.4-0.9-0.9-1.4-1.1
			c-3.3-1.6-6.8-2.6-10.4-3.4c-7.1-1.6-14.4-1.6-21.5-0.7c-10.4,1.3-20.3,4.1-29.8,8.6C91.2,19,82.5,28.1,76.8,40.1
			c-5.3,11.2-7.8,23.1-7.3,35.5c0.4,9.9,2.7,19.3,8,27.9c2.5,4.1,5.5,7.7,9.1,10.9c8.1-6.6,16-13.3,23.1-21c-1.6-1.3-3-2.5-3.8-4.2
			c-1.1-2.4-1.5-4.9-1-7.4c0.5-2.4,1.3-4.6,2-6.9c0.1-0.4,0.6-0.7,0.9-1c0.4-0.3,0.8-0.6,1.2-1c3.8-3.9,8.5-5.3,13.9-4.9
			c5.1,0.4,9.6,2.4,13.6,5.4c3.4,2.6,5.8,6,6.8,10.2c0.7,3,0.8,6,0.5,9.1c-0.3,4-0.8,8-1.1,12c-0.2,2.7-0.2,5.4,1,8
			c1.6,3.5,4.5,5.4,7.9,6.7c1,0.4,2.1,0.8,3.3,1.3c2.5-1.7,5-3.9,7.4-6c3-2.6,6.1-5.2,9.1-7.7c4.6-3.7,9.9-6.2,14.9-9.3
			c0.4-0.2,1-0.1,1.4-0.3c0.9-0.4,2-0.2,2.7-1.3c-1.4,0.1-0.7-0.7-0.8-1.2c0-0.5-1.5-0.1-0.6-1.1c-0.5-0.3-0.9-0.7-1.5-1.1
			C187.9,92.4,188.1,92.3,188.3,92.2z M169.1,122c1.1-0.6,2.5-1.1,3.5-2c1.6-1.3,3.4-2.3,5.2-3.2c5.5-2.8,10.9-5.6,15.7-9.7
			c2.4-2.1,5.1-3.9,8-5.3c-1.4-0.3-2.8-0.5-4.2-0.7c-1.9-0.3-3.7-0.2-5.5,0.4c-1.3,0.4-2.4,0.5-3.4-0.6c-2,1.1-3.8,2.4-5.8,3.3
			c-2,1-3.8,2.2-5.6,3.5c-1.6,1.1-3.1,2.3-4.6,3.5c-3.6,3-7.2,6.1-10.9,9.1c-0.7,0.6-1.4,1.2-2.4,2c0.9-0.1,1.4-0.2,2-0.3
			c1.6-0.2,3.2-0.5,4.9-0.6C167,121.5,167.9,121.8,169.1,122z M93.8,113.3c1.8,0,3.2,0.1,4.6,0c0.8,0,1.8,0,2.5-0.4
			c1.1-0.7,1.9-1.8,3.1-2.4c0.9-0.4,1.6-1.4,2.4-2.1c1.6-1.3,3.3-2.5,5-3.7c2.6-1.9,5.2-3.8,7.7-5.7c0.3-0.2,0.5-0.5,1-1
			c-1,0-1.6,0-2.3-0.1c-2.1-0.1-4.1-0.2-6.2-0.3c-0.7-0.1-1,0.2-1.5,0.6c-4.9,4.9-9.9,9.6-15.3,14.1
			C94.6,112.5,94.3,112.8,93.8,113.3z M108.4,83.4c-0.3,1.2,0,2.5,0.6,3.6c0.9,0.1,1.7,0.1,2.6,0.2c1.6,0.2,3.1,0.4,4.7,0.5
			c0.4,0,0.9,0,1.3,0c0-1.4,0-2.7,0-3.8C114.5,83.8,111.5,83.6,108.4,83.4z M186.7,67.6c0.1,0,0.3,0.1,0.3,0.1
			c1.4-1,2.5-0.6,3.9,0.2c1.5,0.9,3.2,1.6,4.9,2.3c0.9,0.4,1.9,0.7,3,0.5c-0.1-0.8-0.1-1.6-0.2-2.3c-3.8-1.7-7.6-2.9-11.6-3.7
			C186.9,65.8,186.8,66.7,186.7,67.6z M187.6,60.1c3.7,1.1,7.2,2.1,10.8,3.2c0-0.8-0.1-1.6-0.1-2.3c-3.4-1.5-6.7-2.6-10.4-3.4
			C187.8,58.5,187.7,59.2,187.6,60.1z M193,92.5c0.7,0.9,1.2,1.5,1.5,2.2c0.3,0.7,0.3,1.4,0.4,2.1c2.3,0.2,4.7,0.3,7.1,0.5
			c0-1-0.4-1.7-1.3-1.9c-1-0.3-1.7-0.8-1.6-2c-0.6,0.3-1.1,0.5-1.7,0.8c-0.2-0.6-0.4-1.1-0.6-1.8c-0.4,0.5-0.6,0.8-0.7,1.1
			C195.2,93.1,194.3,92.9,193,92.5z M199.3,81.7c-4.5-0.4-8.4-2-12.4-4.2c0.2,1.1,0.3,1.8,0.4,2.3c4.1,1.5,8,2.9,12.1,4.4
			C199.4,83.3,199.4,82.6,199.3,81.7z M188.9,84.7c0.2,0.9,0.3,1.6,0.4,2.2c0.9,0.1,1.7,0.3,2.6,0.4c-1,1.4,0.7,1.4,0.9,2.3
			c1.7-1.3,3.4-0.8,5.1-0.1c0.7,0.3,1.5,0.7,2.3,0.8c0.1-1-0.1-1.5-1-1.8c-1.6-0.5-3.2-1.1-4.9-1.6c0.4-0.3,0.6-0.5,1.2-0.9
			c-1.4,0.1-2.4,0.3-3.3,0.1C191.2,85.8,190.2,85.3,188.9,84.7z M198.9,75.4c-4.6-0.3-8.4-2.4-12.3-4.7c0,0.7,0,1.2,0,1.5
			c4.1,2,7.6,4.9,12.3,5C198.9,76.6,198.9,76.1,198.9,75.4z M189.3,38.4c0,0.8,0.1,1.6,0.1,2.4c2,0.9,4,1.7,6.3,2.3
			c-0.3-1.1-0.5-1.9-0.8-2.7c-0.1-0.3-0.4-0.7-0.7-0.8C192.6,39.2,191.1,38.9,189.3,38.4z M187.9,29.5c0.2,1.2,0.4,2.3,0.7,3.4
			c0.1,0.3,0.4,0.7,0.7,0.8c1,0.4,2.1,0.6,3.5,1.1c-0.8-2.1-1.6-3.7-2.5-5.3C189.5,29.5,188.8,29.5,187.9,29.5z M118.4,79.7
			c-2.7-1.2-5.4-2-8.4-2.1c-0.2,0.6-0.5,1.2-0.7,1.8C112.5,80.1,115.4,80.1,118.4,79.7z M119.8,94c-0.4-0.9-0.8-1.6-1.1-2.3
			c-1.7-0.1-3.4-0.2-5-0.3c0.2,1,0.4,1.7,0.6,2.7C115.9,94.1,117.8,94.1,119.8,94z M188.6,53c3.2,1,6.2,1.9,9.2,2.8
			c0.5-0.9-0.1-1-0.6-1.2c-2.3-0.8-4.6-1.7-7-2.5c-0.5-0.2-1-0.1-1.5-0.2C188.7,52.4,188.6,52.7,188.6,53z M196.8,47.9
			c-2.6-0.7-5-1.3-7.5-1.9c0,0.5,0,0.9,0,1.1c2.7,0.7,5.1,1.4,7.7,2.1C196.9,48.7,196.9,48.2,196.8,47.9z M191.9,92.9
			c-0.9,0.6-2,0.6-1.4,1.6c0.5,1,1.2,0.1,2.1-0.1C192.3,93.9,192.1,93.5,191.9,92.9z M193.1,85.4c0.9-0.4,1.4-0.6,2-0.9
			c-0.5-0.3-1-0.5-1.7-0.9C193.3,84.2,193.2,84.6,193.1,85.4z M198.6,51.2c0.8,0.2,1.3,0.3,2.1,0.5
			C199.7,50.3,199.7,50.3,198.6,51.2z M191.2,95.7c1.2,0.9,1.2,0.9,2,0.1C192.4,95.7,191.8,95.7,191.2,95.7z M190.1,92.7
			c1.4-1,1.4-1,1-2C190.7,91.4,190.4,92,190.1,92.7z M200.1,47.2c-1.3-0.3-1.3-0.3-1.5,0.7C199.2,47.7,199.7,47.5,200.1,47.2z
			 M190.7,90.6c-0.3-0.5-0.5-0.9-0.7-1.3c-0.3,0.3-0.6,0.5-0.9,0.9C189.7,90.3,190.1,90.4,190.7,90.6z M109.4,107.9
			c-0.1,0.8-0.2,1.3-0.3,1.8C109.9,109.3,109.9,108.8,109.4,107.9z M122.4,72.8c-0.7-0.9-0.7-0.9-1.7-0.7
			C121.1,72.3,121.6,72.5,122.4,72.8z M185.6,22.5c-0.1,0-0.1,0.1-0.2,0.1c0.1,0.2,0.1,0.4,0.2,0.5c0.1,0.1,0.4,0.2,0.5,0.3
			c0-0.1,0.1-0.1,0.1-0.2C186,23,185.8,22.8,185.6,22.5z M198.1,49.1c0,0.1-0.1,0.1-0.1,0.2c0.2,0.2,0.3,0.4,0.5,0.6
			c0.1-0.1,0.2-0.2,0.3-0.3C198.5,49.4,198.3,49.2,198.1,49.1z M104.7,112.2c-0.3-0.5-0.4-0.7-0.5-0.7c-0.2,0-0.4,0.1-0.6,0.2
			c0.1,0.2,0.1,0.4,0.2,0.5C104.1,112.3,104.3,112.2,104.7,112.2z"/>
		<path fill-rule="evenodd" clip-rule="evenodd" d="M146.1,204.7c0.4-2.3,0.7-4.4,1.1-6.4c0.4-1.7,1-3.5,1.7-5.1
			c0.9-2.1,2.3-2.4,4-0.9c2.7,2.2,4.8,4.9,6.9,7.7c1.5,1.9,3,3.8,4.6,5.6c2.2,2.4,4.9,4.1,8,5.2c0.9,0.3,1.5,1.2,2.6,1.1
			c0.9,0,1.8,0.6,2.8,0.9c0.9,0.3,1.8,0.5,2.8,0.8c1,0.3,1.9,0.6,2.9,1c2.3,1,4.6,1.9,6.8,3.1c2,1.1,2,2.9,0,4.1
			c-3.5,2.1-7.1,4.1-10.7,6.2c-0.6,0.4-1.5,0.3-2,1.1c0,0.1-0.6-0.1-0.7-0.2c-0.3,0.5-0.6,0.9-0.9,1.2c-1.8,1.3-3.7,2.4-5.4,3.8
			c-3.1,2.6-6.2,5.2-9.3,7.9c-0.7,0.6-1.1,1.5-2.2,1.7c-0.1,0-0.1,0.3-0.2,0.4c-3.7,4.4-7.9,8.2-12.6,11.4c-1.4,1-2.6,0.6-3.2-1.1
			c-0.3-0.8-0.5-1.7-0.6-2.6c-0.5-3.3-0.3-6.6,0.5-9.9c0.2-0.7,0.3-1.3,0.4-2.2c-1.7-0.4-3.3-0.9-4.9-1.2c-2.2-0.5-4.3-1.4-6.3-2.3
			c-1.9-0.8-3.7-1.9-5.4-3.1c-3.6-2.5-6-6-8.2-9.8c-1-1.7-2-3.3-3-4.9c-2.1-3.2-5.1-5.1-9-5.4c-6.1-0.6-11.8,0.8-17,4.1
			c-6.3,4-7.8,12.1-3.5,18.3c1.2-0.8,2.3-1.7,3.6-2.5c4.6-2.9,9.7-4,15-2.8c2.7,0.6,5.1,2,7.3,3.7c2.6,2.1,4.7,4.7,6.1,7.8
			c0.9,2,1.6,4.1,1.7,6.3c0.2,3.1,0.3,6.2-0.3,9.3c-1.7,9.4-8.3,15.3-16.9,17c-7.7,1.6-14.9,0.1-21.9-3.2c-4.3-2.1-8.2-5-11.6-8.3
			c-3.3-3.3-6.1-7-8.4-11c-3.6-6-6-12.5-6.9-19.5c-1.3-9.4-0.1-18.5,4.1-27c2.1-4.4,4.9-8.3,8.3-11.9c5.4-5.8,11.6-10.5,18.8-14
			c5.2-2.5,10.7-4,16.4-4.4c1.1-0.1,2.2-0.3,3.3-0.2c1.2,0.1,2.4,0,3.5,0.1c1.2,0.1,2.3,0.2,3.5,0.5c1.2,0.2,2.3,0.5,3.4,0.8
			c1.1,0.3,2.3,0.6,3.4,1c4.9,1.9,9.3,4.7,13.2,8.3c5.4,5.2,9.6,11.3,13.3,17.7C145.2,203.4,145.6,203.9,146.1,204.7z M132.6,191.6
			c-1.9-1.7-3.7-3.4-5.5-5c-7.1-6.2-15.4-8.6-24.7-8c-6.1,0.4-11.9,2.1-17.3,4.8c-10,5-17.8,12.5-23.2,22.3
			c-3.7,6.8-5.2,14.1-4.5,21.9c0.8,9.1,3.8,17.5,9.1,25c2.6,3.7,5.7,7.1,9.2,9.9c5,4,10.8,6.5,17.2,7.6c4.2,0.7,8.3,0.6,12.3-0.9
			c2.8-1.1,5.2-2.7,7-5.1c0.9-1.3,1.6-2.7,2.3-4.1c1.1-2.4,1.8-4.9,1.8-7.5c0.1-3.6-0.6-7.2-2.3-10.5c-5.4-10.4-17.7-10.6-24.9-3.5
			c0.7,0.7,1.4,1.3,2,2c0.6,0.9,0.4,2-0.3,2.8c-0.8,0.8-1.5,0.8-2.6,0.2c-0.4-0.2-0.7-0.5-1.1-0.8c-3.1-2.8-5.4-6.2-6.7-10.2
			c-2-6.4-0.8-12.1,4.2-16.8c2.2-2,4.7-3.5,7.3-4.4c0.6,0.4,1,0.7,1.6,1.1c0.6-0.7,1.1-1.3,1.7-2c1.2,0.1,2.4-1.3,3.9-0.8
			c3.8-1.3,7.6-1,11.4,0c2.2,0.6,4.2,1.8,5.8,3.4c1.6,1.6,2.9,3.4,4.2,5.3c1.7,2.4,3.3,5,4.9,7.5c0.9,1.5,2.3,2.6,3.6,3.6
			c3.4,2.6,7.3,4.2,11.5,5.2c2,0.5,4.1,0.8,6.1,1.3c1.3,0.3,1.8,1.3,1.6,2.6c-0.1,0.5-0.3,1.1-0.5,1.6c-0.9,2.8-1.3,5.7-1.2,8.7
			c0,0.4,0.1,0.7,0.2,1.3c2.1-1.9,4-3.5,5.8-5.3c3.4-3.2,6.6-6.5,10-9.6c5.6-5,12-8.8,18.4-12.6c1.5-0.9,2.9-1.7,4.7-2.8
			c-0.8-0.3-1.4-0.6-1.9-0.7c-3-1-6-2-9-2.9c-5.3-1.5-9.8-4.3-13.3-8.5c-2.1-2.5-4.1-5-6.2-7.5c-1-1.1-2-2.2-3.3-3.6
			c-0.4,1.7-0.8,3.1-1,4.5c-0.5,3.1-0.8,6.2-1.2,9.2c-0.1,0.7-0.3,1.5-0.6,2.1c-0.7,1.5-2.4,1.7-3.4,0.3c-0.4-0.6-0.7-1.2-1-1.8
			c-2.9-6-6.4-11.7-10.4-17c-0.4-0.6-0.8-1.2-1.2-1.8c0.4-0.3,0.7-0.5,1-0.7c-0.1-0.2-0.2-0.3-0.3-0.5
			C133.2,191.1,132.8,191.4,132.6,191.6z M174.9,212.4c-0.9,0.3-0.9,0.3-0.5,1C174.5,213.1,174.7,212.8,174.9,212.4z"/>
		<path fill-rule="evenodd" clip-rule="evenodd" d="M186.1,169.7c-0.8-0.6-1.5-1-2-1.5c-3.7-4.8-8.1-8.8-12.5-12.9
			c-3.2-2.9-6.3-6-9.4-9c-1.5-1.5-1.3-3.7,0.3-5.2c6.1-5.6,12.5-10.9,19.1-15.9c4.4-3.3,8.8-6.5,13.3-9.7c1.9-1.3,2.6-1.3,4,0.5
			c0.4,0.5,0.9,0.5,1.5,0.6c4.4,0.4,8.8,0.8,13.1,1.3c1.7,0.2,3.4,0.7,5.1,1c1.6,0.3,2.9,0.7,3.8,2.3c1.3,2.2,3.1,4.1,4.6,6.3
			c2.5,3.6,4.9,7.2,7.4,10.7c1.8,2.5,3.7,5,5.7,7.3c1.1,1.3,1.2,2.5,0.6,4.1c-1.7,4.3-4.7,7.6-8.6,10c-3.8,2.3-7.7,4.3-11.6,6.3
			c-2.9,1.5-5.8,3.1-8.3,5.2c-0.7,0.6-1.3,1.4-1.8,2.1c-0.9,1.3-2.5,1.9-4.1,1.5c-0.6-0.2-1.2-0.1-1.8-0.1c-3.4,0-6.8,0-10.1,0
			c-2.5,0-4.7-1-7-1.7C186.1,172.4,185.7,171.2,186.1,169.7z M165.5,143.9c3.3,3.1,6.5,6.1,9.7,9c4.2,3.8,8.4,7.7,12,12.1
			c0.7,0.8,1.4,1.6,1.2,3c0.6-0.3,1-0.5,1.4-0.8c4.3-2.4,8.5-4.9,12.8-7.2c3.8-2,7.5-4.2,11.5-5.7c1.4-0.5,2.7-1.1,4-1.8
			c0.9-0.5,1.7-1.2,2.7-1.8c-8.2-10.5-17.3-19.9-25.5-30.3C185,127.7,175.1,135.3,165.5,143.9z M235.4,149.5c-3,0.4-5.7,0.8-8.3,1.2
			c-0.4,0.1-0.8,0.5-1.1,0.9c-0.9,0.9-1.6,2.1-2.6,2.8c-1.8,1.2-3.8,2.2-5.8,3.1c-2.8,1.3-5.7,2.4-8.4,3.9c-5,2.7-10,5.5-14.9,8.3
			c-0.2,0.1-0.4,0.3-0.8,0.7c0.8,0.1,1.4,0.2,1.9,0.1c3.3-0.1,6.6-0.2,10-0.3c0.9,0,1.6-0.3,2.3-0.9c2.2-1.9,4.6-3.5,7.2-4.9
			c2.9-1.5,5.8-2.9,8.8-4.4c2.7-1.4,5.3-2.9,7.6-5C232.9,153.6,234.3,151.9,235.4,149.5z M233.6,145.2c-0.4-0.4-0.5-0.7-0.6-0.7
			c-4-0.4-7.9-0.8-12.1-1.2c0.8,1,1.4,1.9,2,2.7C226.5,146.8,229.9,145.5,233.6,145.2z M209.4,130c0.8,1,1.1,1.9,2.3,2
			c3.3,0.5,6.7,1,10,1.6c1.3,0.2,2.6,0.5,4,0.7c-0.3-1.1-0.7-1.7-1.8-1.5c-0.3,0.1-0.7,0-1-0.1c-3-0.6-6-1.1-9-1.7
			C212.5,130.6,211.1,130.3,209.4,130z M227.4,139.6c0-0.1,0-0.3,0-0.4c-3.9-0.8-7.8-1.8-12.1-2.2c1.1,1.3,2,2.3,3,3.4
			c0.9-1.7,2.2-1.9,3.8-1.5C223.9,139.2,225.7,139.4,227.4,139.6z M213.1,122.5c-1.1-0.5-2.2-1-3.4-0.8c0,0.1,0,0.2,0,0.4
			C210.8,122.2,211.9,122.3,213.1,122.5z"/>
		<path fill-rule="evenodd" clip-rule="evenodd" d="M160,342.3c-1.1,0.3-2,0.7-3,0.8c-1.6,0.1-3.2,0.1-4.7-0.1
			c-4.8-0.7-9-2.9-11.9-6.8c-5.5-7.5-6.9-15.7-2.8-24.2c3.7-7.6,10.2-11.4,19.3-10.7c1.9,0.1,3.9,0.6,6,0.9
			c-0.2-0.7-0.4-1.4-0.6-2.1c-0.5-1.8-0.4-3.6,0.6-5.2c1.3-2.3,3.6-3.3,6.2-2.7c1.1,0.3,2.2,0.6,3.2,1c0.5,0.2,1.1,0.3,1.6,0.5
			c0.2-0.3,0.4-0.6,0.5-0.8c0.3-2,2.5-2.3,3.9-1.4c1.4,0.9,2.7,1.8,4.1,2.7c0.6,0.4,1.3,0.7,2,1.1c-0.2,0.5,0.7,0.8,0.8,1.5
			c0.1,0.8,0.6,1.5,1,2.3c-1,0.7-1.8,1.8-3.3,1c-0.2-0.1-0.8,0.3-1,0.6c-0.3,0.4-0.3,1-0.5,1.4c-0.3,0.9-0.7,1.9-0.9,2.8
			c-0.2,1-0.9,1.2-1.6,1.1c-0.9-0.1-1.8-0.5-2.7-0.9c-1.3-0.6-2.4-1.7-4.2-2.1c0.5,1,0.8,1.7,1.2,2.4c1.3,2.2,2.7,4.3,3.9,6.5
			c0.5,0.9,0.8,1.9,1,2.8c0.3,1.6-0.5,2.6-2.1,2.7c-2.1,0.2-4-0.6-5.8-1.6c-0.9-0.5-1.7-1-2.6-1.5c-4.2-2.4-8.6-2.7-13.1-1.3
			c-5,1.6-7.5,8.2-5.1,12.9c1,1.9,2.5,3.1,4.8,3.3c1,0.1,2,0.1,2.9-0.3c0.5-0.2,1.1-0.3,1.6-0.5c0.3,0.4,0.7,0.7,1,1.1
			c0.1-0.2,0.3-0.3,0.2-0.3c-0.5-0.9-0.2-1.4,0.6-1.9c1.2-0.8,2.4-1.5,3.2-2.9c0.6-1.1,3.1-1.2,4.3-0.3c1,0.7,1.5,1.7,1.8,2.8
			c1,4.2,0,10.7-5.7,13.9c-0.6,0.4-1.3,0.7-2,1.1c-0.3-0.4-0.5-0.7-0.8-1.1c0.5-0.2,0.8-0.3,1.2-0.5c0-0.1,0-0.2,0-0.3
			c-0.4-0.1-0.8-0.2-1.4-0.3c-0.1-0.8,0.5-1.2,1.2-1.7c3.6-2.4,5-6.3,3.8-10.6c-0.3,0.2-0.7,0.4-0.9,0.7c-1.9,1.7-4,2.9-6.4,3.7
			c-0.7,0.2-1.4,0.6-2.3,0.2c-0.2-0.1-0.5,0.1-0.8,0.2c-3.9,0.8-7.2-0.5-9.2-3.8c-2-3.4-2.3-7-0.9-10.7c2.3-6.1,7.2-8.1,13.2-8.5
			c4.2-0.2,7.9,1.1,11.4,3.2c1.2,0.7,2.4,1.6,4.1,1.9c-0.3-1.1-0.8-2-1.4-2.8c-1-1.5-2.1-2.9-3.1-4.5c-0.6-1-1.1-2.2-1.4-3.4
			c-0.4-2,0.8-3.4,2.8-3.6c1.6-0.1,3,0.2,4.4,1c0.6,0.4,1.2,0.7,1.9,1.2c0-2.5,1.4-3.9,3.3-5.2c-0.8-0.7-2-0.8-2.2-2
			c0,0-0.5,0-0.7,0c-0.4,0.6-0.5,1.4-1,1.7c-0.6,0.4-1.4,0.5-2.1,0.4c-1.2-0.2-2.4-0.5-3.6-0.8c-0.8-0.2-1.6-0.6-2.4-0.8
			c-2-0.4-3.5,0.8-3.5,2.8c0,1,0.3,2,0.6,2.9c0.4,1.1,0.9,2.1,1.3,3.1c0.3,0.8,0.3,1.6-0.4,2.2c-0.6,0.6-1.3,0.5-2.1,0.2
			c-2.7-1.1-5.4-1.9-8.3-2.2c-7.9-0.8-14.9,4.1-17,11.7c-1.5,5.4-1.1,10.7,1.8,15.5c3.1,5.3,7.7,8.4,14.1,8.4c0.8,0,1.6,0.3,2.4-0.2
			c0.3-0.2,1.1,0.1,1.5,0.4C160.2,340.8,160.4,341.6,160,342.3z M157.3,329.4c0.4,0.8,0.8,0.5,1.2,0.3c0.1,0,0.1-0.2,0.1-0.4
			c-0.2,0-0.4,0-0.6,0C157.8,329.3,157.6,329.3,157.3,329.4z"/>
		<path fill-rule="evenodd" clip-rule="evenodd" d="M46.2,119.7c-0.5,0.8-1,1.5-1.5,2.3c0.8,0.3,0.8,0.3,1.8-1.5
			c0.2,0.4,0.5,0.6,0.6,0.9c0.8,1.8,1.7,3.7,2.5,5.5c0.1,0.2,0,0.6-0.1,0.9c0.5,0.2,1,0.4,1.6,0.6c-0.3,0.5-0.5,0.9-0.8,1.3
			c0.6,0,1.1,0.1,1.7,0.1c0.5,1-0.3,1.6-0.9,2.1c-0.6,0.5-1.3,0.3-1.9-0.2c-1.3-0.9-2.4-1.9-3-3.4c-0.6-1.4-1.1-2.8-1.8-4.1
			c-0.6-1.2-1.1-2.6-2.2-3.6c-2.1-1.8-4.5-2.3-7.1-1.9c-2.8,0.3-5.2,1.4-7.2,3.6c-2.9,3.4-2.8,7.5,0.5,10.5c1.4,1.3,2.9,2.3,4.8,2.8
			c2.4,0.7,4-0.4,4.5-2.8c0.3-1.5-0.3-2.3-1.9-2.8c-0.8-0.2-1.2-0.7-1.2-1.4c0-0.6,0.2-1,0.9-1.4c1-0.6,1.9-0.7,2.9-0.3
			c1.2,0.6,2.2,1.3,2.7,2.6c1.7,4.3-1.7,11-8,9.9c-4.7-0.8-8.3-3.5-10.5-7.8c-1.4-2.7-1.1-5.5,0-8.2c3.5-8.3,13.4-10.6,20.1-7.2
			C44.2,117.3,44.6,117.7,46.2,119.7z M37.9,128.3c-0.4,0.4-0.8,0.9-0.2,1.4c0.2,0.2,0.7,0.2,1,0.1c0.1,0,0.2-0.4,0.3-0.6
			C38.5,128.9,38.2,128.6,37.9,128.3z M48.3,128.6c-0.1,0.1-0.1,0.2-0.2,0.3c0.2,0.2,0.4,0.3,0.6,0.5c0.1-0.1,0.2-0.2,0.1-0.3
			C48.7,128.9,48.5,128.7,48.3,128.6z"/>
		<path fill-rule="evenodd" clip-rule="evenodd" d="M218.6,340.6c-0.3,1.3-0.7,2.5-0.8,3.7c0,0.3,0.4,0.9,0.8,1.1
			c0.5,0.3,1.1,0.3,1.9,0.5c-1.3,2.9-3.2,5.1-6.2,6.3c-7.2,2.8-15.9-0.8-19.2-7.8c-1.3-2.8-2.1-5.7-1.5-8.8c0.4-2.3,1.4-4.4,3.2-6
			c1.1-1,2.3-2,3.5-2.9c1.6-1.3,3-2.7,3.9-4.6c0.8-1.7,2.4-1.9,3.7-0.6c0.5,0.5,0.5,1,0.3,1.6c-1,3-3,5.2-5.6,7
			c-0.9,0.6-1.8,1.4-2.6,2.2c-1.8,1.6-2.5,3.7-2.3,6.1c0.3,4.4,4.1,9,8.3,10.2c5,1.5,9.1-1.1,10.9-5.3
			C217.4,342.3,217.6,341.3,218.6,340.6z"/>
		<path fill-rule="evenodd" clip-rule="evenodd" d="M1.4,247.4c-0.5-1-0.5-1-1.4-0.9c-0.1-0.9,0.5-1,1.1-1.4c0.6-0.3,1-0.8,1.5-1.3
			c0.4,0.5,0.7,1,1.2,1.7c0-1.1,0-1.8,0-2.7c0.6-0.2,1.1-0.3,1.7-0.4c6.1-1,12.2-2,18.4-2.9c5-0.7,10-0.7,15-0.4c0.2,0,0.3,0,0.5,0
			c1.5,0.2,2.3,1,2.1,2.3c-0.1,1.3-1,2.1-2.5,1.9c-10.1-0.8-19.9,0.8-29.8,2.6C6.7,246.5,4.1,246.9,1.4,247.4z M1.9,246
			c0.1,0.1,0.2,0.3,0.3,0.4c0.3-0.2,0.6-0.4,0.8-0.6c-0.1-0.1-0.1-0.2-0.2-0.3C2.5,245.6,2.2,245.8,1.9,246z"/>
		<path fill-rule="evenodd" clip-rule="evenodd" d="M26,189.3c-4.3-1.9-8.4-4.1-12.5-6.4c-0.3-0.2-0.7-0.4-1-0.7
			c-0.7-0.6-0.8-1.3-0.4-2.1c0.4-0.9,0.9-1,2-1c0.9-0.1,1.4,0.3,2.1,0.6c3.8,1.9,7.5,3.9,11.4,5.6c5.3,2.3,10.9,3.6,16.6,4.4
			c0.3,0,0.6,0,0.8,0.1c1.5,0.3,1.9,0.8,1.7,2.2c-0.1,1.4-0.8,2.1-2.2,1.9c-2.7-0.4-5.5-0.7-8.2-1.4C32.8,191.5,29.4,190.4,26,189.3
			z"/>
		<path fill-rule="evenodd" clip-rule="evenodd" d="M58.4,263.3c1.9,0.7,2.2,2.4,1,3.5c-0.8,0.7-1.7,1.3-2.6,1.8
			c-7.1,4.3-14.3,8.3-21.7,12c-0.4,0.2-0.7,0.4-1.1,0.5c-1.1,0.4-2.2,0.2-2.7-0.7c-0.6-1-0.3-2.3,0.7-2.9c1.8-1,3.6-2,5.4-2.8
			c6.4-3.1,12.6-6.6,18.5-10.5c0.3-0.2,0.6-0.5,1-0.6C57.5,263.3,58.1,263.3,58.4,263.3z"/>
		<path fill-rule="evenodd" clip-rule="evenodd" d="M205.3,316.5c-0.2,0.3-0.4,0.7-0.7,1c-0.9,0.9-2.1,1-3,0.1
			c-1.8-1.7-3-3.7-3.3-6.2c-0.3-2.5,0.7-4.5,2.7-6c0.5-0.4,1-0.9,1.8-0.5c0.3,0.1,0.7-0.2,1.1-0.3c0.3-0.1,0.6-0.2,1-0.3
			c-1.3,2.5-2.1,5-2.4,7.9c1.5-0.7,2.7-0.6,3.9,0c0.3,0.2,1.1-0.1,1.5-0.4c0.5-0.3,0.9-0.8,1.4-1.4c-0.4-1-0.8-2-1.1-2.9
			c-1.1-0.3-1.8-0.5-2.8-0.8c1.7-1,0-2,0.3-3.2c2.2-0.3,4.2-0.1,5.8,1.6c1.5,1.6,2.2,3.6,1.4,5.9c-0.3,0.9-0.6,1.8-1.1,2.6
			C210.2,316,207.9,316.6,205.3,316.5z M209.2,313.5c-0.4,0.3-0.8,0.4-1,0.7c-0.1,0.2,0.1,0.5,0.2,0.8c0.3-0.1,0.7-0.2,1-0.4
			C209.6,314.4,209.3,314,209.2,313.5z M205.3,313.8c-0.4-0.1-0.9-0.1-1.4-0.2C204.7,314.7,204.7,314.7,205.3,313.8z M203.7,313.1
			c-0.9,0-1.5,0-2.1,0.1C202.1,314.1,202.1,314.1,203.7,313.1z M208.3,312.9c0.9,0.2,0.9,0.2,1.2-0.5
			C209,312.5,208.7,312.7,208.3,312.9z M210.2,309.7c-0.1,0-0.3,0-0.4,0.1c0.1,0.3,0.1,0.6,0.2,0.9c0.1,0,0.2,0,0.4-0.1
			C210.3,310.3,210.2,310,210.2,309.7z"/>
		<path fill-rule="evenodd" clip-rule="evenodd" d="M57.1,137.6c0.5-0.5,0.8-0.7,1.1-1c-0.6-1.3-1.2-0.2-1.8-0.1
			c-1.1-1.8-1.5-3.6-0.4-5.5c-0.1-0.2-0.1-0.3-0.1-0.4c-1.1-1.8-1-2.6,0.9-3.4c1.1-0.4,2.3-0.8,3.4-0.9c5.9-0.6,8.7,4.8,7,9.4
			c-1.3,3.4-4.8,4.7-8.1,3C58.5,138.5,57.9,138.1,57.1,137.6z M61.1,130.2c-0.5,0.9-0.9,1.7-1.4,2.4c-0.7,1-0.8,1.3,0.1,2.1
			c0.3,0.3,0.6,0.5,0.9,0.7c1.2,0.7,2.3,0.3,2.8-1C64.3,132.3,63.2,130.6,61.1,130.2z"/>
		<path fill-rule="evenodd" clip-rule="evenodd" d="M136.3,151.6c0-0.4-0.1-0.8-0.1-1.4c-0.3,0.4-0.5,0.7-0.7,1
			c-0.2-0.1-0.3-0.2-0.6-0.4c-0.3,0.3-0.8,0.7-0.8,1.1c-0.1,0.6,0.1,1.2,0.3,1.8c0,0.1,0.5,0.2,0.8,0.2c-1.6,2.3-3.2,4.6-4.7,6.9
			c-1.7,2.5-3.4,5.1-5.6,7.2c-0.2,0.2-0.5,0.5-0.7,0.7c-1,0.8-2,0.8-2.7,0c-0.7-0.7-0.8-2.1-0.1-2.9c0.5-0.6,1.2-1.1,1.6-1.7
			c1.9-2.5,3.8-5,5.7-7.5c0.8-1.1,1.5-2.2,2.3-3.2c0.2-0.2,0.6-0.3,1-0.5c-0.3-0.7,0.1-1.3,0.7-1.8c1.3-1.2,2.4-2.6,3.8-3.8
			c1.1-0.9,2.4-0.4,3.1,0.8c0.4,0.8-0.3,1.1-0.4,1.7C138.8,150.8,137.5,151.6,136.3,151.6z"/>
		<path fill-rule="evenodd" clip-rule="evenodd" d="M116.2,311.8c-0.5,1.2-1.3,1.6-2.4,1.4c-1.1-0.2-1.7-0.8-1.6-2
			c0.6-6.4-0.1-12.7-0.6-19.1c0-0.6,0-1.3,0.2-1.8c0.3-0.9,1.2-1.3,2.2-1.3c0.9,0.1,1.5,0.6,1.6,1.7c0.5,6.6,1.4,13.2,0.8,19.9
			C116.3,311.1,116.2,311.5,116.2,311.8z"/>
		<path fill-rule="evenodd" clip-rule="evenodd" d="M185.9,289.1c-1.5-0.7-1.5-0.7-1.1-1.8c-2-1.1-2.4-2.6-1.4-5.1
			c0.4,0.6,0.7,1.6,1.7,0.9c0.5-0.4,0.6-0.6,0.1-1.7c1.7-0.4,3.4-0.1,5,0.3c1.3,0.3,2.6,0.8,3.9,1.2c0.5,0.2,1,0.5,1.5,0.8
			c2.2,1.6,2.7,3.9,1.4,6.2c-0.6,1.1-1.5,2-2.6,2.6c-0.7,0.4-1.3,0.9-1.3,1.8c0,0.9-0.6,1.3-1.5,1.3c-0.9,0-1.8-0.3-1.8-1.1
			c-0.1-1.2-1-1.7-1.6-2.4c-0.6-0.6-1.7-0.9-1.4-2.2c0,0-0.3-0.2-0.5-0.2C185.6,289.7,185.7,289.4,185.9,289.1
			c0.5,0.1,1,0.3,1.3,0.4c0.4-0.7,0.8-1.3,1.2-1.8l0,0c1,1,1.9,2,2.9,3c0.8-0.6,1.4-1,1.9-1.4c1.4-1.2,1.3-2.3-0.3-3.2
			c-0.8-0.4-1.8-0.7-2.7-1c-1.4-0.5-3.1-0.4-4.1-1.5c-0.9,0.3-1.7,0.5-2.5,0.8c0.5,0.6,0.5,1.5,1.4,2c0.3,0.2,0.7,0.8,0.6,1.1
			C185.3,288,185.8,288.5,185.9,289.1z"/>
		<path fill-rule="evenodd" clip-rule="evenodd" d="M160.2,162.3c-0.2,0.2-0.5,0.5-0.9,0.9c-2.7,2.2-5.4,4.5-8.3,6.7
			c-1.8,1.4-3.8,2.6-5.7,3.8c-0.6,0.4-1.2,0.5-1.9,0.7c-1,0.3-2-0.3-2.4-1.4c-0.3-0.9,0-1.8,0.9-2.3c4.8-2.2,8.5-5.8,12.6-9.1
			c1-0.8,2-1.5,3-2.1c0.8-0.5,1.5-0.2,2.3,0.5C160.4,160.6,160.6,161.3,160.2,162.3z"/>
		<path fill-rule="evenodd" clip-rule="evenodd" d="M139.9,292.1c-0.8,0.5-1.3,1.1-2,1.3c-0.8,0.3-1.4-0.3-1.8-0.9
			c-1.6-2.5-3.2-5-4.6-7.7c-1.1-2.1-2-4.3-2.9-6.5c-0.2-0.5-0.2-1.2-0.1-1.8c0.2-0.9,0.9-1.2,1.7-1.4c0.8-0.1,1.5,0.2,1.8,0.9
			c0.8,1.7,1.7,3.3,2.3,5.1c0.9,2.5,2.4,4.7,3.8,6.9c0.4,0.7,1,1.3,1.3,2C139.7,290.7,139.7,291.3,139.9,292.1z"/>
		<path fill-rule="evenodd" clip-rule="evenodd" d="M67.6,312.7c-0.1-0.5-0.3-1-0.4-1.6c0.4-0.2,0.9-0.5,1.4-0.8
			c0.1-0.4,0.1-1,0.3-1.5c1.6-3.3,3.1-6.7,4.7-10c0.2-0.5,0.5-1,0.9-1.4c0.7-0.8,1.8-0.9,2.8-0.3c0.8,0.5,1.1,1.3,0.7,2.3
			c-1.2,2.6-2.3,5.3-3.9,7.7c-0.9,1.3-1,3-2.2,4.1c-0.2,0.1-0.3,0.3-0.5,0.6c-0.4-0.4-0.8-0.8-1.2-1.2
			C69.6,311.7,68.6,312.2,67.6,312.7L67.6,312.7z"/>
		<path fill-rule="evenodd" clip-rule="evenodd" d="M86.4,158.2c-0.2,0.2-0.4,0.3-0.6,0.5c-2.5-2.4-4.2-5.3-4.7-8.8
			c-0.1-0.8,0-1.7,0.1-2.5c0.2-1.1,1.1-1.7,2.2-1.6c1,0.1,1.8,0.9,1.7,1.9c-0.3,2.6,0.9,4.6,2.1,6.6c1.1,1.9,2,3.8,3,5.7
			c0.1,0.2,0.2,0.5,0.2,0.8c0,0.2-0.1,0.7-0.3,0.7c-0.3,0-0.7,0-0.8-0.2C88.3,160.3,87.4,159.3,86.4,158.2z"/>
		<path fill-rule="evenodd" clip-rule="evenodd" d="M58.7,165.8c1.5,0.8,3,1.5,4.4,2.3c0.4,0.2,0.8,0.4,1.1,0.7
			c1.2,0.9,1.4,1.5,0.8,2.5c-0.6,1.1-1.8,1.5-2.9,0.9c-1.2-0.6-2.4-1.3-3.5-2c-1.6-1-3.3-1.9-4.8-3c-0.9-0.6-1.7-1.3-2.4-2
			c-0.2-0.2-0.2-0.6-0.3-0.9c1.4-0.8,1.6-0.8,2.4,0.1c0.5-0.4,0.9-0.7,1.7-1.4c-0.1,1.4,0.4,2.1,1.4,2.4c0.2-0.2,0.3-0.4,0.5-0.6
			c0.7,0.1,0.7,0.6,0.7,1.1c0,0.2,0.4,0.4,0.6,0.6C58.4,166.3,58.5,166.1,58.7,165.8z"/>
		<path fill-rule="evenodd" clip-rule="evenodd" d="M213.9,330.5c-0.6,0.8-1.2,1.5-1.4,2.6c-0.2,1-0.3,2.1-1.1,2.9
			c-0.2,0.2-0.2,0.7-0.3,1.1c-0.1,1.5-0.7,2.2-2,2.2c-1.3,0-2.2-0.8-2.4-2.1c-0.2-2.2,0.5-4,2.3-5.3
			C210.6,330.9,212.1,330.3,213.9,330.5L213.9,330.5z"/>
		<path fill-rule="evenodd" clip-rule="evenodd" d="M70.1,314c-0.5,0.9-1,1.8-1.6,2.5c-0.8,1-2.2,1.1-3.1,0.3
			c-0.8-0.6-0.7-1.4,0-2.6c0.4-0.7,0.9-1.4,1.3-2.1c0.4,0.3,0.7,0.5,0.9,0.7c0,0,0-0.1,0-0.1c0.4,1.1,1,0.2,1.5,0.2
			C68.7,313.8,69.5,313.8,70.1,314z"/>
		<path fill-rule="evenodd" clip-rule="evenodd" d="M134.6,152c0.5,0,1,0,1.4,0.2c0.1,0.1,0,0.8-0.1,1.6c-0.7-0.7-1-1.1-1.4-1.4
			C134.6,152.2,134.6,152.1,134.6,152z"/>
		<path fill-rule="evenodd" clip-rule="evenodd" d="M213.9,330.6c0.6,0.1,1.3,0.1,2,0.2c0.1,0.8-0.5,0.5-0.9,0.6
			C214.3,331.4,214.1,331.1,213.9,330.6C213.9,330.5,213.9,330.6,213.9,330.6z"/>
		<path fill-rule="evenodd" clip-rule="evenodd" d="M220.4,334.7c1.2-0.5,1.4-0.2,1.4,1.1c-0.3-0.3-0.4-0.4-0.6-0.6
			C221,335.1,220.7,335,220.4,334.7z"/>
		<path fill-rule="evenodd" clip-rule="evenodd" d="M70,314c-0.2-0.5-0.3-1.1-0.5-1.6C70.7,312.4,70.8,312.7,70,314z"/>
		<path fill-rule="evenodd" clip-rule="evenodd" d="M221.7,338.2c0.1,0.7,0.2,1.1,0.2,1.6C221.2,339.5,221.1,339,221.7,338.2z"/>
		<path fill-rule="evenodd" clip-rule="evenodd" d="M216.5,331.4c0.3-0.1,0.6-0.3,1.1-0.5c0,0.3,0.1,0.5,0,0.5
			c-0.3,0.2-0.6,0.3-0.9,0.4C216.7,331.7,216.6,331.5,216.5,331.4z"/>
		<path fill-rule="evenodd" clip-rule="evenodd" d="M218.8,338.8c-0.1,0.4-0.3,0.7-0.4,1.1c-0.1,0-0.1,0-0.2-0.1
			c0.1-0.4,0.2-0.7,0.3-1.1C218.6,338.8,218.7,338.8,218.8,338.8z"/>
		<path fill-rule="evenodd" clip-rule="evenodd" d="M49.2,163.5c-0.1-0.5-0.1-0.9-0.2-1.6C49.9,162.5,49.2,163,49.2,163.5
			L49.2,163.5z"/>
		<path fill-rule="evenodd" clip-rule="evenodd" d="M49.2,163.5c1-0.1,1-0.1,1.4,0.8C50,164,49.6,163.7,49.2,163.5L49.2,163.5z"/>
		<path fill-rule="evenodd" clip-rule="evenodd" d="M52.3,163.4c-0.2-0.6-0.3-0.9-0.5-1.5C52.6,162.3,52.5,162.7,52.3,163.4z"/>
		<path fill-rule="evenodd" clip-rule="evenodd" d="M133.8,30.9c-1.1,0-1.9-0.1-2.9-0.1c1,1,2,1.2,3.3,0.8c0.2,0.5,0.6,0.9,0.7,1.4
			c0.3,0.9,0,1.9-0.8,2.5c-0.9,0.7-1.7,0.7-2.8,0.1c-0.7-0.3-1.4-1.3-2.3-0.4c-0.1,0.1-0.3,0-0.5,0c-11.5-2.5-21.9,1.7-28.8,8.1
			c-5.8,5.3-9.7,11.8-12,19.3c-0.5,1.8-0.9,3.6-1.4,5.4c-0.4,1.8-1.2,2.3-3,1.9c-0.7-0.1-1.5-0.2-2.2-0.3c-0.7-0.2-1.4-0.4-2-0.7
			c-1.1-0.5-1.5-1.4-1.3-2.6c0.5-3.5,0.9-7,1.5-10.5c0.8-4.9,2.3-9.6,4.5-13.9c5.5-10.6,13.5-18.4,25.1-22.1
			c4.1-1.3,8.3-1.5,12.5-0.2c4.4,1.3,7.8,4,10.3,7.8C132.3,28.4,133,29.5,133.8,30.9z M129.5,31.2c-0.7-0.9-1.4-1.9-2.2-2.7
			c-2.1-2.3-4.5-4.2-7.7-5c-4.4-1.1-8.8-0.6-12.9,1.1c-9,3.7-15.3,10.3-19.9,18.8c-2.5,4.6-3.7,9.6-4.5,14.7c-0.4,2.6-0.7,5.2-1.1,8
			c0.8,0.1,1.3,0.2,1.9,0.3c0.5-1.7,0.9-3.2,1.4-4.7c2.9-9,7.6-16.7,15.1-22.6c6.2-4.9,13.2-7.8,21.1-8.1
			C123.6,30.8,126.5,31.1,129.5,31.2z M129.4,32c0.2,0.8,0.4,1.4,0.7,2.1c0.6-0.3,1.1-0.6,1.6-0.7c0.5-0.1,1.2,0.4,1.4-0.7
			c-0.5,0-1.1-0.1-1.6-0.2C130.9,32.4,130.3,32.2,129.4,32z M129.6,26.9c0-0.1,0-0.2-0.1-0.3c-0.4,0-0.7,0.1-1.1,0.1
			c0,0.1,0,0.3,0.1,0.4C128.9,27,129.3,27,129.6,26.9z"/>
		<path fill-rule="evenodd" clip-rule="evenodd" d="M89.6,77.3c1.5,0.5,1.8,1.3,1.8,2.3c0,2.1,0,4.3,0.1,6.4c0.2,4,1,7.9,2.1,11.8
			c0.2,0.5,0.3,1.1,0.4,1.6c0.4,2.1-0.7,3.1-2.8,2.5c-1-0.3-2.1-0.4-3.1-0.5c-1.6-0.1-3.3,0-4.9-0.2c-2.4-0.2-4.1-1.4-5-3.7
			c-1.6-3.9-2.4-8-2.4-12.2c0-1.1,0.4-2.2-0.1-3.4C75.5,81,76.1,80.3,77,80c2.7-0.9,5.5-1.7,8.2-2.5C86.9,77,88.5,77,89.6,77.3z
			 M89.8,97.6c-1.5-5.6-2.1-11.1-2-16.6c-2.4-0.2-4.4,0.4-8.6,2.5c0,0.7,0,1.3,0,2c0.1,3.3,0.7,6.6,1.8,9.8c0.6,1.8,1.8,2.5,3.6,2.5
			C86.2,97.6,87.9,97.6,89.8,97.6z"/>
		<path fill-rule="evenodd" clip-rule="evenodd" d="M103.7,239.5c4.3,2,8,4.6,9.6,9.4c0.8,2.4,0.9,4.8-0.2,7.1
			c-1.9,4.1-4.7,7.4-8.7,9.6c-1.6,0.9-3.3,1.4-5.2,1.1c-2.3-0.4-3.9-2-4.3-4.4c-0.3-1.8-0.1-3.5,0.9-5c1.3-1.9,2.7-3.7,4-5.6
			c0.5-0.7,1-1.4,1.3-2.2c0.9-2.1,0.5-3.7-1.4-5c-0.4-0.3-0.8-0.5-1.1-0.8c-1-0.7-1.3-1.3-1.1-2.4c0.2-1,0.7-1.7,1.8-1.7
			c0.2,0,0.4,0,0.5-0.1C101.1,238.5,102.4,238.9,103.7,239.5z M105.7,245.8c0.5,3-0.6,5.2-2.2,7.3c-1,1.4-2.1,2.7-3,4.1
			c-0.7,1.1-1.3,2.2-1.9,3.4c-0.4,1,0.2,1.9,1.4,1.9c0.6,0,1.2-0.2,1.8-0.4c2.8-1.4,5-3.4,6.6-6.1
			C110.4,252.6,109.3,248.1,105.7,245.8z M103.6,248.9c0.3-0.6,0.4-1,0.6-1.4C103.1,247.4,103.3,248,103.6,248.9z"/>
		<path fill-rule="evenodd" clip-rule="evenodd" d="M151.4,216.3c0.6-1.5,1.1-2.9,1.8-4.4c0.8-1.8,2.1-2.2,3.6-0.9
			c3.1,2.9,6.7,4.9,10.5,6.7c1.1,0.5,2.2,0.9,3.3,1.4c1.2,0.5,1.6,1.1,1.5,2.2c-0.1,1.1-0.6,1.7-2,1.9c-2.3,0.3-4.7,0.5-7.1,0.8
			c-2.7,0.3-5.4,0.7-8,1.1c-0.9,0.1-1.7,0.1-2.2-0.7c-0.3-0.5-0.7-0.5-1.1-0.5c-1.6,0-2.5-1.4-1.8-2.8c0.7-1.5,1.3-3.1,1.9-4.7
			C151.6,216.3,151.5,216.3,151.4,216.3z M154,221c1.3-0.2,2.4-0.7,3.1-0.4c1.1,0.5,1.6-0.5,2.5-0.5c0.7,0,1.4,0,2.2,0
			c0-0.1,0.1-0.3,0.2-0.5c-1.7-1.7-4-2.2-5.9-3.9C155.3,217.5,154.7,219.1,154,221z M152.1,217.4c-0.1,0-0.2-0.1-0.3-0.1
			c-0.1,0.1-0.2,0.3-0.2,0.4c0,0.2,0.1,0.3,0.4,0.8C152,217.9,152,217.7,152.1,217.4z"/>
		<path fill-rule="evenodd" clip-rule="evenodd" d="M188.4,287.6c-0.5-0.1-1.1-0.2-1.6-0.3c-0.2-0.5-0.3-1-0.5-1.5
			c0.1-0.1,0.2-0.1,0.3-0.2C187.1,286.4,187.7,287,188.4,287.6C188.4,287.7,188.4,287.6,188.4,287.6z"/>
	</g>
</g>
</svg>
