<?xml version="1.0" encoding="utf-8"?>
<!-- Generator: Adobe Illustrator 18.0.0, SVG Export Plug-In . SVG Version: 6.00 Build 0)  -->
<!DOCTYPE svg PUBLIC "-//W3C//DTD SVG 1.1//EN" "http://www.w3.org/Graphics/SVG/1.1/DTD/svg11.dtd">
<svg version="1.1" id="Слой_1" xmlns="http://www.w3.org/2000/svg" xmlns:xlink="http://www.w3.org/1999/xlink" x="0px" y="0px"
	 viewBox="0 0 80.1 74.5" enable-background="new 0 0 80.1 74.5" xml:space="preserve">
<g>
	<path fill="#E8BC00" d="M80.1,1.4c0-0.8-0.6-1.4-1.4-1.4H1.4C0.6,0,0,0.6,0,1.4v54c0,0.8,0.6,1.4,1.4,1.4h29.5l-9.7,11.4
		c-0.2,0.3-0.4,0.6-0.3,1c0,0.4,0.2,0.7,0.5,0.9c0.6,0.5,1.5,0.4,1.9-0.2l11.2-13.1h4.1v16.4c0,0.8,0.6,1.4,1.4,1.4
		c0.8,0,1.4-0.6,1.4-1.4V56.7h4.9l0.1,0.1l10.6,12.4c0.5,0.6,1.4,0.6,1.9,0.2c0.3-0.2,0.5-0.6,0.5-0.9c0-0.4-0.1-0.7-0.3-1
		l-9.1-10.6h28.8c0.8,0,1.4-0.6,1.4-1.4V1.4z M77.3,54H2.8V2.8h74.6V54z"/>
	<path fill="#E8BC00" d="M71.3,9.6c0-0.8-0.6-1.4-1.4-1.4H11c-0.8,0-1.4,0.6-1.4,1.4v36.5c0,0.8,0.6,1.4,1.4,1.4h59
		c0.8,0,1.4-0.6,1.4-1.4V9.6z M68.6,44.7H12.4V11h56.2V44.7z"/>
	<path fill="#E8BC00" d="M58.1,29.1l7.2-12.4c0.4-0.7,0.2-1.5-0.5-1.9c-0.2-0.1-0.5-0.2-0.7-0.2c-0.5,0-0.9,0.3-1.2,0.7l-6.4,11
		l-3.7-3c-0.5-0.4-1.3-0.4-1.8,0l-6.6,5.6L39.2,21c-0.2-0.4-0.7-0.6-1.1-0.6l-0.1,0c-0.4,0-0.8,0.2-1.1,0.5l-9.4,11.9l-3.3-4.1
		c-0.3-0.4-0.8-0.5-1.1-0.5c-0.4,0-0.8,0.2-1.1,0.5l-7.1,9.2c-0.2,0.3-0.3,0.7-0.3,1c0,0.4,0.2,0.7,0.5,0.9c0.6,0.5,1.5,0.3,1.9-0.3
		l6-7.8l3.3,4.1c0.3,0.3,0.7,0.5,1.1,0.5c0.4,0,0.8-0.2,1.1-0.5L38,24.1l4.9,7.6c0.2,0.3,0.6,0.6,1,0.6c0.4,0.1,0.8-0.1,1.1-0.3
		l7-5.9l4.1,3.3c0.3,0.3,0.7,0.4,1.1,0.3C57.5,29.7,57.9,29.4,58.1,29.1z"/>
</g>
</svg>
