<?xml version="1.0" encoding="utf-8"?>
<!-- Generator: Adobe Illustrator 18.0.0, SVG Export Plug-In . SVG Version: 6.00 Build 0)  -->
<!DOCTYPE svg PUBLIC "-//W3C//DTD SVG 1.1//EN" "http://www.w3.org/Graphics/SVG/1.1/DTD/svg11.dtd">
<svg version="1.1" id="Слой_1" xmlns="http://www.w3.org/2000/svg" xmlns:xlink="http://www.w3.org/1999/xlink" x="0px" y="0px"
	 viewBox="0 0 92.8 70.9" enable-background="new 0 0 92.8 70.9" xml:space="preserve">
<path fill="#E8BC00" d="M57.4,0C38.4,0,22.9,14.8,22,33.7l0,0.4h-6.3l-0.1-0.3c0-0.1,0-0.1,0-0.1l-4.2-11c-0.3-0.7-1.1-1-1.7-0.8
	c-0.3,0.1-0.6,0.4-0.7,0.7s-0.2,0.7,0,1l4,10.4H7.3L3.1,22.3c-0.2-0.7-1-1.1-1.7-0.8c-0.7,0.3-1.1,1-0.8,1.7l3.9,10.9H2.5
	c-0.7,0-1.3,0.6-1.3,1.3c0,0.7,0.6,1.3,1.3,1.3h2.1L0.1,47.9c-0.1,0.3-0.1,0.7,0,1c0.1,0.3,0.4,0.6,0.7,0.7c0.7,0.3,1.5-0.1,1.8-0.7
	l4.9-12.1h5.8L8.8,47.9c-0.1,0.3-0.1,0.7,0,1c0.1,0.3,0.4,0.6,0.7,0.7c0.7,0.3,1.5-0.1,1.8-0.7l4.7-11.7c0,0,0-0.1,0-0.1l0.1-0.3
	l0.3-0.1h5.5l0,0.4c0.9,18.9,16.5,33.7,35.4,33.7c19.5,0,35.4-15.9,35.4-35.4C92.8,15.9,76.9,0,57.4,0z M57.4,68.2
	c-17.4,0-31.8-13.6-32.7-31l0-0.4h10.1l0,0.4c0.5,12.6,10.8,22.4,23.4,22.4c12.9,0,23.4-10.5,23.4-23.4c0-12.9-10.5-23.4-23.4-23.4
	c-12,0-22,9-23.3,20.9l0,0.4H24.6l0-0.4c0.9-17.4,15.3-31,32.7-31c18.1,0,32.8,14.7,32.8,32.8C90.1,53.5,75.4,68.2,57.4,68.2z
	 M58.1,34.1h-8.8l0.2-0.5c1.1-3.5,4.4-6,8.1-6c4.7,0,8.5,3.8,8.5,8.5c0,4.7-3.8,8.5-8.5,8.5c-4.2,0-7.7-3.1-8.3-7.2l-0.1-0.5h9
	c0.7,0,1.3-0.6,1.3-1.3C59.5,34.7,58.9,34.1,58.1,34.1z M57.6,47.2c6.1,0,11.1-5,11.1-11.1s-5-11.1-11.1-11.1
	c-5.3,0-9.9,3.7-10.9,8.9l-0.1,0.3h-9l0.1-0.4c1.3-10.3,10.1-18.1,20.5-18.1c11.4,0,20.7,9.3,20.7,20.7c0,11.4-9.3,20.7-20.7,20.7
	c-11.1,0-20.1-8.6-20.7-19.7l0-0.4h9l0,0.4C47,42.9,51.8,47.2,57.6,47.2z"/>
</svg>
