<?xml version="1.0" encoding="utf-8"?>
<!-- Generator: Adobe Illustrator 18.0.0, SVG Export Plug-In . SVG Version: 6.00 Build 0)  -->
<!DOCTYPE svg PUBLIC "-//W3C//DTD SVG 1.1//EN" "http://www.w3.org/Graphics/SVG/1.1/DTD/svg11.dtd">
<svg version="1.1" id="Слой_1" xmlns="http://www.w3.org/2000/svg" xmlns:xlink="http://www.w3.org/1999/xlink" x="0px" y="0px"
	 viewBox="0 0 75.2 69.5" enable-background="new 0 0 75.2 69.5" xml:space="preserve">
<g>
	<path fill="#E8BC00" d="M37.4,33.7c-0.3,0-0.6-0.1-0.9-0.4c-0.5-0.5-0.5-1.3,0-1.7l15.7-15.2c0.5-0.5,1.3-0.5,1.7,0
		c0.5,0.5,0.5,1.3,0,1.7L38.3,33.4C38,33.6,37.7,33.7,37.4,33.7z"/>
	<path fill="#E8BC00" d="M31.3,34.7c-0.2,0-0.4-0.1-0.6-0.2l-12.9-7.8c-0.6-0.4-0.8-1.1-0.4-1.7c0.4-0.6,1.1-0.8,1.7-0.4l12.9,7.8
		c0.6,0.4,0.8,1.1,0.4,1.7C32.1,34.5,31.7,34.7,31.3,34.7z"/>
	<path fill="#E8BC00" d="M34.4,40.1c-2.6,0-4.8-2.1-4.8-4.8c0-2.6,2.1-4.8,4.8-4.8c2.6,0,4.8,2.1,4.8,4.8
		C39.2,38,37.1,40.1,34.4,40.1z M34.4,33c-1.3,0-2.3,1-2.3,2.3c0,1.3,1,2.3,2.3,2.3c1.3,0,2.3-1,2.3-2.3C36.7,34.1,35.7,33,34.4,33z
		"/>
	<path fill="#E8BC00" d="M34.6,15.3c-0.7,0-1.2-0.6-1.2-1.2V9c0-0.7,0.6-1.2,1.2-1.2s1.2,0.6,1.2,1.2v5.1
		C35.9,14.8,35.3,15.3,34.6,15.3z"/>
	<path fill="#E8BC00" d="M14,36.6H7.7c-0.7,0-1.2-0.6-1.2-1.2c0-0.7,0.6-1.2,1.2-1.2H14c0.7,0,1.2,0.6,1.2,1.2
		C15.2,36,14.7,36.6,14,36.6z"/>
	<path fill="#E8BC00" d="M27.9,68.6c-0.1,0-0.2,0-0.2,0C11.6,65.3,0,51,0,34.6C0,15.5,15.5,0,34.6,0s34.6,15.5,34.6,34.6
		c0,1.9-0.2,3.8-0.5,5.7c-0.1,0.5-0.5,0.9-1,1c-0.5,0.1-1-0.1-1.3-0.6l-8.3-13.4c-0.4-0.6-0.2-1.3,0.4-1.7c0.6-0.4,1.3-0.2,1.7,0.4
		l6.4,10.4c0-0.6,0-1.2,0-1.8c0-17.7-14.4-32.2-32.2-32.2S2.5,16.9,2.5,34.6c0,15.2,10.8,28.5,25.7,31.5c0.7,0.1,1.1,0.8,1,1.5
		C29,68.2,28.5,68.6,27.9,68.6z"/>
	<path fill="#E8BC00" d="M67.6,41.3c-0.2,0-0.3,0-0.5-0.1c-0.6-0.3-0.9-1-0.6-1.6l6.3-13.8c0.3-0.6,1-0.9,1.6-0.6
		c0.6,0.3,0.9,1,0.6,1.6l-6.3,13.8C68.5,41.1,68.1,41.3,67.6,41.3z"/>
	<g>
		<path fill="#E8BC00" d="M34,69.5v-2l2.6-2.5c6.3-6,9.1-9.1,9.1-12.8c0-2.5-1.2-4.8-4.9-4.8c-2.2,0-4.1,1.1-5.2,2.1l-1.1-2.3
			c1.7-1.4,4.1-2.5,6.9-2.5c5.3,0,7.5,3.6,7.5,7.1c0,4.5-3.3,8.2-8.4,13.1l-2,1.8v0.1h11v2.8H34z"/>
		<path fill="#E8BC00" d="M63.5,69.5v-6.7H52.2v-2.2l10.9-15.6h3.6v15.2h3.4v2.6h-3.4v6.7H63.5z M63.5,60.3v-8.2
			c0-1.3,0-2.6,0.1-3.8h-0.1c-0.8,1.4-1.4,2.5-2,3.6l-6,8.3v0.1H63.5z"/>
	</g>
</g>
</svg>
