<svg id="Слой_1" data-name="Слой 1" xmlns="http://www.w3.org/2000/svg" width="250.89" height="307.32" viewBox="0 0 250.89 307.32"><defs><style>.cls-1{opacity:0.3;}.cls-2{fill:#fff;}</style></defs><title>01</title><g class="cls-1"><path class="cls-2" d="M164.08,224.41q0,20-6.73,35.38a76.89,76.89,0,0,1-18.23,26,77.88,77.88,0,0,1-26.26,16.06,90.24,90.24,0,0,1-61.64,0A77.75,77.75,0,0,1,25,285.84a76.7,76.7,0,0,1-18.23-26Q0,244.39,0,224.41V82.91q0-20,6.73-35.38A76.82,76.82,0,0,1,25,21.49,77.94,77.94,0,0,1,51.22,5.43a90.24,90.24,0,0,1,61.64,0,78.07,78.07,0,0,1,26.26,16.06,77,77,0,0,1,18.23,26q6.72,15.41,6.73,35.38V224.41ZM136.73,85.61q0-27-14.92-42.83T82.26,26.91q-25.08,0-40,15.87T27.35,85.61V222.14q0,27,14.91,43t40,16.09q24.64,0,39.55-16.09t14.92-43V85.61Z"/><path class="cls-2" d="M250.89,304.72H223.11v-273L181.44,60.77V31.25L222.68,2.6h28.21V304.72Z"/></g></svg>