<svg id="Слой_1" data-name="Слой 1" xmlns="http://www.w3.org/2000/svg" width="349.43" height="307.32" viewBox="0 0 349.43 307.32"><defs><style>.cls-1{opacity:0.2;}.cls-2{fill:#fff;}</style></defs><title>02</title><g class="cls-1"><path class="cls-2" d="M164.08,224.42q0,20-6.73,35.38a76.89,76.89,0,0,1-18.23,26,77.88,77.88,0,0,1-26.26,16.06,90.24,90.24,0,0,1-61.64,0A77.75,77.75,0,0,1,25,285.84a76.7,76.7,0,0,1-18.23-26Q0,244.39,0,224.42V82.91q0-20,6.73-35.38A76.82,76.82,0,0,1,25,21.49,77.94,77.94,0,0,1,51.22,5.43a90.24,90.24,0,0,1,61.64,0,78.07,78.07,0,0,1,26.26,16.06,77,77,0,0,1,18.23,26q6.72,15.41,6.73,35.38V224.42ZM136.73,85.61q0-27-14.92-42.83T82.26,26.91q-25.08,0-40,15.87T27.35,85.61V222.14q0,27,14.91,43t40,16.09q24.64,0,39.55-16.09t14.92-43V85.61Z"/><path class="cls-2" d="M181.87,304.72V277.37L303,122a82.83,82.83,0,0,0,12.37-22.14,66.58,66.58,0,0,0,4.56-23.44,54.55,54.55,0,0,0-3.26-18.88,44.62,44.62,0,0,0-10-15.84,46.91,46.91,0,0,0-16.49-10.85,61.11,61.11,0,0,0-22.79-3.91,52.16,52.16,0,0,0-35.38,13q-15,13-19.32,33.86l-27.78-3.91A88.11,88.11,0,0,1,195.55,41a79.76,79.76,0,0,1,18.67-21.7A82.87,82.87,0,0,1,239,5.64,87,87,0,0,1,267.82.87,100.55,100.55,0,0,1,301,6.08a72.61,72.61,0,0,1,25.61,15,70.14,70.14,0,0,1,16.71,23.44q6.07,13.67,6.08,31A93.44,93.44,0,0,1,344.22,105a92.93,92.93,0,0,1-16.06,29.08L215.73,277.81H346.82v26.91H181.87Z"/></g></svg>