<svg id="Слой_1" data-name="Слой 1" xmlns="http://www.w3.org/2000/svg" width="351.16" height="307.32" viewBox="0 0 351.16 307.32"><defs><style>.cls-1{opacity:0.2;}.cls-2{fill:#fff;}</style></defs><title>03</title><g class="cls-1"><path class="cls-2" d="M164.08,224.42q0,20-6.73,35.38a76.89,76.89,0,0,1-18.23,26,77.88,77.88,0,0,1-26.26,16.06,90.24,90.24,0,0,1-61.64,0A77.75,77.75,0,0,1,25,285.84a76.7,76.7,0,0,1-18.23-26Q0,244.39,0,224.42V82.91q0-20,6.73-35.38A76.82,76.82,0,0,1,25,21.49,77.94,77.94,0,0,1,51.22,5.43a90.24,90.24,0,0,1,61.64,0,78.07,78.07,0,0,1,26.26,16.06,77,77,0,0,1,18.23,26q6.72,15.41,6.73,35.38V224.42ZM136.73,85.61q0-27-14.92-42.83T82.26,26.91q-25.08,0-40,15.87T27.35,85.61V222.14q0,27,14.91,43t40,16.09q24.64,0,39.55-16.09t14.92-43V85.61Z"/><path class="cls-2" d="M351.16,216.6q0,20.41-6.73,36.9a87.64,87.64,0,0,1-18.67,28.65,80.64,80.64,0,0,1-28.65,18.67,99,99,0,0,1-36.25,6.51,107.14,107.14,0,0,1-25.18-3,79.32,79.32,0,0,1-23.44-9.77,64.35,64.35,0,0,1-18.88-18.23q-8-11.5-11.5-28.43l26.91-3.91q4.77,18.67,18.88,28.43t34.07,9.77a61.68,61.68,0,0,0,24.31-4.77,56.8,56.8,0,0,0,19.32-13.24,64.23,64.23,0,0,0,12.81-20.18,68.48,68.48,0,0,0,4.77-26q0-28.21-16.06-43.62T267,158.87H246.12V134.13H263q24.31,0,39.93-14.48t15.63-38.27q0-24.2-15.41-39.77T263.48,26Q247,26,232,36.25T211.39,66l-26.91-3.91a74.74,74.74,0,0,1,10.63-25A81.33,81.33,0,0,1,236.57,4.64,80.87,80.87,0,0,1,263.91,0Q285.18,0,301,6.73t25.83,17.8a73.46,73.46,0,0,1,15,25.61,92.39,92.39,0,0,1,5,30.17,79.85,79.85,0,0,1-2,17.15A68.8,68.8,0,0,1,325.33,132a82.62,82.62,0,0,1-19.75,13.89,81.6,81.6,0,0,1,21.92,14.54A72.44,72.44,0,0,1,349,197.94,88.29,88.29,0,0,1,351.16,216.6Z"/></g></svg>