<svg id="Слой_1" data-name="Слой 1" xmlns="http://www.w3.org/2000/svg" width="335.68" height="296.34" viewBox="0 0 335.68 296.34"><defs><style>.cls-1{fill:#010101;fill-rule:evenodd;}</style></defs><title>clock</title><path class="cls-1" d="M59,83.34c1.35-2.79,2.66-5.64,4.11-8.43A122.76,122.76,0,0,1,77.76,53,132.33,132.33,0,0,1,95.07,35.71c4.09-3.38,8.49-6.39,12.82-9.48A123.21,123.21,0,0,1,130,13.86c5.24-2.3,10.66-4.18,16-6.12A136.24,136.24,0,0,1,181.19.53a130.27,130.27,0,0,1,32.16,1,134.93,134.93,0,0,1,15.4,3.53c14,4,26.57,10.93,38.41,19.31A148.16,148.16,0,0,1,288.59,43a135.54,135.54,0,0,1,15.78,19.42c3.26,5,6.51,10,9.45,15.19a130.48,130.48,0,0,1,8,15.79c3,7.5,5.44,15.23,7.83,23a137.84,137.84,0,0,1,6,35.53,103.11,103.11,0,0,1-2.19,23.89A153.32,153.32,0,0,1,329.15,193a150,150,0,0,1-7.66,20.21,207.38,207.38,0,0,1-12.73,21.9,119.94,119.94,0,0,1-21.3,24.54,178.42,178.42,0,0,1-16.13,12.77,188.85,188.85,0,0,1-16.58,9.79A81.63,81.63,0,0,1,242.62,288a174.47,174.47,0,0,1-20,5.82,114.73,114.73,0,0,1-27.53,2.43,118.24,118.24,0,0,1-29.32-4q-8.69-2.45-17.23-5.43c-3.26-1.13-6.35-2.75-9.58-4.18-1.21,2-2.28,3.95-3.55,5.78-3.12,4.49-10,6.32-15.24,4.66-5.63-1.78-9.92-5.55-14.24-9.28-4.11-3.54-8.22-7.1-12.13-10.87-3.22-3.1-5.73-6.75-6.16-11.41a9.13,9.13,0,0,1,2.18-7.47c1.06-1.14,2-2.43,3.13-3.46,1-.86.76-1.27-0.06-2.08-3.86-3.82-7.65-7.71-11.44-11.6-0.77-.79-1.45-1.67-2.2-2.55a19.46,19.46,0,0,1-8.32,4.3c-4.37,1-6.52-.5-8.54-4-2.45-4.23-4.51-8.67-6.8-13-0.88-1.67-1.95-3.24-3-5l-3.45,1c1.79,3.06,3.58,5.86,5.11,8.8,1.74,3.35,3.29,6.79,1.71,10.75a8.72,8.72,0,0,1-4.23,4.31c-2.12,1.19-4.36,2.15-6.56,3.21-2.7,1.3-5.43,2.54-8.08,3.93-4.13,2.18-8,1.4-11.12-1.6a31.08,31.08,0,0,1-5.85-7.7c-3.25-6.06-6-12.39-9.1-18.53-2.92-5.76-6.54-11.21-9-17.16-3.71-9-2.81-15.93,6.94-22.17a20.45,20.45,0,0,1,12.78-3.23,13.92,13.92,0,0,1,10.81,6.26l3.57,5L40,187.74c-0.69-1.42-1.51-2.84-2.09-4.36-1.39-3.67-2.8-7.31-2.85-11.38-0.06-5,2.4-8.59,6.71-10.33,3.9-1.57,5-3.72,4.25-7.65a32.43,32.43,0,0,1-.11-7.29c0.06-1.33-.38-2-1.66-2.24s-2.7-.58-4.07-0.79c-4.5-.7-8.3-2.94-10.2-6.9a18.08,18.08,0,0,1-1.31-9.31,76.56,76.56,0,0,1,3-13Q35.31,101.71,39.34,89c2.06-6.46,7-8.9,13.6-7.09C54.87,82.48,56.85,82.85,59,83.34Zm248.52,4,0.5-.25c-1.77-3.22-3.45-6.5-5.32-9.66Q299,71.11,295,64.93A146.63,146.63,0,0,0,277.57,43.7a137.32,137.32,0,0,0-24.44-20,96,96,0,0,0-14.48-7.89,117.91,117.91,0,0,0-15.2-4.8A102.83,102.83,0,0,0,200.29,7.7,139,139,0,0,0,164,11c-4.26,1-8.46,2.2-12.63,3.5-3.54,1.1-7,2.4-10.47,3.76-4.07,1.6-8.16,3.2-12.1,5.08a101.68,101.68,0,0,0-9,5.18c-4,2.42-8,4.69-11.75,7.47A148.58,148.58,0,0,0,87.44,54.64a129.41,129.41,0,0,0-17.9,25.93A128.8,128.8,0,0,0,63,95.87a167,167,0,0,0-7.69,27.93,77.89,77.89,0,0,0-1.55,11.32c-0.17,3.66.46,7.35,0.46,11a149.83,149.83,0,0,0,2.09,25.51,105,105,0,0,0,6.76,23.2,114.28,114.28,0,0,0,7.39,14.39,184.73,184.73,0,0,0,10.75,16.07,149.79,149.79,0,0,0,25,25.46,172.38,172.38,0,0,0,27.69,19,136.38,136.38,0,0,0,15.82,7.47,117.56,117.56,0,0,0,17.8,5.32,155.49,155.49,0,0,0,21,2.89,117.09,117.09,0,0,0,34-2.91,130.52,130.52,0,0,0,23.16-7.73,130.89,130.89,0,0,0,19.39-11,129.81,129.81,0,0,0,17.7-14.07,136.26,136.26,0,0,0,18.76-22.1A119.43,119.43,0,0,0,315,202.44a221.47,221.47,0,0,0,6.55-21.18c2-7.26,2.58-14.76,2.93-22.27,0.44-9.28-.64-18.44-2.17-27.57A164.29,164.29,0,0,0,313.6,100C311.93,95.67,309.57,91.57,307.52,87.34ZM28.16,187.22c-3.28-4-6.34-4-10-2.75A32.73,32.73,0,0,0,7.39,191a4.34,4.34,0,0,0-1.79,3.71,26.76,26.76,0,0,0,3.56,10.46c2.75,4.88,5.83,9.59,8.44,14.54,3.09,5.86,5.8,11.92,8.73,17.86a15,15,0,0,0,2.15,3.3c1.76,2,4.09,2.92,6.62,2A119.81,119.81,0,0,0,47.5,237.7c4.06-2,5.24-4.76,1.91-8.84-2.73,1.15-5.43,2.4-8.22,3.43a66.07,66.07,0,0,1-6.83,2,2.1,2.1,0,0,1-1.71-.44,3.25,3.25,0,0,1,1-5.49,13.65,13.65,0,0,1,1.94-.71l10.56-3.32L39.51,210.6c-1.08.66-2.06,1.28-3.06,1.87-3,1.79-6.06,3.65-9.18,5.28-0.87.45-2.5,0.69-3.09,0.2-2-1.64-1.35-4.66.95-5.88,3.06-1.62,6.11-3.26,9.18-4.87,2.91-1.53,2.91-1.51,1.46-4.52l-2.42-5-2.43-5c-4.83,2.34-9.41,4.63-14.05,6.76a19.54,19.54,0,0,1-3.82.91,11,11,0,0,0-.73-2.17c-0.91-1.43-.58-2.47.79-3.32,0.58-.36,1.08-0.85,1.68-1.15C19.22,191.54,23.68,189.39,28.16,187.22ZM56.51,88.11c-1.42-.1-3.09-0.2-4.77-0.34-4.61-.4-4.62-0.41-6.6,3.44a7.86,7.86,0,0,0-.52,1.44c-2,6.78-3.7,13.66-6,20.31a81.37,81.37,0,0,0-4.41,16.32c-0.53,4.05.63,6.67,3.66,7.82,2.08,0.79,4.19,1.5,6.31,2.19a5.92,5.92,0,0,0,1.39.19c1.12-8.79,1.65-17.52,3.45-26S53.92,96.69,56.51,88.11Zm78.23,192.58c-4.44-2.94-8.65-5.41-12.51-8.34-7.87-6-15.55-12.17-23.34-18.25a2,2,0,0,0-1.57-.47c-2.89,1.31-4.47,6-3.24,9a20.63,20.63,0,0,0,5.5,7.29c3.57,3.21,7.33,6.22,11,9.32,4,3.35,7.86,6.78,12.68,8.89,1.79,0.78,3.87,1.42,5.34,0A93.72,93.72,0,0,0,134.74,280.69ZM46.87,164.62a7.62,7.62,0,0,0-5,9.47c1,3.31,1.85,6.66,3.13,9.85,2.77,6.93,5.62,13.84,8.71,20.63,3.27,7.18,6.75,14.27,10.33,21.31A62.39,62.39,0,0,0,69,233.42a1.82,1.82,0,0,0,1.72.27c1.9-1,3.72-2.13,5.56-3.21C61.36,210.81,50.85,189.17,46.87,164.62Zm-8.47,31,8.08,16.68L50,211.12l-7.58-18Z"/><path class="cls-1" d="M243.2,256.19a102.81,102.81,0,0,1-31.86,9.27,126,126,0,0,1-38.1-.66c-6.05-1-12-2.65-18-4.2A69.62,69.62,0,0,1,132.47,250a127.12,127.12,0,0,1-16.34-13.35c-6.12-6.09-11.48-12.94-17.22-19.41-4.43-5-7.79-10.7-11.39-16.28s-7.3-11.12-9.84-17.25-4.51-12.25-6.51-18.46a106.6,106.6,0,0,1-4.35-24.42,132.06,132.06,0,0,1,.35-23.22,69.14,69.14,0,0,1,4.37-18.9,108.79,108.79,0,0,1,6.77-13.8,97.46,97.46,0,0,1,7.87-11.86,82.89,82.89,0,0,1,18.06-17c4.48-3.12,9.13-6,13.79-8.82A100.8,100.8,0,0,1,129.1,41.1c7.28-3.26,14.59-6.56,22.41-8.39C158.67,31,165.79,29,173,28a120,120,0,0,1,39.77,1.11A108.07,108.07,0,0,1,228,33.19a101.16,101.16,0,0,1,32.46,18.28,98.17,98.17,0,0,1,18.13,20c2.9,4.34,5.66,8.78,8.14,13.36a139.35,139.35,0,0,1,7.09,14.7c2,5,3.35,10.22,5,15.34,3,9.31,4.55,18.91,5.78,28.57a105,105,0,0,1-.69,33.2,106.57,106.57,0,0,1-7.5,23.83,120.21,120.21,0,0,1-14.58,24.24A101.34,101.34,0,0,1,262,244.3c-3.82,2.83-7.88,5.35-11.9,7.91C247.87,253.64,245.51,254.87,243.2,256.19Zm-0.71-7.39c1.27-.73,3.5-1.92,5.64-3.27,3.66-2.31,7.44-4.48,10.84-7.13a90.68,90.68,0,0,0,24-28.17c4.83-8.79,9.26-17.7,12.12-27.38a83,83,0,0,0,3.39-20.94,147.2,147.2,0,0,0-3.88-37.54,208.32,208.32,0,0,0-8.27-26.3,88.09,88.09,0,0,0-5.76-11.94c-2.41-4.34-5.1-8.52-7.8-12.68a79.68,79.68,0,0,0-16.28-17.72A94.84,94.84,0,0,0,220.9,36.91a112.8,112.8,0,0,0-24.22-4.08,128.11,128.11,0,0,0-50.82,7.8,134.09,134.09,0,0,0-15.29,7,106.3,106.3,0,0,0-12.87,7.54c-5.29,3.72-10.36,7.79-15.28,12a83.55,83.55,0,0,0-16.31,19,96.54,96.54,0,0,0-7.78,14.49c-3.15,7.61-4.2,15.79-4.77,24-1,13.94,0,27.66,4.07,41.17a176.34,176.34,0,0,0,8.5,22.4,93.42,93.42,0,0,0,5.77,10.22c2.41,3.89,4.9,7.73,7.56,11.45,2,2.78,4.53,5.17,6.42,8a87.34,87.34,0,0,0,19.36,20.9c10.16,7.8,21.34,13.81,33.84,16.93a182.82,182.82,0,0,0,19.37,3.86,108.75,108.75,0,0,0,39.4-2.13A125.62,125.62,0,0,0,242.49,248.8Z"/><path class="cls-1" d="M88.2,224.13a29.43,29.43,0,0,1,2-3.73,19.28,19.28,0,0,1,3.23-3.52c1-.79,1.69,0,1.78,1C95.36,220.08,91.28,224.08,88.2,224.13Z"/><path class="cls-1" d="M222.8,19.38c-0.05,1,.1,1.73-0.18,2.12a1.93,1.93,0,0,1-1.54,0,6.9,6.9,0,0,1-4.41-4.25,1.36,1.36,0,0,1,.1-1.18,1.21,1.21,0,0,1,1.17-.15C219.61,17,221.21,18.24,222.8,19.38Z"/><path class="cls-1" d="M215.47,19.33c1.9,1.49,3.72,2.85,5.43,4.35,0.17,0.14-.33,1-0.52,1.59a28.16,28.16,0,0,1-4.19-2C215.08,22.47,214.16,21.31,215.47,19.33Z"/><path class="cls-1" d="M87.93,214.87c0.8,0,1.54-.18,1.75.07a1.8,1.8,0,0,1,.31,1.6,18.72,18.72,0,0,1-2.58,3.51,2,2,0,0,1-1.85.06,1.82,1.82,0,0,1-.12-1.66A43.35,43.35,0,0,1,87.93,214.87Z"/><path class="cls-1" d="M198.67,134.41c-2.86-6.41-4.3-12.54-3-19.07,1.36-7.09,4.35-13.07,10.71-17.17,4.56-2.93,9.5-4,14.72-4.51a23.72,23.72,0,0,1,12.07,2.1,31.85,31.85,0,0,1,12.2,9.33,26.89,26.89,0,0,1,6.13,15.49,23.16,23.16,0,0,1-5.94,17.4,28.33,28.33,0,0,1-12.73,8.17,33.5,33.5,0,0,1-12.92,1.77c-7.77-.63-14.42-3.54-19.1-10.07C199.9,136.63,199.2,135.28,198.67,134.41Zm2.55-1.57c5.3,11.67,21.64,15.16,32.89,9-0.59-1.44-1.21-2.87-1.78-4.32-0.37-.93-0.06-1.74.93-1.73a2.28,2.28,0,0,1,1.46,1.28,40.59,40.59,0,0,1,1.44,3.88A20.55,20.55,0,0,0,244.87,111c-1.68.52-3.34,1-5,1.53-0.58.17-1.14,0.47-1.32-.58-0.14-.83-0.1-1.4.77-1.69l4.23-1.33c-3.06-8.78-23-15.31-30-10,0.32,0.51.65,1,.94,1.52,0.38,0.67.63,1.27-.34,1.74s-1.36.41-1.82-.54A12.87,12.87,0,0,0,211,99.79a16.44,16.44,0,0,0-7.7,5.62A29.8,29.8,0,0,0,198,121.6c-0.17,2.86,1.18,5.32,1.78,8,0.36,1.58,1,1.24,1.94.77a9.89,9.89,0,0,1,2.66-.93,1.6,1.6,0,0,1,1.12,1,1,1,0,0,1-.84,1.41A24.4,24.4,0,0,0,201.22,132.84Z"/><path class="cls-1" d="M159.46,208.74c-3.93-8.79-4.47-16.28-1.86-24A27.2,27.2,0,0,1,164,173.88c5.17-5.17,11.36-7.5,18.67-6.26a27.5,27.5,0,0,1,18.19,11.65c4.46,6.24,5.47,13.41,4,20.85a26.08,26.08,0,0,1-6.67,13.35,14.42,14.42,0,0,1-3.3,2.55c-2,1.13-4.13,2.05-6.22,3.05a19.23,19.23,0,0,1-10.72,1.6c-1.32-.15-2.71.17-4-0.09a16.83,16.83,0,0,1-9.5-5.45C162.33,212.76,160.51,210.11,159.46,208.74Zm32.74,4.53a8.6,8.6,0,0,0,1.3-.64c4.34-3.15,6.68-7.46,7.85-12.68a24.22,24.22,0,0,0-.79-13.59c-0.32-.93-0.76-1.38-1.81-0.83a11.17,11.17,0,0,1-2.39.87c-1.11.29-1.32-.7-1.43-1.37A1.87,1.87,0,0,1,196,184a25.35,25.35,0,0,1,2.9-.8c-7.86-12.88-20.59-14-26.33-11.1l0.86,3.1-1.8.87-1.41-2.91c-9.56,5.26-13.84,21.42-9.69,29.45a16.72,16.72,0,0,1,2.87-.89,1.72,1.72,0,0,1,1.47.74c0.19,0.55.7,1.62-.82,1.66a14.2,14.2,0,0,0-2.88.66c5.47,14.44,19,16.37,28.64,9.75l-1-3.28C190.64,210.29,190.64,210.29,192.2,213.26Z"/><path class="cls-1" d="M278.06,97.35c-2.47.93-4.12,1.53-5.76,2.18-3.54,1.42-7.09,2.83-10.6,4.32-2.78,1.18-3.95.54-4.3-2.35-0.16-1.31.5-1.8,1.5-2.27,2.48-1.16,4.92-2.42,7.42-3.57,4-1.82,8-3.56,11.93-5.38,1.65-.75,2.42.51,3.28,1.41s0.59,1.84-.27,2.65Z"/><path class="cls-1" d="M100.16,180.08c2.41-1.17,4.81-2.37,7.24-3.49a20.8,20.8,0,0,1,3.83-1.46,2.14,2.14,0,0,1,1.89.62c0.44,1.18,2.14,2.16.93,3.69a6.71,6.71,0,0,1-2.15,2c-5.29,2.46-10.65,4.75-15.94,7.2-1.54.72-2.12-.19-2.52-1.24s-1.17-2.56.39-3.51c2.1-1.28,4.26-2.46,6.39-3.69Z"/><path class="cls-1" d="M228.71,229.39c-1.07-2.59-2.18-5.41-3.4-8.19-0.44-1-.15-1.45.74-2,3-1.65,4-1.36,5.55,1.75,0.82,1.67,1.66,3.34,2.43,5,1.65,3.63,3.25,7.28,4.87,10.92a1.86,1.86,0,0,1,.24.87,15.94,15.94,0,0,1-3.48,2.12c-0.42.15-1.49-.74-1.87-1.39C232.06,235.62,230.47,232.59,228.71,229.39Z"/><path class="cls-1" d="M146.06,59.94c-1.4-3.71-2.9-7.38-4.15-11.14-0.3-.9.1-2.92,0.38-3,1.37-.2,2.63-1.8,4.34.07s2,4,2.91,6c1.34,2.88,2.19,6,3.25,9a22.32,22.32,0,0,1,1.07,3.2c0.31,1.71-1.38,1.57-2.25,2s-1.94.63-2.54-.65c-0.89-1.9-1.82-3.78-2.74-5.67Z"/><path class="cls-1" d="M239.47,57.49a7.43,7.43,0,0,1,.1,2.13c-1,3-2.1,6.07-3.21,9.09a1.09,1.09,0,0,1-.89.55,23.22,23.22,0,0,1-3.67-.84,1.44,1.44,0,0,1-.5-1.27c0.71-3,1.4-6.11,2.35-9.09a2.84,2.84,0,0,1,2.14-1.54A14.1,14.1,0,0,1,239.47,57.49Z"/><path class="cls-1" d="M191,248.37L185.73,247c0.5-3.19.9-6.3,1.51-9.37,0.45-2.25,2.23-1.55,3.64-1.26s2.59,0.77,2.15,2.64C192.33,242.08,191.69,245.12,191,248.37Z"/><path class="cls-1" d="M109.85,100.83c-3.1-.75-5-3.12-6.88-5.39-0.27-.33.28-1.57,0.71-2.22,1.88-2.88,2.6-2.92,4.93-.47,1,1,1.9,2.14,2.91,3.14,0.85,0.83,1.07,1.54.17,2.5A26.72,26.72,0,0,0,109.85,100.83Z"/><path class="cls-1" d="M92.72,142.06a11.1,11.1,0,0,1-1.72,0c-2-.27-4-0.52-5.9-1-0.49-.11-0.82-0.94-1.2-1.45a0.76,0.76,0,0,1,0-.37c0.46-3.73,1.05-4.17,4.9-3.66l1.67,0.22a4,4,0,0,1,3.06,5.22A3.94,3.94,0,0,1,92.72,142.06Z"/><path class="cls-1" d="M186.81,52.52c0.13-.06.07,0,0,0-4.93.55-5,.55-4.52-4.42a22.78,22.78,0,0,1,1.28-4.33,0.48,0.48,0,0,1,.21-0.29,21.88,21.88,0,0,1,4.1.51,1.79,1.79,0,0,1,1.31,2.48c-0.42,1.12-.87,2.24-1.31,3.36Z"/><path class="cls-1" d="M137.33,230.84c-4.84-3-4.85-2.59-1.44-7.08,2.09-2.74,3.71-2.93,6.35-.81,1,0.78.74,1.62,0.07,2.46-0.27.34-.49,0.73-0.78,1C140.14,227.94,138.73,229.4,137.33,230.84Z"/><path class="cls-1" d="M275.67,145.3c0.81,0.08,1.55.1,2.26,0.23,1.35,0.25,2.68.58,4,.85a1.5,1.5,0,0,1,1.49,1.75c-0.17,4.63.38,3.64-3.63,3.74-0.37,0-.75,0-1.12,0-3.95-.18-5-1.68-3.77-5.46A4.67,4.67,0,0,1,275.67,145.3Z"/><path class="cls-1" d="M265.94,205c-1.67-1.28-3.46-2.51-5.06-4-0.42-.38-0.25-1.42-0.34-2.15a0.34,0.34,0,0,1,.09-0.16c2.16-3.74,2.73-3.8,5.8-.67s3,3.35.27,6.58A3.76,3.76,0,0,1,265.94,205Z"/><path class="cls-1" d="M207.11,111.55c0.64-1.43,1.45-1.65,2.47-1.09,2.62,1.46,5.24,2.9,7.83,4.42,1.67,1,3.26,2.11,4.9,3.15a5.27,5.27,0,0,0,.83.37c0.72,0.3,2,.51,2.07.91a6.78,6.78,0,0,1-.35,3.34c-1.58,4.19-3.26,8.34-5,12.47-0.67,1.59-1.43.33-1.76,0.16l4.28-14.6Z"/><path class="cls-1" d="M121.88,129.81c-2.6-5.83-3.91-11.4-2.77-17.34,1.24-6.44,4-11.89,9.74-15.61,4.14-2.66,8.63-3.65,13.38-4.1a21.57,21.57,0,0,1,11,1.91,28.92,28.92,0,0,1,11.1,8.48,24.43,24.43,0,0,1,5.58,14.08,21,21,0,0,1-5.4,15.82,25.76,25.76,0,0,1-11.58,7.43,30.41,30.41,0,0,1-11.74,1.61c-7.06-.58-13.11-3.22-17.36-9.15C123,131.82,122.37,130.6,121.88,129.81Zm2.32-1.43c4.82,10.61,19.67,13.79,29.91,8.2-0.54-1.31-1.1-2.62-1.62-3.93-0.33-.85-0.06-1.59.84-1.58a2.1,2.1,0,0,1,1.33,1.16,36.76,36.76,0,0,1,1.3,3.53,18.68,18.68,0,0,0,7.92-27.22l-4.55,1.39c-0.53.16-1,.42-1.2-0.52-0.13-.76-0.09-1.28.7-1.54l3.85-1.21c-2.78-8-20.87-13.92-27.24-9,0.29,0.46.59,0.91,0.85,1.38s0.57,1.15-.31,1.58a1,1,0,0,1-1.65-.49,12.18,12.18,0,0,0-1.27-1.76,15,15,0,0,0-7,5.11,27.1,27.1,0,0,0-4.85,14.72c-0.15,2.6,1.07,4.84,1.62,7.25,0.33,1.44.87,1.13,1.77,0.7a8.89,8.89,0,0,1,2.42-.85,1.45,1.45,0,0,1,1,.91,0.87,0.87,0,0,1-.76,1.28A22.16,22.16,0,0,0,124.2,128.38Z"/><path class="cls-1" d="M129.56,109c0.58-1.3,1.32-1.5,2.25-1,2.38,1.33,4.77,2.64,7.12,4,1.52,0.9,3,1.92,4.46,2.87a4.72,4.72,0,0,0,.75.34c0.66,0.27,1.82.46,1.88,0.83a6.17,6.17,0,0,1-.32,3c-1.44,3.81-3,7.59-4.55,11.34-0.61,1.45-1.3.3-1.6,0.14l3.9-13.27Z"/><path class="cls-1" d="M181.13,195.78c-4-2.86-7.88-5.55-11.68-8.32a1.61,1.61,0,0,1-.58-1.38,1,1,0,0,1,1.81-.43c1.77,1.28,3.62,2.47,5.44,3.69,2.17,1.44,4.29,3,6.53,4.28a1.71,1.71,0,0,1,.83,2.59c-1.44,2.81-2.92,5.6-4.39,8.39-0.52,1-1.11,1.92-1.57,2.91-0.29.63-.47,1.35-1.34,0.94a1.29,1.29,0,0,1-.63-1.92c0.88-1.75,1.74-3.5,2.65-5.24C179.19,199.4,180.22,197.5,181.13,195.78Z"/><path class="cls-1" d="M181.37,144.14c-1.77.65-3.39,1.22-4.93,1.9-7.18,3.15-14.46,6.1-21.47,9.6-8.49,4.24-17.66,7.22-25,13.55a48.54,48.54,0,0,0,3.15-4.38c0.33-.61-0.11-1.82-0.46-2.65a2.16,2.16,0,0,0-1.71,0c-3.51,1.59-5.7,4.5-7,8.13a5.41,5.41,0,0,0,4.24,7.27,18.1,18.1,0,0,0,10.82-1.74c1.3-.6,1.12-1.62.69-2.66s-1.27-1.28-2.41-.86a11.33,11.33,0,0,1-6.86.79l2.09-1,51.92-25.15,0.54-.25,0.7,0.49c8.21,5.56,15.74,12.34,25.07,15.93a48.7,48.7,0,0,0-5.37-.73c-0.69,0-1.45,1-1.94,1.66a2.49,2.49,0,0,0,.9,1.55,13.87,13.87,0,0,0,10.62,2.4c3.39-.5,5.1-3.87,3.68-7.21a21,21,0,0,0-7.42-8.82c-1.21-.88-2-0.23-2.58.64s-0.36,1.74.62,2.55a13.15,13.15,0,0,1,4.44,5.74l-2-1.39C195.13,148,185.26,141.37,181.37,144.14Z"/></svg>