<svg id="Слой_1" data-name="Слой 1" xmlns="http://www.w3.org/2000/svg" width="387.19" height="354.68" viewBox="0 0 387.19 354.68">
    <defs>
        <style>
            .cls-1{fill:#fff;fill-rule:evenodd}
        </style>
    </defs>
    <title>
        calculator
    </title>
    <path class="cls-1" d="M357.33 208c-5.35 3.39-10.73 6.73-16.06 10.17-13 8.37-25.89 16.9-39 25.15-25.6 16.13-51.35 32-76.94 48.19-17.25 10.9-34.3 22.14-51.54 33.07C161 332.73 148 340.66 135 348.57a61.08 61.08 0 0 1-10.38 5.37c-4 1.47-8 .68-11.58-1.62a51.73 51.73 0 0 1-5.66-4 21.42 21.42 0 0 1-4-4.32c-5.69-8.53-11.28-17.12-16.86-25.72-8.15-12.55-16.39-25.06-24.37-37.72q-28.1-44.6-55.9-89.39C4 187.31 3 182.62 1.26 178.37a16.91 16.91 0 0 1-.7-10.75c.83-3.34 3.16-5.62 5.8-7.46q8.71-6.07 17.69-11.78 50.84-32.5 101.75-64.9c5.59-3.56 11.37-6.83 17-10.38 26.81-17.1 53.6-34.25 80.49-51.26 9.18-5.8 18.52-11.36 27.92-16.79A34.42 34.42 0 0 1 268.52 0c5.17 0 10 1.87 14.48 4.33 4 2.15 6.37 5.65 8.72 9.35q34.6 54.45 69.28 108.83c4.75 7.47 9.29 15.09 13.81 22.71 1.83 3.08 3.26 6.4 5 9.54 1.33 2.38 3 4.59 4.32 6.94A22.84 22.84 0 0 1 387 176a23.87 23.87 0 0 1-5.36 13.29 61.15 61.15 0 0 1-9.52 9.22c-4.66 3.49-9.83 6.38-14.79 9.49zM110.09 345.59c2.44 2.77 5.08 5.18 9.33 3.85a5.27 5.27 0 0 1 .9.16c3.05-.2 6.21.83 9.11-1.22 3.32-2.33 6.87-4.33 10.26-6.55 6.39-4.18 12.66-8.55 19.12-12.61q59.32-37.33 118.68-74.58c17.1-10.79 34-21.87 51-32.77 3.17-2 6.55-3.72 9.77-5.68 4.42-2.7 8.76-5.52 13.14-8.28l9.68-6.12-3.61-1.87.3-.71c1.25.49 2.5 1.36 3.75 1.36s2.63-.85 4.29-1.45l-2.66-2c2.28.4 4.53 1.85 6.18-.76l-2.78-2.49c4.84 1.58 4.84 1.58 7.34-1.08l-4.59-2.47.41-.87c1.12.52 2.2 1.12 3.35 1.52s2 1.81 3.25.59c.87-.81 1.67-1.71 2.6-2.68-1.59-1-3-1.9-4.35-2.76s-2.08-.48-3.11.77a50.16 50.16 0 0 1-5.35 4.89l-1-.77a18.64 18.64 0 0 1 1.48-2.6c2.47-3.09 5.76-5.78 7.37-9.25 3.58-7.73 1.55-15.14-3.12-21.94-1.33-1.95-2.86-3.77-4.12-5.76Q332.56 97.43 298.4 43.33c-1.6-2.53-3-5.21-4.4-7.84a2.79 2.79 0 0 1 0-1.12c2.77 3 6.58 2 10 3.51-1.59-3.65-3.3-6.41-7.36-6.49a25.54 25.54 0 0 1-3.48-.53l.11-.74 6.62.8c-1.25-2-2.29-3.76-3.49-5.42a3.14 3.14 0 0 0-1.8-.93c-2.22-.49-4.48-.87-6.61-1.28l.58 2.35a4.13 4.13 0 0 1-1.18-.67c-1.72-2.36-3.45-4.72-5.09-7.14a21.13 21.13 0 0 0-11.5-8.47c-2.49-.78-5.23-.76-8.13-1.13a8.33 8.33 0 0 1 2.76-.85 27.36 27.36 0 0 1 6.42 1c3.4 1.13 6.7 2.71 9 5.59a3.78 3.78 0 0 0 3.1 1.76c1.73.06 3.46.15 5.3.23-1.8-2.87-3.87-5.12-7.68-4.74a10.78 10.78 0 0 1-2.75-.45l.13-.63 6.47.07c-2-2-2.9-3.89-5.85-3.26-2.54.54-5.28.11-7.93.11l-.09-.55 9.11-.93c-4.45-3.47-9.3-.6-13.86-1.69l5-1.26-.16-.9c-3.35.25-6.9-.12-10 .91A79.81 79.81 0 0 0 248 9c-3.87 2.17-7.39 5-11.09 7.46q-7.84 5.27-15.74 10.54c-6.95 4.59-13.87 9.23-20.88 13.71-12.5 8-25.07 15.9-37.61 23.84-3 1.87-5.92 3.72-8.86 5.61q-8.56 5.49-17.11 11c-9.5 6.12-18.93 12.35-28.5 18.36q-33 20.71-66 41.23c-10.09 6.28-20.26 12.43-30.36 18.7A48.83 48.83 0 0 0 7.36 163h5.05v.92c-1.59.14-3.17.38-4.76.4-2.3 0-3.33 1.17-3 3.45l3.57.21c0 .27 0 .55-.05.82a16.59 16.59 0 0 1-3.05 0c-1.87-.36-1.88.92-1.9 2.05-.08 3.92.35 4.37 4.55 5.21.63-7.51 7-15 14.45-16.67a7.39 7.39 0 0 1-.82 1.13c-2.94 2.62-6 5.16-8.85 7.85-1.89 1.76-3 7.09-1.92 9 3.5 6.46 7.06 12.88 10.54 19.34.74 1.36 1.25 2.85 2 4.51l-6.88-.88c1.67 4.6 5 6.8 9.75 7.06l-.36.81-4.49-.49c1.69 4.1 3.91 7.28 9.11 5.71a1.3 1.3 0 0 1 .7.57c2.3 3 4.8 6 6.84 9.16 11.38 17.74 22.72 35.53 33.86 53.44 7 11.17 14.81 21.83 20.27 33.9l-.41 1-5.56-2.24-.25.76c1.68 2.67 3.33 5.36 5.09 8a4.23 4.23 0 0 0 1.81 1.18c1.52.67 3.08 1.25 4.63 1.86l-.27.76-4.68-1.37c1.49 2.37 2.74 4.41 4.08 6.4a2.93 2.93 0 0 0 1.5 1.23c2.44.55 4.93.87 7.36 1.45a3.82 3.82 0 0 1 1.89 1.42c1.54 2 2.89 4.13 4.49 6.07.57.69 2.16.83 2.35 1.48.73 2.51 2.94 2.47 4.67 2.88 4.84 1.14 9.24-.43 13.35-2.9 3.11-1.87 6.12-3.91 9.24-5.77a4.94 4.94 0 0 1 2-.18 5.31 5.31 0 0 1-.68 1.92 30.68 30.68 0 0 1-17.7 9.59c-4.62.75-9.12.34-12.74-3.24a6.48 6.48 0 0 0-4.77-2.15 25.59 25.59 0 0 1-3.7-.48c.32 2.62 3.87 5.78 6.62 6s5.62.52 8.43.78v1zM301.44 44.47c1.73 3.5 1.74 3.44 5.68 4.2a43.39 43.39 0 0 1 4.39 1.33l-.25.92-6.46-1.3c1.75 5.77 7 6.24 11.61 8.16a2.68 2.68 0 0 0-.09-.74c-2-3.14-4-6.24-5.89-9.41a3.56 3.56 0 0 0-3.33-2.16 34.41 34.41 0 0 1-5.66-1zm-260.22 195c3.42 6.79 5 9.8 9.75 9.81a58.08 58.08 0 0 0-2.74-5.47c-1.9-3-4.28-5.69-5.93-8.78-1.37-2.55-3.3-3.07-6.05-3.14 2.29 2.66 2.71 6.64 6.77 7.41zM378.07 170a28.4 28.4 0 0 0-.32 4.72 2.92 2.92 0 0 0 1.54 1.81 44.8 44.8 0 0 0 4.63 1.76 67.62 67.62 0 0 0 0-8.92c-.32-2.64-4.6-4.72-7.18-4.41-.05 3.51 2.35 4.52 5.26 5.11a5.19 5.19 0 0 1 1.71 1.29l-.32.52zm4-4.93c-.06-5.2-5.72-10.83-12.18-12.46l6 10.76zm-4.56 11.74l-1.32 3.52c1.76 1.47 4.57 1.45 5 4.31l-5.59-3.41a5.18 5.18 0 0 1-.68 1.37c-1.35 1.3-1.44 2.07.6 2.81a26 26 0 0 1 4.38 2.57c2.37-1.61 2.48-4.45 3.29-6.94a1.86 1.86 0 0 0-.23-1.63c-1.65-.91-3.38-1.64-5.44-2.6zm-60-106.24c1.71 2.25 2.94 4.89 5 6.32s4.93 1.61 7.63 2.4c-2.56-5.47-5.23-10.29-12.62-8.71zm32.53 40c-1.62-2.56-2.46-5.21-4.26-6.41-2.39-1.59-5.54-2.06-8.75-3.15 1.89 2.72 3.17 5.66 5.38 7.4 1.83 1.46 4.78 1.45 7.64 2.19zM6.62 183.39c-.47 6.29 3.5 8.31 8.79 8.66-.63-4.99-3.41-8.21-8.79-8.66zM323.4 78.89c1.88 5.81 6.24 7.84 12 8.25-.78-1.24-1.42-2.36-2.17-3.4s-1.35-2.3-2.33-2.69a70.66 70.66 0 0 0-7.5-2.16zM98.27 329.34c2.87 6.52 5.6 8.42 10.08 7.19a21.71 21.71 0 0 0-1.7-3.73 6.6 6.6 0 0 0-2.8-2.53 30.43 30.43 0 0 0-5.58-.93zm245.27-219.07c1.6 5.71 5.45 8 11.33 7.68-1.08-1.7-1.73-3.91-3.18-4.76-2.43-1.42-5.37-1.98-8.15-2.92zm5 8c1.13 6.42 6.82 6 11.73 8.15-1.21-1.91-2-3.29-2.92-4.58a4.59 4.59 0 0 0-1.83-1.85c-2.34-.7-4.77-1.16-6.97-1.68zM90 309.3c-.46-.82-.7-1.32-1-1.76a30.27 30.27 0 0 1-2.88-4 6.41 6.41 0 0 0-6.94-3.94c1.67 2.64 3.32 5.25 5 7.84a1.12 1.12 0 0 0 .45.5c1.55.39 3.18.8 5.37 1.36zm263-183.67c1.52 5.43 5.85 7.19 10.74 8.45-2.74-5.86-5.53-7.99-10.74-8.45zm-12.75-30.84c-1.17-1.85-1.92-3.11-2.74-4.31a3.76 3.76 0 0 0-1.44-1.62c-2.59-.77-5.23-1.34-7.51-1.9 1.3 5.61 6.27 6.41 11.69 7.83zm-268 193.83a52.91 52.91 0 0 1 3.72 6c1.38 3.05 3.71 4 7 3.82-3.16-3.74-4.36-9.25-10.74-9.81zm-24.4-38.57a81.19 81.19 0 0 1 4.61 7.41c1.24 2.53 3.06 3.17 5.7 2.8-1.37-2.17-2.86-4.17-4-6.36a6.58 6.58 0 0 0-6.33-3.84zM308 44.49c-1.26-6.2-6.28-6.24-10.81-7.14 1.34 6.07 6.68 5.65 10.81 7.14zm-277.56 178a45.84 45.84 0 0 1 3.16 5.08c1.33 2.87 3.55 3.87 6.86 3.8a46.66 46.66 0 0 1-3.31-5.33c-1.34-2.86-3.44-3.96-6.73-3.51zM333.18 94c1.35 6.11 6.91 6 11.65 8.32-2.92-5.46-3.49-5.84-11.65-8.32zM309 56.53c2.87 5.54 6.31 7.55 11.1 6.21-1.11-1.45-1.88-3.42-3.28-4.08-2.36-1.15-5.15-1.47-7.82-2.13zm-14-33c-3.78-5.6-3.32-5.42-10.93-6.61 1.41 5.61 6.4 5.4 11 6.56zm18.51 40c2.36 4.92 5.73 6.7 10.18 5.67-1.13-5.57-6.12-4.44-10.11-5.69zm52 81.93c1.45 5.78 6.47 6.64 11.07 8.63-6.77-7.15-6.77-7.15-11.04-8.65zM55 261.42a64.89 64.89 0 0 1 3.5 5.58 5.07 5.07 0 0 0 5.63 3.09c-3.27-6.9-4.19-7.82-9.13-8.67zm-29.42-46.67c3.91 6.67 4 6.75 8.34 6.61-2.92-7.24-2.82-6.27-8.34-6.61zm44.9 65a57.71 57.71 0 0 1-3.64-5.86c-1.16-2.49-2.86-3.42-5.48-2.79 3.03 6.23 3.76 6.96 9.11 8.67zm-54.29-86.41l-4.74-.61c1.57 5.11 3.67 6.85 8.06 6.46-.65-1-1.29-2-1.83-2.93s-1.02-1.98-1.49-2.92zm51 86.65c1.32 4.73 4.39 7.63 8.22 7.6-2.25-3.17-3.31-7.53-8.24-7.59zm294.17-141.05c1.3 4.77 5.08 5.8 9.1 6.61-1.34-4.55-5.69-4.84-9.1-6.61zm-3.72-5.68c2.09 4.25 4.88 6.15 9.42 6.28-1-1.37-1.68-3-2.9-3.76a39.73 39.73 0 0 0-6.53-2.52zm-346.7 49.68a23.34 23.34 0 0 1-2-3.21c-1.08-2.66-2.18-3.38-5-3 .98 3.32 2.06 6.55 7 6.21z"/>
    <path class="cls-1" d="M259.77 20.37a10 10 0 0 1 .11 2c-.76 5.17 2.5 8.63 5.12 12.4 3.14 4.55 6.27 9.11 9.23 13.78Q295 81.25 315.64 114c1.64 2.59 3.6 5 5.27 7.54q4.32 6.62 8.47 13.37c6.32 10.22 12.64 20.43 18.85 30.72a105.77 105.77 0 0 1 5.44 10.37c1.29 2.8 3.81 2.62 6.11 3.07a21 21 0 0 0 3 .11 4.37 4.37 0 0 1-1.18 1.24 3.09 3.09 0 0 1-1.8 0c-3.48-1.47-5.74.48-8 2.67a24.23 24.23 0 0 1-3 2.43c-6.32 4.43-12.79 8.64-18.59 13.8-1.81 1.61-3.87 3.32-6.86 3.43-1.07 0-2.22 2.55-3 4.09a29.58 29.58 0 0 0-1.42 5c-1.8-2.54-.62-4.41-.28-6.13.58-3 .36-5.56-1.64-8.05a81.12 81.12 0 0 1-6-8.68 6.57 6.57 0 0 0-4.28-3.33 8.92 8.92 0 0 1-1.91-1l.31-.59 3.13 1.36c-1-4-3.83-5.63-7.38-6.56l.51-.75 3.55 1.38-3.49-5.52a1.54 1.54 0 0 1-.12-.2c-2.38-5-5.66-9-11.63-9.81a4.41 4.41 0 0 1-1.56-1.2l.46-.51a16.9 16.9 0 0 0 1.93.93c1.46.5 3 .91 5.08 1.56-2.42-3.83-4.79-7-6.51-10.43-2.47-5-6.05-8.29-11.53-9.45-.2 0-.37-.18-.44-.8l5.94 1.52a.6.6 0 0 0 .14-.29c-3.48-5.57-6.93-11.15-10.52-16.65a4.35 4.35 0 0 0-2.52-1.24c-2.73-.65-5.42-1.28-7.66-4.05l8.35 3.13.28-.41-1.31-2.07q-11.21-17.72-22.46-35.43a7.78 7.78 0 0 0-2.42-2c-2.32-1.51-4.7-2.94-6.94-4.64 2.75-.44 4.21 2.42 6.64 2.76-2.05-6.14-6.88-8.86-12.87-10.17l.31-.8 7 1.6c-3.24-5.12-6.37-10-9.41-14.92-1.12-1.82-1.87-3.86-3-5.63-1.64-2.47-3.59-4.54-7-4.72a18.29 18.29 0 0 1-4.77-1.38 5.39 5.39 0 0 1-1.22-1.46c5.89 2.8 11.67 1.69 15.89-2.62a10.91 10.91 0 0 1 2-1.52c7.89-5 15.63-10.31 23.78-14.84 3-1.68 3.69-3.67 3.86-6.5 0-.41 0-.82.06-1.23zM224.74 50c1.61 1.6 3.15 2.71 4.14 4.18 3.16 4.71 6.07 9.58 9.16 14.34 1.67 2.57 3.6 5 5.25 7.55q10.06 15.75 20 31.57l52.27 82.64c.41.65.83 1.3 1.2 2 1.43 2.61 2.84 5.23 4.4 8.11l32.69-20.68-95.49-151L245.2 37z"/>
    <path class="cls-1" d="M133.7 317.33c-3.93-4.81-9.85-1.62-14-4.75l8.74.92c-1.46-2.46-2.21-2.79-7-3.51a45.73 45.73 0 0 1-5.19-1.39c.06-.2.12-.41.19-.61l8.67 1.4c-.86-2.42-2.08-3.63-4.52-3.91a27.47 27.47 0 0 1-6.23-2l7.78 1.61.29-.8a1.41 1.41 0 0 1-.49-.5c-.44-3.26-2.7-3.83-5.46-3.92a10.7 10.7 0 0 1-2.82-.9l.22-.58 6.64.68.41-4-8.08-1.07c0-.23 0-.47.07-.7 2.13 0 4.26 0 6.38.06 2.28.1 2.62-.23 2.44-2.48l-4.22-.71v-.74c1.2 0 2.4-.16 3.59-.08 1.42.1 2.34-.1 3-1.66.46-1.06 1.88-1.69 2.83-2.55.6-.54 1.13-1.16 1.86-1.92h-5.93c0-.21 0-.41-.07-.62 4.26-1.42 9.62.39 12.79-4.15l-6.72.58c0-.37 0-.73-.08-1.1 2.71-.22 5.41-.46 8.11-.66 3.09-.23 5.06-2.37 7.23-4.26l-2.21.15-.27-.67c4.13-.86 8.44-1.34 11.42-4.79h-4.95c0-.26-.07-.52-.1-.79 4.78-.31 9.71-.12 14-4.19l-5.9.52-.21-.62c1.6-.39 3.19-.8 4.79-1.18a41.75 41.75 0 0 0 6.12-1.48c3-1.2 5.74-2.83 8.62-4.21 1.63-.78 3 0 4.45.77a14.94 14.94 0 0 1 5.61 4.71c2.56 3.57 5.68 6.72 8.31 10.24 3.5 4.67 5.44 8.82 1.71 14.46a15.24 15.24 0 0 1-4.2 4.06c-4.54 3.06-9.26 5.86-13.86 8.84-9.12 5.91-18.12 12-27.34 17.74-3.16 2-6.92 4.14-10.6 3.25-4.33-1.06-8.62-1.17-12.95-1.51a2.18 2.18 0 0 1-.82-.8 3 3 0 0 1 1.08-.47c2.17-.04 4.35.14 6.87.29zm39-19.93c5.68-3.59 11.42-7.08 17-10.8 4.64-3.1 5.63-7.17 2.66-11.75a116.35 116.35 0 0 0-10.23-13.44c-1.25-1.43-4.28-2.91-5.66-2.34a118.84 118.84 0 0 0-15.83 8.17c-9.38 5.67-18.55 11.68-27.83 17.51a24.82 24.82 0 0 0-6.55 5.58 10.53 10.53 0 0 0-2 10.31 26 26 0 0 0 9.09 13.36c2.32 1.79 5.15 3.69 8 2.86 3.45-1 6.67-3 9.79-4.88 2.32-1.41 4.2-3.52 6.47-5 4.96-3.3 10.03-6.4 15.05-9.58z"/>
    <path class="cls-1" d="M23.47 157.29a13.73 13.73 0 0 1 1.41-1.21c8.38-5.5 16.7-11.09 25.16-16.45Q141 82 232.05 24.51c3.57-2.26 7.3-4.27 11-6.38a1 1 0 0 1 1 .17c-.48.38-.93.81-1.44 1.13-3.9 2.51-7.83 5-11.72 7.49-6.78 4.42-13.52 8.89-20.29 13.31-9.29 6.08-18.6 12.18-27.9 18.17-3.17 2-6.54 3.75-9.77 5.71-1.16.71-2.09 1.8-3.24 2.53q-31.63 20.06-63.3 40.06-10.52 6.64-21.09 13.21c-12.18 7.58-24.39 15.09-36.57 22.72-8.23 5.14-16.41 10.37-24.61 15.55z"/>
    <path class="cls-1" d="M165.63 322.94a5.73 5.73 0 0 1 .9-1.33c3.08-2.17 6.11-4.42 9.29-6.43q81.09-51.34 162.18-102.6c3.18-2 6.51-3.78 9.78-5.63a8.57 8.57 0 0 1 1.68-.39 10.35 10.35 0 0 1-1 1c-6 4-11.86 8-17.9 11.87q-65 41.42-130 82.75c-7.09 4.51-14.33 8.79-21.55 13.09-4.22 2.54-8.63 4.97-13.38 7.67z"/>
    <path class="cls-1" d="M88.2 165.76l-7.66-2.84c0-.22.05-.43.08-.65l4.57.53c-.45-1.76-1.62-2.59-3.65-2.58a16.85 16.85 0 0 1-3.55-.73l.13-.6h4.58c-.81-2.3-2.07-3.43-4.48-3.36-1.16 0-2.36-.79-3.54-1.23l.23-.6 4.79.74c-.4-4.19-5.09-2-6.72-5l4.92.88c-1.32-3.78-5.2-2.11-7.44-4.14l5 .15c-.93-1.68-1.52-3.22-3.93-3.17-1.25 0-2.52-1-3.79-1.55l.21-.53 4.72.93a12.63 12.63 0 0 1-.5-1.92c-.16-1.48-.79-2-2.38-1.93a11.8 11.8 0 0 1-3.36-.77l.17-.85 4.4.69c1.95-2 3.35-4.15 5.3-5.38 4.58-2.88 9.38-5.44 14.2-7.94 2.24-1.16 6.1-.11 7.77 2.24 2.94 4.14 5.26 8.7 7.92 13 .71 1.16 1.79 2.09 2.5 3.26 2.26 3.72 5 7.28 5.64 11.69a6.19 6.19 0 0 1-1.58 4.84 112.37 112.37 0 0 1-11.42 8.42 31.17 31.17 0 0 1-6.58 3 3.08 3.08 0 0 1-2.73-.39c-2.06-2.39-5-2.11-7.58-2.84a1.46 1.46 0 0 1-1-1.08l4.43.34zm-6.52-34.65c-2.21 1.4-4.06 2.51-5.85 3.71s-2 2.64-1 4.46c1.5 2.58 2.89 5.22 4.42 7.78q5.42 9.11 10.94 18.16c1 1.65 3.7 2.23 5.43 1.51a43.19 43.19 0 0 0 11.6-6.8c3.85-3.24 5.48-5.07 2-9.71-2.74-3.7-5.29-7.53-7.77-11.41-1.77-2.77-3.21-5.75-4.93-8.55-1.51-2.46-3.64-3.32-6.71-3.05-3.46.31-5.67 2.79-8.13 3.9z"/>
    <path class="cls-1" d="M96.14 187.54l5.57.72.34-.48a14.29 14.29 0 0 0-2.8-2.13 11.31 11.31 0 0 0-3.2-.44v-.84l3.81-.58c-1.19-3.44.66-5.44 3.42-7.12 4-2.4 7.9-4.84 11.74-7.44 3.55-2.4 9.47-2.47 12.1 2.29 2.23 4.05 4.64 8 7 12 .51.85 1.27 1.54 1.76 2.4 2 3.44 4 6.88 5.84 10.38s-.1 6.21-2.51 8a161.18 161.18 0 0 1-14.89 9.48 5.05 5.05 0 0 1-5.94-.63c-.8-.64-2.15-.64-3.27-.82a14.64 14.64 0 0 0-2.2-.05c0-.21-.06-.41-.08-.62l3.25-.72.28-.43a24.36 24.36 0 0 0-3.2-1.23 37.62 37.62 0 0 0-3.92-.56v-.75l4.4.09c-1.37-4.48-6.13-1.94-9-4.79l6.62.42c-2.48-3.07-6.08-1.7-8.66-3.06v-.68l6 .06c-.63-1.93-1.51-3.24-3.81-2.93a5 5 0 0 1-2-.71l.16-.59 3.65.06c-.82-1.87-1.5-3.34-4-2.87-1.25.24-2.71-.69-4.08-1.08.07-.23.13-.46.19-.69l5.4.62a3.1 3.1 0 0 0-3.35-2.29c-1.46-.08-3.4.03-4.62-1.99zm18.85 17h.06c1 1.57 1.77 3.35 3 4.63.94.93 2.73 1.92 3.83 1.64a30.76 30.76 0 0 0 15.52-9.14c1.78-1.95 2-3.71.51-6s-3.39-4.55-4.88-7c-2.92-4.7-5.63-9.52-8.52-14.24-1.58-2.57-5.05-4.36-7-3.47a113.54 113.54 0 0 0-11.65 5.79 11 11 0 0 0-4.12 4.65c-.35.76 1.41 2.46 2.16 3.76q5.58 9.74 11.1 19.43z"/>
    <path class="cls-1" d="M87.84 253c-1.59-4.11-.16-6.32 3.09-8.61a95.81 95.81 0 0 1 11.17-7c5.59-2.89 9-3.37 13.3 2.63 2.44 3.43 4 7.49 6.11 11.14 2.39 4.08 5 8 7.57 12a5.78 5.78 0 0 1-1.23 8.16c-5.48 3.9-11.26 7.4-17.07 10.8a4.09 4.09 0 0 1-3.83-.61c-2-2-4.52-1.76-6.77-2.63a10.88 10.88 0 0 1-3.55-2.14l7.08 1.89c-1.58-4.94-6.54-5-9.63-7.52-.8-.67-1.63-1.3-2.45-2l.29-.57 7.17 4a5.87 5.87 0 0 0-3.87-5.15c-2.61-.8-5.14-1.86-7.7-2.8l.26-.78 7.77 2.82c-.59-5.31-5.66-4.53-8.53-6.55l.2-.66 5.44 1.46c-.69-2.16-2-3-5.38-3.72-1.4-.29-2.75-.82-4.13-1.24l.24-.88 6.55 2c-.42-1.91-.9-3.2-3-3.1-1.34.07-2.72-.71-4.07-1.12 0-.28.1-.56.15-.84zm30.94 21.61l-.07-.13c1-.66 2.12-1.27 3.12-2s2-1.6 3-2.44c1.61-1.37 2.31-4.68 1.17-6.46s-2.66-3.34-3.82-5.12c-2.24-3.44-4.39-7-6.51-10.48-1.29-2.16-2.17-4.64-3.78-6.51s-4.05-3.37-6.89-2.47a21.33 21.33 0 0 0-4.54 2c-3.45 2.09-6.87 4.23-10.16 6.56a2.16 2.16 0 0 0-.34 3.21c1.28 1.74 2.38 3.61 3.49 5.46 2.15 3.62 4.25 7.26 6.36 10.9 1.69 2.92 3.23 5.92 5.05 8.75s4.46 3.58 6.85 2.43 4.71-2.47 7.08-3.72z"/>
    <path class="cls-1" d="M135.77 249l3.6-.39.23-.68c-1-.4-2-.83-3.09-1.17s-2.4.49-2.94-1.39l3.72.4c-.6-4.71-4.33-4.62-7.78-4.94 0-.28.09-.56.14-.83h4.68l.28-.8a33.15 33.15 0 0 0-3.61-1.59 33.17 33.17 0 0 0-3.88-.77l.11-.89 5.94.71c-1.54-1.33-2.54-2.64-3.86-3.21s-3.06-.48-4.6-.67v-.72h4.76c-.46-2.7-2.94-2.39-4.87-2.91l.08-.65 2.48-.21a13.11 13.11 0 0 1-.57-3.72 6.77 6.77 0 0 1 3.2-4.84q5.83-3.8 11.75-7.44c4.18-2.58 7.73-2.76 10.72 0a34.74 34.74 0 0 1 4.95 6.67c2.16 3.31 4.16 6.72 6.21 10.1 2.35 3.86 5.18 7.57 5.87 12.11a6.16 6.16 0 0 1-2 5c-5.5 3.88-11.3 7.33-17 10.91a2.25 2.25 0 0 1-1.53.32c-2.7-.65-5.37-1.39-8.73-2.29l3.68-.71c-.73-2.71-3.64-.54-5.12-2.24l2.82-.51c-.95-2.7-3.96-.87-5.64-2.65zm6.5-1.27h.06a33.52 33.52 0 0 1 2.2 3.53 4.08 4.08 0 0 0 5.11 2.38 23.81 23.81 0 0 0 6.22-2.69c2.88-1.74 5.58-3.77 8.31-5.75a4.73 4.73 0 0 0 1.13-6.22c-1.5-2.3-3.31-4.42-4.75-6.76-3-4.9-5.88-9.92-8.89-14.83-1.86-3-3.81-3.86-7.17-3.13a29.73 29.73 0 0 0-12.8 6.83c-3.36 2.85-3 3.05-.76 6.92 3.85 6.49 7.57 13.11 11.34 19.71z"/>
    <path class="cls-1" d="M150.13 116.59l4.44.58c.07-.3.15-.61.22-.92l-5.86-2 .13-.53 3.94.41c-.83-3.6-4.32-1.7-6.43-4h4.29c-.47-.75-.9-1.34-1.25-2-.75-1.42-1.52-2.43-3.5-1.92-1 .26-2.23-.4-3.36-.64l.13-.72 4.41-.08c-.91-3.22-3.89-2.17-5.8-3.18-.44-.23-.84-.53-1.26-.8a8.66 8.66 0 0 1 1.46-.2c1 0 1.95.13 2.92.21l.36-.64a27.5 27.5 0 0 0-3.32-1.86 22.48 22.48 0 0 0-3.44-.83l.18-.77 4.21.49c-.23-1-.52-1.91-.66-2.86-.54-3.54 2.17-5.34 4.41-6.81a146.39 146.39 0 0 1 14-7.85c3.21-1.64 7.26.23 9.72 3.8s4.12 7.5 6.18 11.25c.55 1 1.32 1.91 1.9 2.91a124.38 124.38 0 0 1 6.46 11.53 4.88 4.88 0 0 1-1.73 5.52 154.2 154.2 0 0 1-13.09 9.29c-2.34 1.42-5.2 3.41-8.19 1.23a13 13 0 0 1-3.6-3.94 5.39 5.39 0 0 0-4.78-3 13 13 0 0 1-3.3-1.18zm1.54-29.75L146 90.41l-.19.13a3.51 3.51 0 0 0-1 5c1.3 1.84 2.46 3.78 3.63 5.71 3.83 6.31 7.62 12.64 11.45 18.95a4.8 4.8 0 0 0 5.4 2.22c.79-.15 1.48-.84 2.27-1 5.12-1.31 8.66-5.07 12.47-8.28a3.75 3.75 0 0 0 .54-5.36 129.22 129.22 0 0 1-7.71-10.52c-2.35-3.73-4.18-7.79-6.37-11.63-1.31-2.3-3.58-2.79-6.21-2.74-3.71.05-6.02 2.71-8.61 3.95z"/>
    <path class="cls-1" d="M238.74 253.92l2.67-.36c-1-2.94-4.55-1.27-6.46-3.5l4.33.58c-.64-2.75-2.66-3.12-4.64-3.7a16.11 16.11 0 0 1-2.94-1.53c1 .09 2 .21 3 .26a10.93 10.93 0 0 0 1.51-.13 4.25 4.25 0 0 0-1.15-1.12c-1.43-.53-2.94-.85-4.36-1.38a12.5 12.5 0 0 1-2.1-1.28l.37-.71 5.46 1.47c-1.38-2.41-1.95-4.52-4.86-4.5-1.42 0-2.84-.81-4.26-1.26l.17-.9 5.13 1.1c-1.18-3.78-2.29-4.5-7.32-4.72l.18-1.36 3.52.12c-.51-3.28-3.65-2.92-5.7-4l.2-.63h3.28c-1.17-4.09 1.75-6.16 4.47-8a124.38 124.38 0 0 1 13.1-7.72c3.84-1.92 7.73-.44 10.6 3.78 2.35 3.45 4 7.38 6.05 11 .75 1.31 2 2.34 2.75 3.66a89.82 89.82 0 0 1 5.47 10.91c.5 1.29-.24 3.63-1.22 4.81a28.94 28.94 0 0 1-5.89 5c-2.78 1.95-5.71 3.68-8.6 5.48s-5.43 2.24-8.4.17c-1.11-.77-2.87-.6-4.34-.86 0-.29-.01-.48-.02-.68zm-12.5-29.73c1.73 2.74 3.34 5.21 4.88 7.73 3.88 6.38 7.69 12.8 11.6 19.16 1.1 1.78 2.78 2.83 4.93 2.15 5.73-1.81 10.86-4.62 14.84-9.29 1.77-2.08 2.15-3.48.65-5.62-2.63-3.75-5.59-7.29-8-11.15-2.28-3.6-4.07-7.51-6.12-11.26a5.16 5.16 0 0 0-5.59-2.53c-6.8 1.69-12.76 4.94-17.2 10.81z"/>
    <path class="cls-1" d="M115.42 136.4c1 .21 2 .48 3.06.6a2.61 2.61 0 0 0 1.08-.45 2.48 2.48 0 0 0-.79-.85c-1.75-.44-3.53-.78-5.29-1.16v-.73l4.1-.05c0-.25.08-.49.13-.74l-7.14-2.63.27-.77 4.92.91.29-.58a18 18 0 0 0-3.27-1.63 16.69 16.69 0 0 0-3.56-.23v-.82l4-.47c-.2-3.36-3.31-2.15-5.61-3.57l3.08-.5c-.53-1.74-1.26-2.91-3.24-2.86a8.53 8.53 0 0 1-2.28-.59l.09-.68 2.94-.49c-1.86-4.68 1.32-7.2 4.47-9.25 4.28-2.79 8.89-5.09 13.43-7.47 2.46-1.29 6.33-.45 8.38 2.28a127.58 127.58 0 0 1 6.84 10.81c1.23 2 2.34 4.14 3.51 6.2 1.82 3.19 3.71 6.34 5.43 9.58.89 1.67 0 5-1.79 6.26-4.3 3.2-8.47 6.65-13.1 9.29-4.85 2.76-7.85 3.34-11.52-2.79-1.62-2.71-3.29-5.13-7-4.65-.52.07-1.17-.8-1.76-1.24zm1.9-27.83c-2 1.28-3.74 2.31-5.41 3.43a3.46 3.46 0 0 0-1.1 5.16c.7 1.07 1.57 2 2.23 3.14 4.38 7.31 8.68 14.68 13.16 21.93a4.15 4.15 0 0 0 3.09 1.68c4-.13 7.57-2 10.79-4.29 1.78-1.29 3.38-2.84 5.1-4.22 2.12-1.69 2.66-4.12 1.08-6.36-2.32-3.31-5-6.37-7.17-9.79-2.47-3.94-4.45-8.18-6.75-12.23-1.15-2-3.74-2.67-6.09-2.58-3.77.14-6.25 2.73-8.93 4.13z"/>
    <path class="cls-1" d="M74.72 237.14l3.54 1.66c-1-5-5.45-3.09-8-5.46l4.63.5c-.31-2.49-1.6-3.4-4.18-3.79-1.94-.3-4.32-.27-5.34-2.66l6.17 1.93c-.11-3.39-1.94-5-6-5.77-1.51-.3-3-.84-4.47-1.28l.37-1.27a33 33 0 0 0 3.14 1.09c1.1.27 2.24.36 3.28.51-.33-3.14-.57-3.31-3.82-3.75a10.17 10.17 0 0 1-4.16-1.61l5.54.38c-.63-3.53-4.16-2.91-5.8-4.95l3.17.64a4.05 4.05 0 0 0-4.37-3.31 24.6 24.6 0 0 1-3.78-.52c0-.24 0-.47.06-.7l5.55.49c-.66-3.56.58-6.05 3.84-7.87 4.11-2.29 8-5 12-7.49 4.71-2.86 9.17-1.53 11.88 2.6s4.68 8.58 7.13 12.8c2 3.49 4.2 6.9 6.48 10.24 2.54 3.72 1.47 7.35-1.82 9.72-4.7 3.39-9.84 6.17-14.63 9.45-3.9 2.66-7.15.32-10.65-.41zM62 206.48l9.12 14.43c.37.59.76 1.16 1.08 1.78 1.71 3.23 3.05 6.73 5.18 9.65 2.62 3.61 3.15 4.09 6.37 3.12a29.63 29.63 0 0 0 14.32-9c1.79-2.08 2.06-4.15.48-6.4-2.84-4.07-6-8-8.65-12.11-1.77-2.73-2.91-5.87-4.53-8.71-1.37-2.38-5-4.09-7.15-3.35-6.22 2.19-12.31 4.65-16.22 10.59z"/>
    <path class="cls-1" d="M30.75 172l6.25.91.39-.52c-1.16-1.29-2.11-2.92-3.53-3.79s-3.44-1.13-5.18-1.64l.16-.72a17.41 17.41 0 0 1 1.93.39c.9.29 1.78.67 3.19 1.22-2.89-5.35-1.8-7.7 2.81-10.93A88.29 88.29 0 0 1 51 149.05c1.6-.72 4.19-.17 5.95.63a10.12 10.12 0 0 1 3.89 4c2 3.32 3.64 6.88 5.54 10.27.82 1.46 2 2.69 2.89 4.13 2 3.27 4 6.53 5.66 10 1 2-.37 5.06-2.18 6.41-3.36 2.51-6.65 5.15-10.16 7.45a26.26 26.26 0 0 1-7 3.25 5.63 5.63 0 0 1-4.15-.93 5.08 5.08 0 0 0-4.03-1.26 13.19 13.19 0 0 1-2.74-.07l.15-1.05 4.08.16c-1.32-4.61-5.71-2.36-8.9-4.49l5.77.45c-.33-2-1.25-3.5-3.75-3.78a53 53 0 0 1-5.27-1.1l.13-.69 6.08 1a4.64 4.64 0 0 0-4.27-4.43c-1.76-.27-3.5-.69-5.25-1 .05-.31.1-.63.16-.94l6.88 1.1c-1.16-2.44-1.9-4.24-4.56-4.19a33.18 33.18 0 0 1-5.38-.76zm10.68-15.94l.17.37c-1.76 1.11-3.55 2.2-5.28 3.35-1.89 1.27-2.16 2.69-1 4.62 1.52 2.42 3.06 4.83 4.58 7.25s3.05 4.66 4.41 7.08c1.87 3.32 3.45 6.81 5.4 10.08 1.62 2.71 4.3 3.62 6.45 2.84a45 45 0 0 0 12.18-7.17c3.67-2.85 4.42-6.2 1.56-9.65a53.17 53.17 0 0 1-4.84-6c-2.61-4.3-4.83-8.84-7.36-13.19a6.72 6.72 0 0 0-8-3.18 84.8 84.8 0 0 0-8.27 3.62z"/>
    <path class="cls-1" d="M203.09 200.55l4.78.39c-.52-4.16-5-2.32-7.13-4.85l4.08.2c.14-2.34-1.85-2-3-2.63a15 15 0 0 0-1.71-.37 5.36 5.36 0 0 1-1.16-.85 8.53 8.53 0 0 1 1.58-.23 15.15 15.15 0 0 1 2 .31c-.33-3.35-3.51-2.88-5.59-3.86l.16-.63 2.63-.28c-.72-3.45-4.66-1.72-6.67-4.08h4.37c-1.27-3.8-.36-6.43 2.93-8.55 3.7-2.38 7.29-5 11.19-7 5.92-3 9.68-3.32 14.1 3.28 2.16 3.22 3.62 6.89 5.55 10.28.82 1.45 2.18 2.58 3 4 1.86 3.3 3.58 6.67 5.26 10.07.65 1.31-.46 5.28-1.84 6.18q-8.47 5.51-17.08 10.8c-1.4.86-5.16-.24-6.14-2.31-1.7-3.58-4.55-4.68-8-5.13-.19 0-.35-.25-.48-.94l4.44.38c-1.19-3.73-5.5-1.35-7.27-4.18zm9.44 3c.78 1.24 1.52 2.51 2.36 3.71 1.46 2.1 4.37 3 6.43 1.75 4.37-2.64 8.68-5.38 12.95-8.18 1.63-1.07 2.42-4.18 1.48-5.62-1.5-2.3-3.16-4.51-4.76-6.74-1.47-2.05-3.12-4-4.39-6.15-1.77-3-3.34-6.17-4.85-9.33-1.78-3.72-7-4.12-9.77-2.44-3.85 2.31-7.64 4.75-11.41 7.2-2 1.33-2.23 2.95-.72 4.89a27.25 27.25 0 0 1 2.21 2.82c3.58 5.95 7.02 12.01 10.48 18.05z"/>
    <path class="cls-1" d="M169.08 223l5.45.4c-1.28-3.21-4.32-2.43-6.73-3.85l4.08-.25.17-.47c-1.67-.58-3.33-1.2-5-1.74-.68-.21-1.43-.2-2.13-.36a7.15 7.15 0 0 1-1.21-.5 3.11 3.11 0 0 1 1.4-.65c1.62.31 3.22.8 5.07 1.29-1.67-4.13-2.33-4.5-9.1-5.08 2.12-1.52 4-.24 5.95-.47-1.06-1.73-1.57-3.76-4.28-3.21-.52.1-1.2-.6-1.64-1.38l2.51.16c-.26-2-1.24-4.37-.62-6.16s2.66-3.45 4.4-4.7a90 90 0 0 1 10.18-6.43c2.6-1.38 5.5-2.9 8.55-1.26a13.73 13.73 0 0 1 4.84 3.71 105.5 105.5 0 0 1 5.45 9.81c.29.54.52 1.11.83 1.63 2.59 4.39 5.2 8.77 7.77 13.18 1.21 2.08.14 5.73-2.21 7.34-4.24 2.92-8.48 5.84-12.82 8.62a10.59 10.59 0 0 1-4.56 1.82 6 6 0 0 1-5.8-3.23 43.9 43.9 0 0 0-4.08-5.78c-.49-.58-1.68-.65-2.57-.76-1.37-.18-2.75-.21-4.14-.3zm9.86 1.89l-.39.25c.66 1 1.36 2.06 2 3.13 1.08 1.89 2.49 3.18 4.81 2.57a14.88 14.88 0 0 0 3.91-1.54c3.77-2.29 7.58-4.58 11.15-7.16a4.53 4.53 0 0 0 .75-6.36c-2.6-3.68-5.5-7.17-7.92-11-2.13-3.34-3.7-7-5.63-10.48a6.87 6.87 0 0 0-9.31-2.43c-4.22 2.29-8.19 5-12.22 7.66a2.47 2.47 0 0 0-.74 3.77c1.12 1.8 2.26 3.59 3.4 5.38z"/>
    <path class="cls-1" d="M141.43 171.06l-2.12-3.35-4.49-.49v-.64l3.51-.39-2.87-4.53h-2.41c2.8-.69 2.39-3.13 3.06-5a5.4 5.4 0 0 1 2.25-2.17c4.08-2.65 8.22-5.21 12.32-7.83 5.72-3.66 10.16-2 13.56 3.13 2.71 4.06 4.73 8.57 7.14 12.84 2.16 3.83 4.69 7.49 6.5 11.48.61 1.35 0 3.85-.93 5.18a22.7 22.7 0 0 1-5.77 5.35A101.77 101.77 0 0 1 160.3 191a4.92 4.92 0 0 1-6.26-1.1 4.93 4.93 0 0 0-4.66-1.5 6.52 6.52 0 0 1-1.88-.31v-.58l4.35-.47c-1.34-1.75-2.27-3.83-3.87-4.82s-4.08-1.11-6.16-2.18h5.27c-1.06-4.38-5.45-3.07-8.19-4.55l.19-.68 4.87.2-1.79-2.82c-1.49 0-3.05.14-4.61 0a3.35 3.35 0 0 1-1.27-1 6.23 6.23 0 0 1 1.39-.33c1.12.04 2.26.14 3.75.2zm10 11.24h.06c.78 1.24 1.52 2.51 2.36 3.71 1.23 1.77 2.82 2.68 5 1.94 5.73-1.9 10.86-4.71 14.85-9.39 1.57-1.83 1.8-3.64.38-5.56-2.22-3-4.72-5.83-6.68-9-2.54-4.08-4.59-8.45-7-12.61-1.77-3.05-4.24-3.81-7.7-2.67-1.72.57-3.64.86-5.11 1.82-3.24 2.12-6.29 4.52-9.31 6.94-1 .79-1 2-.07 3a22.6 22.6 0 0 1 2.52 3.26c3.58 6.18 7.1 12.38 10.65 18.56z"/>
    <path class="cls-1" d="M251.89 183.58c-1.19-4.23-6.31-1.37-8.27-4.91l5.1.9c-.51-2.93-1.91-4.34-4.89-3.86a7.92 7.92 0 0 1-2.72-.58c0-.2.05-.4.08-.6l4.73-.37c-.84-2.6-2.66-2.67-4.75-2.47a9.2 9.2 0 0 1-2.53-.46l.15-.67 4.58-.49c-.4-2.47-2.58-1.82-4.11-2.36a14 14 0 0 1-1.71-.86 10.52 10.52 0 0 1 1.65-.52 16.67 16.67 0 0 1 2.25 0c-1.06-1.16-1.8-2.5-2.92-3s-2.63-.28-4-.38v-.68l3.42-.55c0-1.05 0-1.05-5.26-3.2l3.49-1.11c-1.05-3-.17-4.45 2.22-6.25a83 83 0 0 1 11.71-7.41c3.67-1.9 7.5-2.27 10.63 2.48q6.27 9.51 12.16 19.26a54.27 54.27 0 0 1 3.25 7.24 5 5 0 0 1-2 6 97.21 97.21 0 0 1-14.36 9c-2.37 1.15-5.64.42-8.5.55l-.1-.82 4.16-.31c-1.3-2-3.51-2.18-5.58-2.7a5 5 0 0 1-1.19-.7 8 8 0 0 1 1.29-.24c.68-.05 1.33.03 2.02.07zm-.77-5.66l.12-.06 2.47 3.92c1.92 3 4.65 3.74 7.71 1.88s6.11-3.73 9.06-5.74 3.85-4.66 1.67-7.71-4.71-5.85-6.69-9c-2.34-3.75-4.08-7.87-6.41-11.62-2.15-3.47-5.36-5-9.51-2.82-2.77 1.48-5.51 3-8.18 4.64-4 2.48-4.14 3.32-1.32 7.07a10.76 10.76 0 0 1 .75 1.17q2.35 4.13 4.68 8.27 2.83 4.97 5.64 9.99z"/>
    <path class="cls-1" d="M178.54 160.32l3.75.29.32-.62a37.11 37.11 0 0 0-3.25-2.13 31.19 31.19 0 0 0-3.36-1.31l.17-.65 3.79.75c-.86-2.53-2.28-3.82-4.85-3.79a6.94 6.94 0 0 1-2.26-.82l.29-.65 3.66.42c-.9-3.65-4.5-2.77-6.46-4.75l3.62.28c-1.15-3.27-1.62-3.63-5.58-4.66l2.76-.29c-2.43-4.09-1.9-7.91 2.48-10.27 4-2.15 7.7-4.86 11.59-7.23 5.29-3.22 9.59-1.91 12.82 2.84 2.34 3.46 4 7.4 6.05 11.05.75 1.31 2 2.33 2.75 3.65a91.35 91.35 0 0 1 5.56 10.68c1 2.57-.68 5.08-2.67 6.5-4.84 3.46-9.86 6.69-15 9.65-3.19 1.83-5.61.51-8-2.43a1.63 1.63 0 0 1-.25-.39c-1.25-2.74-3.1-4.66-6.33-4.85a5.45 5.45 0 0 1-1.72-.76zm7.5.32l-.39.25c.7 1.11 1.47 2.18 2.09 3.33a4.83 4.83 0 0 0 6 1.87c.9-.39 1.82-.77 2.74-1.13a27.88 27.88 0 0 0 12-8.81 3.33 3.33 0 0 0 .07-4.26c-2.8-3.72-5.7-7.38-8.19-11.3-2.29-3.6-4-7.53-6.13-11.25-1.12-2-4.16-3.34-6.19-2.73-5.83 1.74-11.25 4.23-15.39 8.94a2.5 2.5 0 0 0-.19 3.62c1.4 2 2.6 4.05 3.89 6.09z"/>
    <path class="cls-1" d="M188.78 250.06l2.33-.27c-1.5-4.44-.7-6.87 3.74-9.71s8.81-5.32 13.28-7.87c2.48-1.41 7.21-.54 9 2 2.59 3.72 4.74 7.76 7.08 11.66 1 1.72 2.1 3.42 3.11 5.14a98.11 98.11 0 0 1 5.58 10c.58 1.33.1 3.55-.67 4.94a12.63 12.63 0 0 1-4 3.93c-3.57 2.45-7.28 4.67-10.94 7-4.18 2.64-7.62 1.93-10.16-2.32a4.79 4.79 0 0 0-3.16-2.18c-.91-.26-1.8-.57-2.69-.86 0-.2 0-.39.07-.59h2.92c-1.21-3.45-4.63-3.63-7-5.61l4.25.82c-1.4-3.87-5.42-2.94-7.66-5.35l4.43.66c-.53-4.24-4.36-3.83-7-5.47a16.75 16.75 0 0 1 1.84.1c.68.11 1.34.32 2.3.56-1.44-3.09-2.73-5.92-6.78-5.73.07-.3.1-.58.13-.85zm3.28-4.21c1.32 1.79 2.74 3.4 3.82 5.21 4.38 7.3 8.61 14.68 13 21.95.52.85 2 1.81 2.83 1.65 2.91-.57 6-1.13 8.5-2.59a45.74 45.74 0 0 0 8.43-6.92 3.68 3.68 0 0 0 .54-5c-2.35-3.21-5-6.24-7.07-9.59-2.43-3.87-4.33-8.06-6.62-12a6.4 6.4 0 0 0-8.1-3.13c-5.96 2-11.34 5.01-15.34 10.42z"/>
    <path class="cls-1" d="M194.58 99.68l5.07.31.23-.68a28.32 28.32 0 0 0-3.58-1.71 26.09 26.09 0 0 0-3.79-.68v-.69l4.24.17c-.79-1.74-1.42-3.25-4-3.12-1.61.08-3.27-.81-4.91-1.26l.15-.71 5.85.81c-1.49-4.91-6.72-2.76-9.81-5.85l6.97 1.17c-.94-4.8-5.13-4.54-8.54-5.48v-.68a16.64 16.64 0 0 1 2.12-.13c.91.06 1.81.25 2.69.37-.65-4.17-4.39-3.53-6.93-5l3.64-.15c-.51-2-.51-2-2.91-3.27a1 1 0 0 1-.3-.65c1.69-1.1.17-2.54.42-3.78a7.84 7.84 0 0 1 3.93-5.75c2.62-1.48 5-3.31 7.67-4.76a23.45 23.45 0 0 1 5.86-2.38c2.85-.66 5.21.66 6.85 3s3.2 5 4.78 7.48c2 3.13 4 6.22 5.92 9.41 1.8 3 3.48 6.08 5.15 9.17.81 1.5.18 5.47-1.32 6.47-4.94 3.31-9.87 6.7-15.09 9.51-3.33 1.73-7.02.63-10.36-1.14zm1.62-8.57l.12-.07c1.08 1.7 2.12 3.42 3.23 5.09 1 1.48 3.73 2.33 5.25 1.5a87.28 87.28 0 0 0 9.74-5.63c3.72-2.71 5.45-5 2-9.69-2.25-3.08-4.79-6-6.82-9.19s-3.56-6.93-5.54-10.29-5-4.85-8.35-3.56a42.1 42.1 0 0 0-9.24 5.4c-1.25.91-3.88 1.15-3.39 3.41.35 1.64 1.68 3.07 2.55 4.59 1.68 2.94 3.37 5.87 5 8.82 1.87 3.18 3.66 6.41 5.46 9.62z"/>
    <path class="cls-1" d="M205.71 114.21l3.51.56c-1-3.65-.23-5.36 4.26-8.27 3.47-2.25 7.1-4.29 10.75-6.25a7.39 7.39 0 0 1 9.08 2.45c1.72 2.58 3.33 5.24 5 7.87 2.35 3.72 4.76 7.41 7 11.18a66.9 66.9 0 0 1 3.52 6.46c1.37 2.93 0 6.73-3 8.78-3.78 2.51-7.63 4.93-11.51 7.28-2.58 1.57-4.18 1.13-6.54-.64-1.21-.91-2.94-1.11-4.44-1.62-.63-.22-1.26-.41-1.9-.61l.2-.62h3.28c-1.3-3.13-5-1.63-7.29-4.14l4.25.47.42-.5a22.67 22.67 0 0 0-3-2.25 22.72 22.72 0 0 0-3.46-1.22l.15-.69h3.62a2.83 2.83 0 0 0-3-2.23c-1.72-.09-3.39-.93-5.09-1.44l.22-1.05 5.18 1 .4-.57a17.33 17.33 0 0 0-3.07-3c-1.06-.63-2.49-.64-3.76-.93l.13-.67h3.21c-.84-4.21-4.49-2.88-7-3.76 0-.25 0-.49-.07-.73l4.3-.3c-.07-3.89-3.9-2.5-5.6-4zm18.21 20.71l.12-.07c1 1.63 2 3.28 3.1 4.89a3.91 3.91 0 0 0 4.84 1.73 22.7 22.7 0 0 0 10.89-5.92c3.19-3.29 5-4.46 1.55-9.22-2.14-3-4.62-5.71-6.56-8.79-2.14-3.42-3.6-7.28-5.81-10.65-2.34-3.57-4.27-5.26-8.57-3.43a65 65 0 0 0-10.48 5.59c-2.78 1.84-2.68 3.44-.53 5.87a8.43 8.43 0 0 1 .89 1.35c1.72 3 3.45 6 5.15 9 1.83 3.22 3.61 6.44 5.41 9.65z"/>
    <path class="cls-1" d="M268.94 210.41c-1.51-3.5-5.67-.53-7.53-3.5l5.33.22c-.23-4-4.44-.88-5.65-3.46l3.86.05a4.86 4.86 0 0 0-.28-1.14c-2.23-4.14-.7-6 2-7.85 4.26-2.91 8.82-5.4 13.32-7.94 2-1.16 6.44-.08 7.82 2.08 4.63 7.3 9.13 14.68 13.56 22.09 1.12 1.87 1.75 4 2.7 6a3.75 3.75 0 0 1-1 4.36c-4.6 4.66-9.83 8.48-16.21 10.34a4.64 4.64 0 0 1-3.59-.82c-1.52-1.2-2.62-2.92-4-4.33a4.31 4.31 0 0 0-1.83-.95c-1.45-.43-2.94-.74-4.4-1.16a1.6 1.6 0 0 1-.37-.74 2.53 2.53 0 0 1 .9-.13c1.31.31 2.61.68 4.05 1.06-1-2.86-2.92-3.57-5.48-3.62a13.26 13.26 0 0 1-3.56-1.11l.2-.75 6.37 1c-.83-3.54-4-3.8-7.08-4.33a4.32 4.32 0 0 1-1.3-.76 8.38 8.38 0 0 1 1.49-.34h3.34c-.61-3-2.9-2.92-5.14-3.1a7.72 7.72 0 0 1-2-.71l.26-.59zm9.92 11.38l.12-.06c1.07 1.7 2.2 3.36 3.2 5.1a3.72 3.72 0 0 0 4.39 1.67 29 29 0 0 0 12.76-7.7c2.15-2.3 2.39-4.09.58-6.7-2.18-3.13-4.78-6-6.79-9.19-2.3-3.68-3.9-7.81-6.31-11.4s-3.77-5-8.26-3.33c-4.09 1.54-7.83 4.14-11.54 6.56-1.69 1.1-1.46 3.08 0 4.52a7.1 7.1 0 0 1 1.09 1.48q2.62 4.51 5.18 9c1.84 3.36 3.72 6.7 5.58 10.04z"/>
    <path class="cls-1" d="M277.67 138.34c-2.74-1.72-6.58-1.46-8.21-5.16l8.66 4.31z"/>
    <path class="cls-1" d="M255.76 103.25l-8-2.95c2.12-1.06 7.01.76 8 2.95z"/>
    <path class="cls-1" d="M235.49 70c-2.82.73-6.54-.87-8.21-3.51z"/>
    <path class="cls-1" d="M299.75 173.54l-7.84-3.54.4-.83c2.32 1.83 5.69 1.46 7.44 4.37z"/>
    <path class="cls-1" d="M172.32 256.78l-8.4.68c0-.32-.05-.64-.09-1l8.36-.68c.05.36.09.68.13 1z"/>
    <path class="cls-1" d="M232.33 41.5l-8.15-.69v-.71l8.26.26c-.02.39-.06.77-.11 1.14z"/>
    <path class="cls-1" d="M257 115.52l7.51 2.63c-3 .74-5.32-.78-7.73-2z"/>
    <path class="cls-1" d="M249.5 94.73l-6.86-3.13.31-.75 7 2.86z"/>
    <path class="cls-1" d="M220 54.41l7 2.36-.31.94-6.89-2.29z"/>
    <path class="cls-1" d="M310.86 197.83l6.83 2.44-.25.68a12.88 12.88 0 0 1-6.45-2.3 1.22 1.22 0 0 1-.13-.82z"/>
    <path class="cls-1" d="M230.55 35.84l8.82.67c-.84 1.28-6.53.77-8.82-.67z"/>
    <path class="cls-1" d="M223.81 60.84c2.8-.92 6 .45 6.1 2z"/>
    <path class="cls-1" d="M252.61 107.63l6.73 2.63c-2.79.51-6.58-1.1-6.73-2.63z"/>
    <path class="cls-1" d="M313 195.58l-5.62-3.71.52-.79 5.61 3.74z"/>
    <path class="cls-1" d="M227.21 45.34l-7.14-.09v-.8l7.14-.08v.97z"/>
    <path class="cls-1" d="M281.49 151.8l6.19 2.68-.34.76-6.34-2.61z"/>
    <path class="cls-1" d="M244.41 32.83l-5.68-1.37 5.76.92z"/>
    <path class="cls-1" d="M340.2 170.27c-2.64 3.55-6.52 5.53-10.19 7.74a2 2 0 0 1-1.71-.79c-.15-.82-.11-2.15.41-2.53a31.36 31.36 0 0 1 4.59-2.48c1.48-.76 2.94-1.57 4.47-2.24a9.86 9.86 0 0 1 2.18-.42z"/>
    <path class="cls-1" d="M333.51 159.36c-3.88 2.45-7 4.54-10.32 6.44-.5.29-1.49-.25-2.26-.4.35-.65.53-1.59 1.06-1.88 2.83-1.56 5.71-3 8.65-4.36.65-.29 1.59.09 2.87.2z"/>
    <path class="cls-1" d="M325.37 178.6c-2.7 2-5 3.85-7.45 5.39-.54.34-1.77-.42-2.86-.72 2.78-3.81 6.66-5.61 10.31-4.67z"/>
    <path class="cls-1" d="M309.87 173.78a6.93 6.93 0 0 1 0-2.41c.41-1.13 4.7-3 6.84-3.09l-6 5.81z"/>
    <path class="cls-1" d="M336.09 161c2.47-.31 5.65 2 5.57 3.87a1.46 1.46 0 0 1-.88 1.1 2.32 2.32 0 0 1-1.8-.5c-.98-1.29-1.85-2.77-2.89-4.47z"/>
    <path class="cls-1" d="M321.68 187.1a8.43 8.43 0 0 1 .53 3 2.4 2.4 0 0 1-2 1.2 2.78 2.78 0 0 1-1.69-1.55 15 15 0 0 1 2-2.82z"/>
    <path class="cls-1" d="M310.92 176.85a34.7 34.7 0 0 1 2.36 3 1.09 1.09 0 0 1-1.75 1.24c-.86-1.09-1.98-2.26-.61-4.24z"/>
    <path class="cls-1" d="M159.85 291c-2.85 1.51-5.42 3-8.12 4.22-.67.3-1.79-.41-2.7-.66.38-.88.52-2.07 1.18-2.59 1.84-1.43 3.93-2.54 5.87-3.86.95-.64 1.09-1.43.4-2.53a61 61 0 0 1-2.89-5.43 6.34 6.34 0 0 1-.16-1.76c3.66 1.23 4.74 4.55 6.76 6.84 3.49-1 6.21-4.35 10.86-3.71l-8.61 7.17a29.12 29.12 0 0 0 2.46 3c1.06 1 2 2 .92 3.39-.79 1-2.91.44-3.93-.9-.37-.49-.67-1-1-1.56z"/>
    <path class="cls-1" d="M146 312.5c-3.16 3.13-5.78 2.3-9.48-1-4.34-3.9-6.94-8.89-10.1-13.55l.45-.41c1.26 1.5 2.44 3.08 3.8 4.48a103.24 103.24 0 0 0 9.36 9.16c1.38 1.11 3.87.9 5.97 1.32z"/>
    <path class="cls-1" d="M178.23 262.67c2.69.54 12.45 11.81 12.66 14.85a7.9 7.9 0 0 1-2.36-1.16 53.44 53.44 0 0 1-4.06-5.11c-1-1.42-1.65-3.08-2.65-4.48s-2.27-2.61-3.59-4.1z"/>
    <path class="cls-1" d="M93.37 142.38a6.89 6.89 0 0 1-1.53-.68 1.06 1.06 0 0 1-.13-1 1 1 0 0 1 .75-.48c1.79 0 3.58-.06 5.36 0a2.71 2.71 0 0 1 1.47.51 3 3 0 0 1-.62 2c-4.2 3-8.44 5.86-12.78 8.61-.53.34-1.69-.31-2.56-.49.29-.9.29-2.2.91-2.64 2.89-2.01 5.94-3.82 9.13-5.83z"/>
    <path class="cls-1" d="M90.86 161l7.37-.41c-2.72 2.91-6.13 2.76-7.37.41z"/>
    <path class="cls-1" d="M113.35 191.45c1.35 2.14 2.76 4.21 4 6.39a5.45 5.45 0 0 1 .13 2.22c-.8-.24-2-.23-2.34-.77a65.2 65.2 0 0 1-4.84-7.65c-1.11-2.14 0-3.59 2.43-3.34 4.06.42 8.11 1 12.16 1.51l.72-.74c-.49-1.28-.63-3.12-1.56-3.7s-2.72 0-4.17 0a2.22 2.22 0 0 1 3-2.06 8.19 8.19 0 0 1 4.19 3.27c1.51 2.83-1.69 6-5.44 5.66-2.86-.24-5.69-.53-8.28-.79z"/>
    <path class="cls-1" d="M119 206.53l8.24-3.31c.05 1.15-2.38 3.22-4.69 3.85s-3.05.49-3.55-.54z"/>
    <path class="cls-1" d="M108.89 264.6c-3.32-.91-7.25-7.29-7.47-11.9 3.74 2.01 8.1 8.92 7.47 11.9z"/>
    <path class="cls-1" d="M106.25 248.58c3.7 2 5.87 5.14 7.84 8.34 1 1.57-.44 2.25-1.7 2.75-2.56-2.77-6.23-9.14-6.14-11.09z"/>
    <path class="cls-1" d="M104.55 271.78c2.44 2.57 3 2.59 5.94.78 1.53-.94 3.15-1.74 5.34-2.93a8.17 8.17 0 0 1-.36 2.05c-1.36 2.29-6.89 4.38-9.35 3.47-1.46-.54-2.32-1.55-1.57-3.37z"/>
    <path class="cls-1" d="M153.23 226.26l-2.38-1.19.41-.91c1.18.54 2.9.79 3.4 1.7s-.24 2.48-.53 3.73c-.23 1-.78 1.92-.92 2.91-.69 4.84-2.61 6.59-7.33 6.07-3.75-.41-6.94-1.81-8.14-5.94-.54-1.86-.09-3.54 1.56-4.06s3.09 0 3.46 1.78c-.67.69-1.85 1.62-1.73 1.82.56 1 1.32 2.21 2.28 2.55a11.11 11.11 0 0 0 5.1.57c.85-.12 1.57-1.56 2.18-2.51a4.32 4.32 0 0 0-1.14-1.33c-.74-.72-1.53-1.4-2.3-2.09a23.57 23.57 0 0 1 2.29-1.51 1.67 1.67 0 0 1 1.33 0c1.9.89 2.23-.33 2.46-1.59z"/>
    <path class="cls-1" d="M143.8 247c2.24 2.08 2.85 2.09 5.52.5a34 34 0 0 1 3.59-1.61c-.39 1.91-3.85 4.45-5.48 4.34-2.43-.23-3.51-1.16-3.63-3.23z"/>
    <path class="cls-1" d="M163.82 93.18a4.1 4.1 0 0 1 1.34.71c2.53 3 5.07 6.06 7.45 9.2.48.64.31 1.78.43 2.69-.7.08-1.4.22-2.11.25-3.37.14-6.75.2-10.12.42-.71 0-2.43-.42-1.6 1.53a1.48 1.48 0 0 1-.64.73 9.83 9.83 0 0 1-3.13-1.93c-.3-.35.31-2.11 1-2.52 3.49-2.24 7.44-2.09 11.51-1.77L163.22 94z"/>
    <path class="cls-1" d="M167.06 115.77c-1.76 2.49-3.9 3-6.87 1.62z"/>
    <path class="cls-1" d="M244.63 233.07c.44 1.68.75 3.28 1.3 4.8.43 1.21.82 2.55-.63 2.93a2.37 2.37 0 0 1-3.06-2 27.41 27.41 0 0 1-.47-5.57c.11-1.84-.65-2.59-2.27-3a11.17 11.17 0 0 1-1.91-.83l.12-.71a11.29 11.29 0 0 1 2.92.09 1.66 1.66 0 0 0 2.37-1.28 2.2 2.2 0 0 1 .66-1.17 6.63 6.63 0 0 1 1.69-.54 3.75 3.75 0 0 1 .44 1.68c-.81 2.66-.86 2.63 2 3a15.89 15.89 0 0 1 3.71.68c.66.26 1.05 1.21 1.57 1.85-.78.43-1.59 1.28-2.33 1.22a54.83 54.83 0 0 1-6.11-1.15z"/>
    <path class="cls-1" d="M243.23 247.59a4.18 4.18 0 0 0 5 .41 7.33 7.33 0 0 1 2.77-1 4.81 4.81 0 0 1 1.9.69c0 .33-.07.65-.1 1-2.44.38-4.88.87-7.34 1.09-1.73.22-1.95-.17-2.23-2.19z"/>
    <path class="cls-1" d="M137.2 120.7l-8.43 5.3c1.32 1.24 2.25 2.86.88 4.09-.5.46-2.6-.85-4.62-1.6-1 .83-3 1.6-5.25-.51l2.67-2.74a6 6 0 0 1 0-7.63l14.85 2.12c-.06.35-.08.66-.1.97zm-6 .66l-6.72.12c2.64 3.97 4.63-.06 6.69-.12z"/>
    <path class="cls-1" d="M125.19 137l6.61-.05c-2.86 2.42-5.6 2.2-6.61.05z"/>
    <path class="cls-1" d="M78 213.77a3.35 3.35 0 0 1 .35-2c1.11-1.25 4.31-1 5.19.22 1.24 1.64 1.19 3.65-.11 4.67s-3.17.13-5.43-2.89z"/>
    <path class="cls-1" d="M77.89 226.81c3.17 4 3.14 3.95 7.53 1.28a14.17 14.17 0 0 1 3.2-1c-.68 1-1.16 2.27-2.08 2.9a10.13 10.13 0 0 1-4.16 1.61c-3 .4-4.59-1.29-4.49-4.79z"/>
    <path class="cls-1" d="M53.86 173.1a45 45 0 0 1-5.54 2.12 3.51 3.51 0 0 1-4.32-2.43c-.66-1.76.25-3.23 1.83-4.22 2.94-1.86 5.8-3.87 8.86-5.5a5 5 0 0 1 4-.24c1.18.61 1.51 2.07 1.26 3.9-.39 3.49-3.34 3.96-6.09 6.37zm-6.18-1c4.42-1.53 7.62-3.61 8.51-5.52-2.29-.44-8.19 3.42-8.51 5.51z"/>
    <path class="cls-1" d="M49.33 184.37c2.73 2.83 5.51 1.6 8.35.39a2.37 2.37 0 0 1 2 .17c.56 1.18-.29 1.5-1.37 1.66-2.11.31-4.21 1.11-6.28 1-1.14-.05-2.21-1.52-3.32-2.35z"/>
    <path class="cls-1" d="M210.84 187.67l4.17 1.64a19.55 19.55 0 0 1-.33-4.32 3.63 3.63 0 0 1 4.4-3 9.88 9.88 0 0 1 7.47 6.43c.79 2.94-2.26 5.88-5.95 5.23a41.39 41.39 0 0 1-8.22-2.69c-.86-.35-1.41-1.45-2.1-2.21zm6.7-1.81l4.39 5.55c.6-1.46 1.39-2.84 1.19-3-1.41-1.14-2.36-3.26-5.58-2.55z"/>
    <path class="cls-1" d="M216.49 205.7l7.81-2.9a6.78 6.78 0 0 1-1.1 1.69 7.08 7.08 0 0 1-6.71 1.21z"/>
    <path class="cls-1" d="M190.79 208.89c-2-3.07-5.54-3.68-8-1.54 1.9 1.42 3.71 2.93 3.73 5.58 0 2.34-1.2 3.93-3.34 3.5a13.58 13.58 0 0 1-6.28-2.85c-3.73-3.37-1-7.84 2.37-9.13s6.94-2.17 10.42-.45a4.9 4.9 0 0 1 1.89 2.75c.16.56-.5 1.41-.79 2.14zm-8.67 4l.27-.58-1.71-2.71-2.19 1z"/>
    <path class="cls-1" d="M181.94 227a33.52 33.52 0 0 0 5.09-1.29 33.37 33.37 0 0 0 4.42-2.72c-.09 3.38-6.31 5.89-9.51 4.01z"/>
    <path class="cls-1" d="M154.13 169.2c.26-1.48.26-1.48-3.38-4.25a11.57 11.57 0 0 1 2.18-2c1.73-.91 3.6-1.57 5.37-2.4.95-.45 1.43-.7 2.07.63a9.93 9.93 0 0 0 3.13 3.43c1.72 1.26 1.26 2.29-.29 4l-4.94-5.67-3 1.9c2.36 1.38 1.68 3.48 1.21 5.43a2.81 2.81 0 0 1-1.43 1.63c-2.6 1.19-8.3-1.44-8.82-4.16a2.94 2.94 0 0 1 1.42-2.33c.57-.3 1.95-.21 1.76 1.51-.06.53 1.46 1.36 2.37 1.83a8.79 8.79 0 0 0 2.35.45z"/>
    <path class="cls-1" d="M157.07 183.59c1.68-.78 3.22-1.58 4.82-2.22a6.42 6.42 0 0 1 2-.12 4.17 4.17 0 0 1-1 1.57c-1.76.94-3.6 1.78-5.67 1-.22-.1-.27-.42-.15-.23z"/>
    <path class="cls-1" d="M244.3 159.13a46.43 46.43 0 0 0 5.48 1.82c3.16.66 6.4 1 9.57 1.59a9.38 9.38 0 0 1 2.63 1.56c-.95.41-2 1.31-2.83 1.13-3.56-.75-7.06-1.77-10.55-2.79a19.39 19.39 0 0 1-3.74-1.6 5 5 0 0 1-1.16-1.46z"/>
    <path class="cls-1" d="M255.26 158.44a15.17 15.17 0 0 1-3.46.25 5.63 5.63 0 0 1-1.94-1.37 5.46 5.46 0 0 1 1.49-1.76c1.59-.66 3.52.76 3.91 2.88z"/>
    <path class="cls-1" d="M254.47 167.53c-.48 1.52-.73 2.88-.93 2.87a12.26 12.26 0 0 1-3.55-.74 3.59 3.59 0 0 1 .37-1.93 23 23 0 0 1 4.11-.2z"/>
    <path class="cls-1" d="M195 148.44c-.7 1.59-1 3.24-2 4.33-2.18 2.46-8 .33-9.5-3.19a9.53 9.53 0 0 1-.67-2.38c-.42-3.1 1.75-4.7 5.34-4a14.65 14.65 0 0 0 2.31.62 2 2 0 0 0 1.59-.73c1.31-2.42 2.52-3.18 4.33-2.47 2.92 1.13 3.88 2.58 3.3 5s-1.97 3.19-4.7 2.82zm-3.78-1.79l-6.05-.78c2.31 4.5 2.67 4.75 5.82 4.3.01-1.06.12-2.17.21-3.51z"/>
    <path class="cls-1" d="M189.56 163.43c2-1.11 4-2.26 6-3.33a1.09 1.09 0 0 1 1 .18 1.16 1.16 0 0 1 .07 1c-.47 1.08-5.57 3-6.84 2.68a1.57 1.57 0 0 1-.23-.53z"/>
    <path class="cls-1" d="M206.17 246.6c4.42 3.43 6.13 8.25 9.08 12.23-4.08 1.67-9.88-5.92-9.08-12.23z"/>
    <path class="cls-1" d="M213.47 269.06l8.37-4.31c-.84 3.42-6.02 5.66-8.37 4.31z"/>
    <path class="cls-1" d="M198.29 73.62a26.9 26.9 0 0 1-4.54 1.1c-2.68.19-4-2-3.25-5s5.82-4.91 8.45-3.26a3.64 3.64 0 0 1 .05 6.36c-.25.17-.52.33-.78.5zm0-4.34c-1.87-1.67-3.13 0-4.47.91a2.32 2.32 0 0 0 .59 1.64c1.72.59 3.38-.61 3.84-2.54z"/>
    <path class="cls-1" d="M193.74 80.06a3.94 3.94 0 0 1 .19-1.65c3-1.56 4.72-5.07 8.38-5.47a3.64 3.64 0 0 1 2.72.82 16.8 16.8 0 0 1 2.61 4.07 4.22 4.22 0 0 1-.2 2c-.72-.22-1.78-.22-2.11-.71a44.36 44.36 0 0 1-2.46-4.74l-3.12 2c1 2 4.09 2.85 3.63 5.94-3.37.07-3.62-3.12-5.45-4.87z"/>
    <path class="cls-1" d="M198.73 86.95c3.09-2 6.16-4.07 9.3-6a1.76 1.76 0 0 1 1.68.31 23.24 23.24 0 0 1 2.86 4.45c.63 1.41-.46 2.13-2.3 1.94l-2-4-3.52 2.22c.71 1.3 3.75 1.69 1.81 4.43a11.67 11.67 0 0 1-1.22-1.59c-1-1.93-2.15-2.37-4-.94-.5.39-1.42.25-2.14.35z"/>
    <path class="cls-1" d="M234.82 122.13a24.49 24.49 0 0 0-4-2.58 10.46 10.46 0 0 0-4.49-.75c-.8.07-2.19 1.41-2.1 2a8.58 8.58 0 0 0 1.84 3.7c.72.93 2 1.41 2.7 2.37.52.76.41 1.94.59 2.94-.87 0-2 .44-2.59 0-3.09-2.11-5.5-5-6-8.71-.56-4.13 4.53-6 7.9-5a8.87 8.87 0 0 1 6.15 6.03z"/>
    <path class="cls-1" d="M288 218l-12.44-17.84.71-.64c.94.77 1.87 1.56 2.83 2.31 4.22 3.31 7.17 7.63 9.85 12.19.78 1.36.78 2.51-.95 3.98z"/>
    <path class="cls-1" d="M275.57 208.5l3.18.19-.79 4c-1.07-.38-2.33-.54-3.1-1.23-.33-.31.39-1.76.71-2.96z"/>
    <path class="cls-1" d="M285.53 201.22l3.7 2a9.34 9.34 0 0 1-2.14 2c-.59.27-1.5-.14-2.27-.26z"/>
</svg>
