<svg id="Слой_1" data-name="Слой 1" xmlns="http://www.w3.org/2000/svg" width="405.29" height="429.81" viewBox="0 0 405.29 429.81">
    <defs>
        <style>
            .cls-1{fill:#010101;fill-rule:evenodd}
        </style>
    </defs>
    <title>
        hourglass
    </title>
    <path class="cls-1" d="M173.8 224.73c-19.85 3.5-38.34 1-55.85-7.91C100.62 208 87.3 195 77.47 178.13c-3.52 2.78-7.31 2.17-11.25.92-1.88-.6-3.75-.7-5.21-2.53-2.17-2.73-4.81-.76-6.73.46a66.51 66.51 0 0 1-16.42 8 21.22 21.22 0 0 1-3.91.67 24.21 24.21 0 0 1-6 .35 13.79 13.79 0 0 1-5.29-2.18 48.24 48.24 0 0 1-15.5-17c-1.91-3.4-3.55-7-5.85-10.1-2.58-3.48-.63-6.65-.09-9.91.25-1.5 1.31-2.81 1.78-4.3 2.81-9.48 8.41-17.32 14.95-24.42 6.77-7.37 14-14.31 21.17-21.32C44.55 91.42 50.15 86.21 55.8 81q6.72-6.15 13.71-12c5.36-4.51 10.62-9.18 16.3-13.25 7.54-5.4 15.34-10.45 23.22-15.34 8.43-5.23 17-10.18 25.65-15.13 7.21-4.15 14.55-8.08 21.79-12.18 5.94-3.37 11.65-7.16 17.75-10.2 6.68-3.33 13.74-4.4 20.58-.2 5.13 3.15 9.55 7.1 12.28 12.61 1.91 3.86 3.79 7.74 5.52 11.69 1.59 3.65.79 7-1.32 10.36-2 3.11-3 6.83-5 9.84-3.61 5.23-7.71 10.12-11.87 15.5 4.76 5.58 8 12.35 7.09 20.49a4 4 0 0 1-1.17 1.36 52.78 52.78 0 0 0 4.45 4.15 24.37 24.37 0 0 1 7.22 8.9c.88 1.74 2.38 3.17 3.56 4.76 6.65 8.94 12.53 18.33 15.71 29.11a53.14 53.14 0 0 1 .92 25.26c-2.25 11.91-7.3 22.71-12.26 33.47 4.1-.62 8.19-1.41 12.33-1.82 9.31-.92 18.16 1.29 26.82 4.43 12.91 4.67 23.93 12.45 34.18 21.32a171.64 171.64 0 0 1 13.28 13.44c5.46 5.9 11.11 11.68 15.89 18.11 2.41 3.25 4.12 4.12 8 3 5.39-1.53 11.34 2.51 13.29 8.2a14 14 0 0 0 .87 2.76 36.89 36.89 0 0 0 2.59 3.42c6.32-2.41 12.43-4.87 18.63-7.06a16.77 16.77 0 0 1 11-.09 9.37 9.37 0 0 1 6.16 6.47c1.6 5.12 5.29 8.71 8.54 12.58 4.47 5.32 9.51 10.18 11.79 17a.73.73 0 0 0 .08.26c4 4 .71 7.47-.88 11-3.63 8-10.22 13.64-16.38 19.6-6.77 6.54-13.46 13.17-20.21 19.73-1.79 1.74-3.62 3.46-5.57 5-12.24 9.78-24.42 19.62-36.81 29.2-6.23 4.82-12.83 9.15-19.29 13.66-5.06 3.53-10.12 7-15.25 10.46-7.57 5-15 10.27-22.84 14.91a216.65 216.65 0 0 1-21.6 11.23c-5.32 2.39-11.08 3.78-17 1.83a1.8 1.8 0 0 0-.72-.26c-3.39 2.8-4.55-1.06-5.75-2.43-5.74-6.55-11.32-13.28-16.49-20.29-3.26-4.42-6.72-8.91-6.79-15-.07-6.33 2.35-11.7 5.74-16.72 1.43-2.12 3.53-3.78 5.35-5.63s.18-3.06-.58-4.45c-1.36-2.49-3-4.86-4.12-7.43-1.88-4.15-.94-6.72 3.8-10.89a57.79 57.79 0 0 1-4.49-4.75c-5.44-7.16-11.24-14.1-16-21.69a200.9 200.9 0 0 1-13.3-25 93.7 93.7 0 0 1-7.56-30.13 98.68 98.68 0 0 1-.29-18.59 42.09 42.09 0 0 1 7.45-20.85zM275 251.38l.54-5.74c4.11-.48 2.29 3.83 4.09 5.34a8.67 8.67 0 0 1 .14-2c.27-.84.56-2.14 1.13-2.32 1.47-.46 1.46.9 1.69 1.93.53 2.42 1.15 4.81 1.74 7.22l.47-.13-.65-11.46c-3.58-2.23-6.47-2.94-11.45-2.57a54.58 54.58 0 0 1-5.81.44c-4.1-.14-8.19-.76-12.27-.68a43.82 43.82 0 0 0-11.15 1.23c-4.47 1.25-9.5 1.1-14.22.73-4.25-.33-6.35 1.18-6.33 5.46 0 1.39.21 3.55-.53 4-2 1.29-1.87 3.15-1.9 4.85 0 2-.15 3.86-1.51 5.46a.84.84 0 0 0 .09.81 7.81 7.81 0 0 0 1.58.74 10.71 10.71 0 0 1 1.15.31 6.18 6.18 0 0 1-.37 2.76c-3.82 6.37-4.12 13.17-2.67 20.21a1.17 1.17 0 0 0 .5.13.63.63 0 0 0 .25-.08 7.36 7.36 0 0 0 .1-1.23c-.25-5.32.39-10.44 3.26-15.1 1.84-3 2.59-3.39 5.6-2.43-4.6 4.86-4.8 10.7-3.8 16.73.16 1 1.11 1.78 1.59 2.51.67-5.53 1.3-10.8 1.94-16.07.3-2.46 1.71-2.54 3.08-2 .11 6 .22 11.64.33 17.93l2.31-1.8c-.13-4.9-.29-9.37-.34-13.84 0-1.15.13-2.74 1.84-2.15a3.68 3.68 0 0 1 1.86 2.52 25.86 25.86 0 0 1 0 5l7-3.71.52-3.42.74-.26a13.34 13.34 0 0 1 1.38 3c.44 2.34.45 4.76 1 7.08a22.48 22.48 0 0 0 2 4.32l-.2-.91 2.67 1.18-1.37-13c4.3 1.39 2.38 5.76 4.54 7.83 2.42-1.72 2.53-1.73 2.33-4.43-.11-1.46.21-1.81 1.69-1.86a17.15 17.15 0 0 0 3.88-1.1c1.26-.36 2.53-.66 3.2-.84.21 2.61.08 4.59.59 6.4s-.58 4.38 2.09 6.05a31 31 0 0 0 0-3.36c-.44-3.62-1.24-7.22-1.36-10.85-.16-5 .12-9.94.32-14.91a8 8 0 0 1 1-2.45c.42.82 1.19 1.65 1.2 2.47 0 5.67-.17 11.34-.21 17 0 .34.76.69 1.17 1 1.07-1.54 2.92-3 3.06-4.64.48-5.46.36-11 .46-16.47zm42.45.79l.41-.42c-2.1-2.37-4.41-4.59-6.27-7.14a175.94 175.94 0 0 0-19.59-22.4 127 127 0 0 0-25.06-18.94c-6.86-3.94-14.05-7.41-22-8.2-8.59-.86-17.25-1-25.88-1.38a2.11 2.11 0 0 0-1.55 1c-.82 1.54-1.83 2.51-3.62 1.65a3.18 3.18 0 0 1-1.75-4.53c.57-1.39 1.14-2.78 1.67-4.18 4-10.49 8.35-20.85 11.72-31.53a42.42 42.42 0 0 0-.27-26.21c-2.11-6.5-4.61-12.86-8.75-18.35-4.79-6.36-9.85-12.52-14.77-18.78-1.4-1.78-2.74-3.6-4.07-5.42-.79-1.08-1.38-2.2-3.16-1.6-5 1.7-10.12 3.08-15.09 4.9-11.67 4.28-21.66 11.46-31.42 18.91-8.14 6.22-16 12.79-24 19.25-4.67 3.79-9.37 7.54-13.89 11.5-4.83 4.22-9.57 8.55-14.15 13a98.76 98.76 0 0 0-14.39 18.56c-1.95 3.12-1.2 5.31.69 7.8a123.47 123.47 0 0 0 17.83 19.53 81.39 81.39 0 0 0 40.6 18.85c13.32 2.17 26.55 1.13 39.73-1.39.94-.18 2.77.25 2.91.75.43 1.53 1 3.89.17 4.77-7.85 8.7-11.84 18.78-12.72 30.45-.76 10 .9 19.52 3.38 29 2.58 9.86 7.3 18.77 12.69 27.28 4.4 7 9.45 13.49 14.2 20.23.61.87 1 1.87 1.63 2.74 1.87 2.71 3.79 5.4 5.75 8.17l3.08-6.52c-4.65-5.23-7.08-12.22-11.81-17.81a53.74 53.74 0 0 1-7.45-11.4 223.72 223.72 0 0 1-10-23.56 52.85 52.85 0 0 1-1.81-26.91 3.28 3.28 0 0 1 1.16 2.25 48.2 48.2 0 0 0 3.11 20.07c3.06 7.78 6.7 15.34 10.23 22.93 1.42 3.05 3.21 5.94 5.24 9.63-.78-11.41-.4-21.8 4.94-31.44l-5.34 2c.17-2.88.27-3 3-4.25 4.19-1.92 7.2-6.56 6.7-10.11l-9.69 6-.84-.88a11.07 11.07 0 0 1 1.83-2.77c3.85-3.13 7.84-6.08 11.7-9.2a5.64 5.64 0 0 0 2-2.69c1.49-6.11 2.78-12.27 4.23-18.39a1.87 1.87 0 0 1 1.42-1c4.32-.12 8.65 0 13-.21 5.37-.3 10.72-1 16.08-1.33 7.71-.48 15.54 1.42 23.12-1.29a1.75 1.75 0 0 1 .53 0l14.67-.29c-10.72-9.72-21.64-19.34-34.85-25.95 1.45-2.23 1.48-2.3 3.42-1.36 3 1.46 6.07 2.9 9 4.58a149.29 149.29 0 0 1 27.35 20.27c2.77 2.58 5.65 5 8.51 7.52 2.67 2.3 5.39 4.53 8.07 6.82 2.77 2.5 5.6 4.97 8.44 7.42zM173.41 34.93l-.1-.4c-3.1 1-6.27 1.74-9.27 3-4.89 2-9.65 4.28-14.5 6.35a5 5 0 0 1-2.1-.14c.28-.74.33-1.77.86-2.17a29.26 29.26 0 0 1 5-3.06c5.49-2.6 10.93-5.36 16.6-7.5 5.85-2.21 11.92-3.84 18-5.48.9-.25 2.15.81 3.24 1.27l-1.74 2-.75.84c6.47-1.22 12.63-3 19.11-1.16a32.4 32.4 0 0 0-9.28-16.8c-4.48-4.36-10.21-6.89-16.31-4.51-5.88 2.29-11.34 5.7-16.89 8.79-3.42 1.91-6.56 4.3-10 6.22-7.93 4.48-16 8.7-23.91 13.22-6.7 3.83-13.31 7.83-19.85 11.95-7.38 4.65-14.84 9.22-21.9 14.33a286.43 286.43 0 0 0-31.1 26c-5.82 5.63-12 10.89-17.71 16.61a667.287 667.287 0 0 0-19.91 21 68.29 68.29 0 0 0-14.08 22.53C5.65 151 5 154.09 7.73 157c1.12 1.2 1.65 2.92 2.56 4.33 3.29 5.07 6 10.6 10.91 14.25.1-2.46-.43-5.18.42-7.36a94.45 94.45 0 0 1 7.29-15.49c7.1-11.54 15.89-21.82 25.4-31.44 7.05-7.14 14.26-14.15 21.69-20.89 5.51-5 11.41-9.6 17.31-14.17 6.32-4.9 12.82-9.56 19.25-14.3 5.25-3.88 10.44-7.93 15.86-11.56s10.83-6.79 16.35-10c6-3.47 12-6.8 18.06-10.09 3.48-1.89 7.05-3.57 10.58-5.35zm210.53 237.64a20.1 20.1 0 0 0-1 2.57c-1.58 7.52-5.7 13.71-10.68 19.24-5.56 6.18-11.5 12.05-17.54 17.78-6.91 6.57-13.93 13-21.24 19.16-5.64 4.71-11.7 8.94-17.74 13.15q-13.52 9.41-27.29 18.45c-6.31 4.17-12.74 8.15-19.17 12.14-6.79 4.21-13.59 8.44-20.49 12.46-5.5 3.21-11.06 6.34-16.77 9.14-6.87 3.37-14 6.13-22.23 6.46L212 406c4.44 5.72 8.85 11.45 13.33 17.12a4.57 4.57 0 0 0 2.29 1.55c4.3 1.06 8.46-.12 12.12-2q13.27-7 26.12-14.74c7.77-4.71 15.25-9.88 22.83-14.9 4.91-3.26 9.8-6.58 14.61-10 7.76-5.48 15.69-10.75 23.12-16.66 10.5-8.37 20.63-17.21 30.86-25.92 3.87-3.29 7.68-6.67 11.33-10.2 6.45-6.22 12.78-12.55 19.11-18.9a46.37 46.37 0 0 0 10.93-16.08 4.77 4.77 0 0 0-.3-3.9c-4.59-6.3-9.42-12.37-14.41-18.8zM63.25 172.44c.73-1.72 1.37-3.37 2.11-5 6.1-13.24 15.91-23.53 26.68-32.94 5.65-4.94 11.8-9.3 17.77-13.88 14.88-11.42 29.25-23.55 45.43-33.18a123.74 123.74 0 0 1 14.2-7.7c7.58-3.26 15.42-5.92 23.26-8.88a14.24 14.24 0 0 0-1.19-2.09c-1.77-2.39-3.63-4.72-5.46-7.07-3.59-4.62-3.59-4.62-9.12-2.84-.92.3-1.88.5-2.8.81a141.07 141.07 0 0 0-31.52 14.93c-8.16 5.27-16.48 10.36-24.24 16.18-11.66 8.75-22.93 18-34.26 27.19-5.14 4.16-10 8.63-15 13a83.47 83.47 0 0 0-16.18 19.51c-1.87 3-4.93 6-1.83 10.14 3.42 4.57 6.96 8.96 12.15 11.82zM352 269.37a48.88 48.88 0 0 0 3.69 4.69c2.49 2.49 2.12 5.21 1.46 8.29-1.75 8.19-7.21 13.87-12.83 19.38-4.21 4.12-8.77 7.89-13.26 11.71s-9.06 7.64-13.7 11.32c-6.44 5.12-12.83 10.34-19.53 15.09s-13.7 9-20.61 13.35c-5.93 3.76-11.92 7.41-17.86 11.15a89.16 89.16 0 0 1-23.77 10.83c-7.71 2.12-15.42 3.56-22.05-4a81 81 0 0 0-6.66 6.68c-3.1 3.91-3.93 8.61-3.45 13.48.25 2.52 1.46 4.76 4.27 5s5.7.35 8.26-.43c13-4 24.2-11.56 35.64-18.62 3.48-2.15 6.85-4.49 10.37-6.59 5.55-3.3 11.24-6.39 16.79-9.71q8.92-5.34 17.68-10.94c7.28-4.65 14.8-9 21.66-14.23 9.71-7.38 18.94-15.38 28.3-23.21 3.89-3.26 7.76-6.59 11.33-10.2a130 130 0 0 0 19.2-23.89c2.72-4.52 5.54-9.24 1.86-15-2-3.1-2.48-4.11-6.29-3.42-7.5 1.29-14.56 3.61-20.5 9.27zm-8.05-2.86c-.76 1.71-1.13 2.8-1.7 3.78A94.25 94.25 0 0 1 319 296.68c-8 6.36-16.39 12.32-24.59 18.47Q280 326 265.56 336.89c-.22.16-.42.34-.65.49-6.67 4.27-13.23 8.72-20 12.74a155.23 155.23 0 0 1-18 9.49c-4.56 1.94-9.65 2.66-14.42 3.89 1.74 2.24 3.64 5 5.91 7.48a6.91 6.91 0 0 0 4.29 2.31c7.57.08 14.27-2.93 20.79-6.35-3.46.4-6.51 3.09-10.34 1.69 2.84-1.89 5.92-3.15 8.81-4.74 5.78-3.19 12.77-3.89 17.8-8.65.35-.33 1.25-.08 1.9-.1l-.29 2.11 8.37-4.91-.24-.39-5.35 1.63-.46-.93 13.9-7.95.79 1.07-4.3 4a11.93 11.93 0 0 0 2.79-1.64c6.08-3.86 12.38-7.41 18.22-11.59 5.54-4 10.64-8.52 15.87-12.9 6.11-5.11 12.2-10.24 18.18-15.5 5-4.4 10-8.84 14.74-13.55a32 32 0 0 0 8.13-13.43c.37-1.22.72-3 .13-3.85-2.42-3.63-5.25-7-8.19-10.8zm-289-95.95c-4.06-3.25-5.38-9.1-10.54-11.66-.49-.24-.68-1.59-.59-2.38.59-5.25 3.38-9.61 6-14 4.63-7.6 11-13.78 17.84-19.19 18.44-14.58 37.18-28.78 56-42.84a223.17 223.17 0 0 1 19.76-12.66 127.82 127.82 0 0 1 35.43-14.36c3.22-.78 7-1.67 9.6 2.35 1.38 2.18 3.43 1.3 5.05-.14 4.7-4.18 7.58-9.67 10.58-15a14.3 14.3 0 0 0 1.41-4.83c.33-2.18-.65-3.49-3-2.93-4.36 1-8.76 2-13 3.3-15.11 4.68-28.92 12.19-42.52 20.07-7.16 4.15-14 8.79-20.9 13.44-5.42 3.68-10.68 7.6-15.86 11.61-5 3.85-9.74 7.94-14.57 12-3.26 2.66-6.5 5.34-9.64 8.12-6.1 5.36-12.23 10.69-18.19 16.2a184.94 184.94 0 0 0-13.23 13.11c-7.11 8.06-13.89 16.42-19.28 25.79-3.34 5.8-6.22 11.78-6.63 18.64-.19 3.15 1.45 5.53 4.4 4.88a82.73 82.73 0 0 0 13.87-4.61c2.72-1.14 5.13-3.11 7.99-4.9zm156.2 177.51c.42 2.28.73 4.2 1.14 6.09.73 3.37 3.07 4.87 6.27 3.74a86.75 86.75 0 0 0 21.9-11.18c9-6.51 17.82-13.41 26.82-20 4.53-3.33 9.33-6.28 13.94-9.52 7.26-5.1 14.55-10.16 21.66-15.46A174.3 174.3 0 0 0 328.94 278c3.56-4 7-8.35 8-13.78a15.08 15.08 0 0 0-.4-7.44c-1.21-3.57-5.69-3.82-9.68-2.3a16.06 16.06 0 0 1 .21 11.38c-2.22 7.2-7.26 12.51-12.34 17.6a265.66 265.66 0 0 1-19.93 18.22q-16.02 13.17-32.8 25.5A237.06 237.06 0 0 1 240.75 341c-8.97 5.2-18.41 9.21-29.62 7.08zM66.21 173.36l.77 1c2.77-.4 5.54-.77 8.29-1.22a1.5 1.5 0 0 0 .81-.84c5.9-13 15.3-23.24 25.49-32.85 5.33-5 11-9.67 16.67-14.35q9.74-8.09 19.66-16a201.67 201.67 0 0 1 27.9-19c8.86-4.86 17.8-9.36 28-10.47a4.29 4.29 0 0 0 1.55-1.16A40.78 40.78 0 0 0 185.28 80c-13.1 3.85-25 10.33-36.26 17.84-6.35 4.22-12.3 9-18.46 13.54-3.83 2.8-7.82 5.4-11.55 8.33-9.61 7.56-19.12 15.25-28.67 22.88a85.2 85.2 0 0 0-16.41 17.64c-2.93 4.14-5.17 8.77-7.72 13.13zM279 264.85a23.86 23.86 0 0 0-.9 3.32c-.19 1.5-.06 3-.23 4.56-.34 3-.72 3.21-3.78 1.6l-1.46 4.54.86.3c5.24-3.17 7.57-7.72 5.51-14.32zm8.48-18.32a12.19 12.19 0 0 0 .18 1.72c.87 3.58 1.73 7.17 2.71 10.72a10.66 10.66 0 0 0 1.4 2.39l.7-.45c-1.12-4.91-.58-10.42-4.94-14.38zM314 276.4c5-3.35 13.83-15.38 9.13-20.22-.41 3.81.1 7.83-2.48 11.11s-4.75 6.5-6.65 9.11zm-20.38-11.7c-2.73-1.65-5.05 2.32-6.7-.87l-3.38.9c.05 2 .11 4 .16 6.05 1.1-1.31.65-4.07 3.58-2.34a1.07 1.07 0 0 0 .86-.5c.58-2.5 2.57-3.08 5.48-3.24zm-1-15.66l3.14 11.37.71-.08c0-.78 0-1.56-.1-2.33-.23-1.75-1-3.56-.71-5.21.34-2.5-.91-3.17-3.06-3.79zm-51.35 32.9c4.42 1.69.84 5.6 2.34 8.08h.77c.15-3.61.29-7.22.46-11.46zm59-10.28l3-.32c-.13-1.67-.28-3.52-.44-5.51l-3.48 2.7zM294.6 268l-1.12.21 1.81 10.66 1.32-.25zm-37 19.06c2.72-1.4 2.2-3.49 1.19-5.68-3.22 2-3.23 2.03-1.15 5.62zm-22.57 2l-2.21 1.94 2.52 2.73 2.35-1.82zm42.66-26.53l.73.36 3.21-4.2-4.34.07zm-63 79.4l-3-3.93-1.69 4.4zm73.61-71.73c-1.4 1.28-1 8 .45 9.58-.15-3.11-.29-6.2-.45-9.58zm-66.44 70l.26.89 10.47-3.09-.17-.58zm80.6-75.9c.24-6 .24-6-2.68-8.57zm-18.89 18.09h1.23q-.19-3.55-.37-7.1h-1q.07 3.56.15 7.09zm-7.45 7.17l-.5-5.57c-2.16 1.87-1.84 4.45.51 5.55zm-11.65-13.66c-2.19 2.29-1.13 4.09-.83 5.84h1c-.09-1.74-.12-3.42-.17-5.84z"/>
    <path class="cls-1" d="M274.91 252.24l-1.93 1.5c-3-2.44-2.19-5.71-2.23-8.67 0-.59 1.27-1.19 2.24-2l2 8.34z"/>
    <path class="cls-1" d="M126.7 197.68c4.44-4.51 8.75-8.82 13-13.21 4.91-5.09 9.67-10.32 14.62-15.37 4.47-4.56 9.27-8.8 13.62-13.47a108.91 108.91 0 0 1 18.29-16.06c5.31-3.61 11-6.61 16.76-10-1.66-2.69-3.74-6-5.7-9.28-2.06-3.51-4.11-7-5.92-10.68-.52-1-.18-2.52-.23-3.79l.89-.38c1.57 1.2 3.26 2.29 4.7 3.63 9.82 9.17 14.68 20.78 16 33.89.9 9.19-1.11 18-4.62 26.56-3.31 8.1-6.91 16.16-7.84 25a20.36 20.36 0 0 0 3.45 14.39c1 1.41 2.07 2.79 2.93 4.29.32.55.43 1.81.13 2-1 .68-2.39 1.65-3.27 1.36a9.75 9.75 0 0 1-4.86-3c-3.18-4.41-7.92-5.57-12.62-5.91-8.32-.6-16.69-.43-25-.53-6.11-.07-12.31.59-18.31-.21a47.2 47.2 0 0 1-25.28-11.42c-4.29-3.78-8.12-8.08-12.39-12.36 2.47-1.38 3.3-.15 4.13 1a41.69 41.69 0 0 0 17 13.24c.18.18.49.3.52.31zm43.75-18.81l.67.53c.67-.89 1.28-1.82 2-2.64a21.38 21.38 0 0 1 3.68-3.72c2.76-1.83 5.45-3.51 5.87-7.24.08-.69 1-1.29 1.51-1.94.53.46 1.09.9 1.59 1.4a4 4 0 0 0 .51.88c3.58.88 2.85 3.49 2.49 6a5.37 5.37 0 0 0 .3 1.46c1.19-3.09 2.34-5.76 3.24-8.51s1.37-5.32 2.24-7.91a7.67 7.67 0 0 1 1.82-2.12l.7.53-2.15 13a1.66 1.66 0 0 0 1.67-.76c.45-1.63.75-3.3 1-5 .26-1.45.84-2.27 2.48-1.35.09-1.53.73-3-1.45-3.76-.53-.18-.77-2.06-.61-3.09.08-.54 1.28-.91 2.45-1.67 0-2.6-.11-5.81-.17-9.17l-4.78 2.21c1.17 1.8.32 2.76-1.2 3.44a1.51 1.51 0 0 1-.62-.13l-.58-1.95c-2.24.51-3.06 4.09-6.46 2.5l1.47-1.62c3.89-4.25 9.75-5.46 14.26-9.34l1.63 6.9c.45-3.68 2.24-7.56-1.82-10.52l-4.73 2 .15.33 4.08-1.16.39.58c-.53.73-.9 1.81-1.61 2.13a90.75 90.75 0 0 0-19.13 12.16 10.08 10.08 0 0 1-2.47 1l-.47-2.32-8.73 8.65a20.28 20.28 0 0 0-5.66 9.55 10.13 10.13 0 0 1-1.54 2.56c1.7-1.15 3.61-2.42 4-4.07 1.24-4.89 4.91-7.94 7.87-11.53a2.26 2.26 0 0 1 2-.38 1.87 1.87 0 0 1 .75 1.68c-.77 2.25-1.79 4.41-2.63 6.63-.48 1.27-.81 2.6-1.21 3.9l.77.24 3.16-2.45c-1.17-4 1.57-7.84 5.53-7.57v2.3c1.63-.05 2.61-3.14 4.51-.79zm-14.55 23.68c-.06-1.21-.11-2.28-.17-3.61l-4.6 3.57z"/>
    <path class="cls-1" d="M194.89 96.06l1.66-2.45a41.77 41.77 0 0 1 5.33 3.85c9.1 9 16.55 19.05 18.5 32.19a4.38 4.38 0 0 1-.33 2.24 4.09 4.09 0 0 1-1.29 1.11 6.47 6.47 0 0 1-.88-1.12c-1.56-3.25-2.94-6.59-4.65-9.76-2.35-4.36-4.75-8.7-7.48-12.83-2.34-3.53-5.12-6.78-7.78-10.09a43.61 43.61 0 0 0-3.08-3.14z"/>
    <path class="cls-1" d="M127.57 172.46c2.21-.69 3.74-1.5 5.31-1.57 1.81-.07 2.55 1.12 1.3 2.74-1.93 2.5-4 4.87-5.92 7.38a51.83 51.83 0 0 0-3.35 5c-1.07 1.81-2.64 1.46-4 .79s-1.35-2-.45-3.34c2.48-3.66 4.84-7.46 7.11-11z"/>
    <path class="cls-1" d="M220.28 162l-2.77.23a18.44 18.44 0 0 1-.16-2.62c.37-4.85.8-9.7 1.21-14.55a9.09 9.09 0 0 1 .32-2.91 2.78 2.78 0 0 1 1.95-1.31 2.13 2.13 0 0 1 1.75 1.11c1 6.13 2.19 12.31-1 18.2-.34.54-.72 1.02-1.3 1.85z"/>
    <path class="cls-1" d="M195.74 262.94c-2-2.63-1.88-4 .37-5.75 3.54-2.76 7-5.64 10.7-8.2 1.18-.82 4-1.46 4.25-1 1.14 1.78-.18 3.25-1.68 4.4q-6.84 5.25-13.64 10.55z"/>
    <path class="cls-1" d="M116.32 146c1.67 1.63 1.54 3.1-.18 4.67a100.74 100.74 0 0 0-7.86 7.58c-2.3 2.62-4.16 5.64-6.25 8.54-1.74-1-1.69-2.47-.81-4.22a39.11 39.11 0 0 1 15.1-16.57z"/>
    <path class="cls-1" d="M196.51 287.88c-2.92 0-3.51-2-4.46-3.83-1.8-3.43-4.71-14.53-4.53-18.79 1.05.86 2.13 1.3 2.4 2 2.31 6.35 4.49 12.74 6.67 19.14a4.43 4.43 0 0 1-.08 1.48z"/>
    <path class="cls-1" d="M128.94 156.64c-.48 1.23-.6 2.89-1.49 3.63-4.56 3.8-9 7.7-12.07 12.87a4.73 4.73 0 0 1-1.45.71c-.08-1.26-.48-2.35-.14-3.11 2.93-6.57 7.41-11.66 14.08-14.55z"/>
    <path class="cls-1" d="M106.56 172.58a28.16 28.16 0 0 1 1.66-4.21 40.82 40.82 0 0 1 12-13.27 10.68 10.68 0 0 1 2-.85c1.22 3.11-1.21 4.35-2.52 5.88-3.61 4.19-7.47 8.17-11.24 12.22a4.84 4.84 0 0 1-.87.6z"/>
    <path class="cls-1" d="M191.7 239.35c-1.59 1.19-3 3-5.37 1.5-2.08-1.31-2.3-3-.4-4.54a37.18 37.18 0 0 1 4.31-3.23c1.63-.93 3.35-1 4.69.76 1.48 2-.58 2.81-1.35 4a7.73 7.73 0 0 1-1.88 1.51z"/>
    <path class="cls-1" d="M189.46 249.35c3.94-4.06 7-7.36 10.28-10.47.69-.66 2.07-.6 3.13-.86 0 1 .32 2.34-.19 2.85a126.59 126.59 0 0 1-9.34 8.66c-.63.47-2.19-.07-3.88-.18z"/>
    <path class="cls-1" d="M129.58 165.46c-1.57 5.33-6.87 8.28-8.67 13.47h-1c-.2-.84-.85-2-.52-2.47 2.78-3.74 5.74-7.35 8.66-11a2.77 2.77 0 0 1 .87-.49z"/>
    <path class="cls-1" d="M138.54 177c-.08 2.16-5.69 7.86-9.8 10.15-.58-2.95 6.01-9.89 9.8-10.15z"/>
    <path class="cls-1" d="M14.78 139.44c3.83-5.66 7.37-11.55 11.55-17 8.48-11 19.25-19.56 30.36-27.72a70.49 70.49 0 0 1 9-5.58c1-.5 2.48.07 3.74.15l.07.84c-2.48 2.17-4.92 4.39-7.45 6.49-5.82 4.8-11.83 9.38-17.5 14.35-9.53 8.35-19 16.83-25.72 27.78-.56.91-2 1.28-3 1.9z"/>
    <path class="cls-1" d="M19.55 157.41c3.36-6 6.64-12 10.11-17.91 4.84-8.26 11.19-15.38 17.67-22.34a112.42 112.42 0 0 1 10.24-9.37c6-5.08 12.2-10 18.4-14.92.69-.54 1.94-.37 2.93-.53a8 8 0 0 1-1.28 2.52C72.1 99.7 66.26 104.17 61 109.27c-8.43 8.2-16.75 16.54-24.59 25.29a87.83 87.83 0 0 0-14 22.05 8.32 8.32 0 0 1-1.62 1.82z"/>
    <path class="cls-1" d="M149.31 37.09L158 31l-.2-.33-14.25 8.44c.62-1.49.73-2.67 1.37-3.16a118.68 118.68 0 0 1 10.52-7.43 135.15 135.15 0 0 1 13.35-7c4.41-2 9-3.56 14-5.47 0 2.45.14 3.91-2.2 4.59a80.13 80.13 0 0 0-8.63 3.62c3.08 1.64 1.47 2.83-.08 3.64-5.31 2.77-10.71 5.38-16 8.09-.95.48-1.76 1.23-2.71 1.7-1.28.57-2.63 1.49-3.86-.6z"/>
    <path class="cls-1" d="M67.81 92.75c1.54 3-.9 3.93-1.91 5-6.77 6.89-14 13.37-20.63 20.36-8.51 8.94-16.62 18.25-24.95 27.37a4.19 4.19 0 0 1-2.61 1.13c13.48-20.83 30.78-37.96 50.1-53.86z"/>
    <path class="cls-1" d="M281.67 388.81a5.54 5.54 0 0 1 1.65-1.22 12.06 12.06 0 0 1 2.73-.11c0 1.11.51 2.83 0 3.25-4.86 3.83-9.75 7.67-14.94 11-5.72 3.71-11.68 7.06-17.69 10.29-5.51 3-11.2 5.61-16.86 8.29-.67.31-1.66-.07-2.5-.12.18-1 0-2.5.61-3a52.12 52.12 0 0 1 5.85-3.66c4.93-3 9.86-6 14.65-9.19q-9.64 4.17-19.29 8.32a44 44 0 0 1-5.41 2.09c-.7.19-1.61-.39-2.43-.61a5.06 5.06 0 0 1 1.24-1.73c7.39-3.79 14.91-7.34 22.22-11.29 6.32-3.41 12.44-7.19 18.58-10.9 4.72-2.85 9.3-5.92 14.05-8.71.71-.42 2 .18 3.05.31-.27.88-.29 2-.87 2.57a62.74 62.74 0 0 1-5 3.94z"/>
    <path class="cls-1" d="M222.33 409.56a5.82 5.82 0 0 1 1.37-1.56c7.94-4 16-7.84 23.84-12 4.69-2.5 9.11-5.53 13.6-8.39 7.13-4.56 14.18-9.22 21.35-13.72.85-.54 2.21-.26 3.42.09a175.08 175.08 0 0 1-62.76 36.72z"/>
    <path class="cls-1" d="M348.81 321.18a9.17 9.17 0 0 1 1.11-1.75c6.4-6.16 12.92-12.19 19.23-18.45 3.76-3.73 7.18-7.78 10.79-11.67a4.8 4.8 0 0 1 1.91-1.47 16.66 16.66 0 0 1 3.35-.29 9.94 9.94 0 0 1-.55 2.84 55 55 0 0 1-14.3 17.24c-5.09 4.07-10.19 8.13-15.49 11.91-1.53 1.09-3.26 2.97-6.05 1.64z"/>
    <path class="cls-1" d="M280.49 372.75c-17.91 13-35.38 26.69-57.2 32.77l-.65-1.15c1.94-1 3.89-2 5.81-3 6.54-3.48 13.23-6.72 19.57-10.54 7.54-4.54 14.78-9.59 22.19-14.36 2.46-1.58 5-3.05 7.56-4.44a6.89 6.89 0 0 1 2.39-.31z"/>
    <path class="cls-1" d="M389.77 296.77c-1 7.44-30.91 31-35.42 29.74a40.39 40.39 0 0 1 3.23-3.43c4.94-4.14 10.09-8.05 14.88-12.35 4.21-3.78 8-8 12.1-11.94 1.32-1.24 2.63-3.16 5.21-2.02z"/>
    <path class="cls-1" d="M363.34 326.16c5.37-4.88 10.62-9.56 15.74-14.37 2.7-2.53 5.08-5.41 7.83-7.9.67-.61 2.18-.3 3.3-.41 0 .86.25 2-.19 2.53a125.54 125.54 0 0 1-10.08 11.18c-3.9 3.59-8.35 6.58-12.53 9.86-1.61 1.28-2.91 1.18-4.07-.89z"/>
    <path class="cls-1" d="M54.56 160.42c-1.79-1.21-1.67-2.53-.75-4.31a65.56 65.56 0 0 1 13.93-18.49c5.93-5.43 12.15-10.55 18.37-15.65a79.08 79.08 0 0 1 8.61-5.97c.63-.39 1.81.11 2.74.2-.14.9 0 2.06-.49 2.63a44 44 0 0 1-4.87 4.54c-6 5-12.3 9.66-18.11 14.87a107.55 107.55 0 0 0-19 21.61c-.14.22-.3.4-.43.57z"/>
    <path class="cls-1" d="M61.54 159.59c3.22-7.71 26.24-31 31.25-29.66-10.87 9.12-20.79 18.63-29.44 29.42-.22.28-.96.15-1.81.24z"/>
    <path class="cls-1" d="M259.65 347.51c-2.53 5.85-35 21-39.67 18.55 11.53-7.5 24.51-11.64 36.21-18.26.81-.46 2.04-.19 3.46-.29z"/>
    <path class="cls-1" d="M287.52 330.65a16.15 16.15 0 0 1 8-6.61c-.43 3.77-4.67 7.2-8 6.61z"/>
    <path class="cls-1" d="M262.09 269.16c-2.81-3.38-1.54-6.44-.35-9.41a3.17 3.17 0 0 1 2.26-1.43c-1.27 3.51 2 7.68-1.91 10.84z"/>
    <path class="cls-1" d="M246.61 259.17c0-2.6.66-4.34 3.55-4.09.52 2.67-.48 3.92-3.55 4.09z"/>
    <path class="cls-1" d="M265.42 252.26a7.67 7.67 0 0 1-2.45-1.65c-.22-.32.75-1.46 1.18-2.22l2.15 2.77z"/>
    <path class="cls-1" d="M186.22 160.15a17.13 17.13 0 0 1 3.52 1.86c.35.32.06 1.35.06 2.05a12.15 12.15 0 0 1-3-1c-.43-.25-.31-1.32-.58-2.91z"/>
</svg>
