<?xml version="1.0" encoding="UTF-8"?><!DOCTYPE svg PUBLIC "-//W3C//DTD SVG 1.1//EN" "http://www.w3.org/Graphics/SVG/1.1/DTD/svg11.dtd"><svg xmlns="http://www.w3.org/2000/svg"><defs>
        <style>
            .cls-1{fill:#040605}
        </style>
    </defs><symbol id="icon-facebook" viewBox="0 0 10 19">
    <title>
        facebook
    </title>
    <path d="M9.766.157v2.946H8.014c-.64 0-1.071.134-1.295.402-.223.268-.335.67-.335 1.205v2.11h3.27l-.435 3.303H6.384v8.471H2.97v-8.47H.123V6.82H2.97V4.387c0-1.384.387-2.457 1.161-3.22C4.904.404 5.934.023 7.222.023c1.093 0 1.941.045 2.544.134z" fill-rule="evenodd"/>
</symbol><symbol id="icon-title-arr" viewBox="0 0 127.98 16.72">
    
    <title>
        title-arr
    </title>
    <g id="Page-1">
        <g id="title-arr">
            <path class="cls-1" d="M64.07 16.72L45.17 5H0V0h46.59l17.32 10.74L79.3 0h48.68v5h-47.1L64.07 16.72z" id="Shape"/>
        </g>
    </g>
</symbol></svg>