<?xml version="1.0" encoding="UTF-8"?><!DOCTYPE svg PUBLIC "-//W3C//DTD SVG 1.1//EN" "http://www.w3.org/Graphics/SVG/1.1/DTD/svg11.dtd"><svg xmlns="http://www.w3.org/2000/svg" xmlns:xlink="http://www.w3.org/1999/xlink"><defs>
        <path id="a" d="M262.2 243.7L245 144.8 213.7 33.2 176.1-19l-40.9 5.8S56.5 17.7 57.5 17.3c1-.4-37.5 31.8-37.5 31.8l-26.6 68.4-19.8 62.3 12.5 72.4L30.9 346l101.9 39.5s92.3-5.5 95.3-3.3c3.1 2.2 47.2-29.9 47.5-38 .2-8.1-13.4-100.5-13.4-100.5z"/>
    
        <style>
            .cls-1{fill:#040605}
        </style>
    </defs><symbol id="icon-communication" viewBox="0 0 91 54.4">
    <g>
        <path d="M72.7 0c-6.9 0-12.5 5.6-12.5 12.5S65.8 25 72.7 25s12.5-5.6 12.5-12.5S79.5 0 72.7 0zm0 22.7c-5.6 0-10.2-4.6-10.2-10.2S67.1 2.3 72.7 2.3s10.2 4.6 10.2 10.2-4.6 10.2-10.2 10.2z"/>
        <path d="M91 38c0-6-4.9-10.8-10.8-10.8h-3.8c-.5 0-.9.3-1.1.8l-2 6c-.1.2-.1.4 0 .6l2.1 9.4-3.1 2.9-3-3.2 2.1-9.1c.1-.2 0-.4 0-.6l-2.2-6.1c-.2-.4-.6-.7-1.1-.7h-3.9c-6 0-10.8 4.9-10.8 10.8v15.3c0 .6.5 1.1 1.1 1.1h35.4c.6 0 1.1-.5 1.1-1.1V38zm-2.3 14.2H55.6V38c0-4.7 3.9-8.6 8.6-8.6h3.1l1.9 5.1v.1L67 43.9c-.1.4 0 .7.3 1l4.2 4.4c.2.2.5.3.8.3h.1c.3 0 .5-.1.7-.3l4.4-4.2c.3-.3.4-.7.3-1.1l-2.2-9.7v-.1l1.6-4.9h3c4.8 0 8.6 3.9 8.6 8.6v14.3z"/>
        <path d="M19.3 0C12.5 0 6.9 5.6 6.9 12.5S12.5 25 19.4 25s12.5-5.6 12.5-12.5S26.2 0 19.3 0zm0 22.7c-5.6 0-10.2-4.6-10.2-10.2S13.7 2.3 19.3 2.3s10.2 4.6 10.2 10.2c.1 5.6-4.5 10.2-10.2 10.2z"/>
        <path d="M37.6 38c0-6-4.9-10.8-10.8-10.8H23c-.5 0-.9.3-1.1.8l-2 6c-.1.2-.1.4 0 .6L22 44l-3.1 2.9-3-3.2 2.1-9.1c.1-.2 0-.4 0-.6l-2.2-6.1c-.2-.4-.6-.7-1-.7h-3.9C4.9 27.1 0 32 0 38v15.3c0 .6.5 1.1 1.1 1.1h35.4c.6 0 1.1-.5 1.1-1.1V38zm-2.2 14.2H2.2V38c0-4.7 3.9-8.6 8.6-8.6h3.1l1.9 5.1v.1l-2.2 9.3c-.1.4 0 .7.3 1l4.2 4.4c.2.2.5.3.8.3h.1c.3 0 .5-.1.7-.3l4.4-4.2c.3-.3.4-.7.3-1.1l-2.2-9.7v-.1l1.6-4.9h3c4.7 0 8.6 3.9 8.6 8.6v14.3z"/>
        <path d="M50.7 27.9l4-3.2c.2-.2.4-.5.4-.8v-.1c.2-.4.1-.9-.3-1.2l-4.3-3.9c-.4-.4-1.2-.4-1.6.1-.4.5-.4 1.2.1 1.6l2.2 2H40c-.6 0-1.1.5-1.1 1.1 0 .6.5 1.1 1.1 1.1h11.3l-2 1.6c-.5.4-.6 1.1-.2 1.6.4.4 1.1.5 1.6.1z"/>
        <path d="M54.1 12H42.8l2.2-2c.2-.2.3-.5.4-.8 0-.3-.1-.6-.3-.8-.2-.2-.5-.4-.8-.4-.3 0-.5.1-.8.3l-4.3 3.9c-.3.3-.5.8-.3 1.2v.2c0 .3.2.6.4.8l4 3.2c.5.4 1.2.3 1.6-.2.2-.2.3-.5.2-.8 0-.3-.2-.6-.4-.7l-2-1.6H54c.6 0 1.1-.5 1.1-1.1.1-.7-.4-1.2-1-1.2z"/>
    </g>
</symbol><symbol id="icon-connect" viewBox="0 0 91 54.3">
    <path d="M91 31.3c0-.7-.6-1.2-1.2-1.2H79V9.6c0-.7-.6-1.2-1.2-1.2h-12V1.2c0-.7-.6-1.2-1.2-1.2H26.9c-.7 0-1.2.6-1.2 1.2v7.1H13.2c-.7 0-1.2.6-1.2 1.2V30H1.2c-.7 0-1.2.6-1.2 1.2V53c0 .7.6 1.2 1.2 1.2h24c.7 0 1.2-.6 1.2-1.2V31.3c0-.7-.6-1.2-1.2-1.2H14.5V10.8h11.2V20c0 .7.6 1.2 1.2 1.2h17.6V30H33.8c-.7 0-1.2.6-1.2 1.2V53c0 .7.6 1.2 1.2 1.2h24c.7 0 1.2-.6 1.2-1.2V31.3c0-.7-.6-1.2-1.2-1.2H47v-8.8h17.6c.7 0 1.2-.6 1.2-1.2v-9.2h10.7v19.3H65.8c-.7 0-1.2.6-1.2 1.2v21.8c0 .7.6 1.2 1.2 1.2h24c.7 0 1.2-.6 1.2-1.2V31.3zm-67 1.3v19.3H2.5V32.6H24zm32.5 0v19.3H35V32.6h21.5zm6.9-13.8H28.2V2.5h35.2v16.3zm25.1 33.1H67V32.6h21.5v19.3z"/>
</symbol><symbol id="icon-exclamation" viewBox="0 0 181.4 191.4">
    <g fill-rule="evenodd" clip-rule="evenodd">
        <path d="M120 189.1l1.2-.4c1.8-.6 3.6-1.1 5.3-1.8.7-.3 1.5-.6 2.2-.9.6-.3 1.3-.6 2-.8l1.8-.6c.7-.2 1.3-.4 2-.7 2.2-.9 4.6-1.9 7.2-3 3.5-1.6 7-3.6 10.8-6.3 4.5-3.2 8.6-6.8 12.2-10.6 2.2-2.4 4.7-5.2 6.7-8.6 1.5-2.5 2.8-4.8 4-7 1.4-2.8 2.4-4.9 3.1-6.9.4-1.2.8-2.4 1.2-3.8-.3 1-.7 2-1.1 3-.8 2.1-1.6 4.1-2.4 5.9-.8 1.7-1.6 3.3-2.5 4.7l-.3.6c-1.4 2.3-2.9 4.6-4.5 6.8-2.5 3.3-5 6.1-7.6 8.4-.5.4-.9.8-1.4 1.2-1.4 1.2-2.8 2.5-4.3 3.7-1.9 1.5-4.2 3-7 4.7-2 1.2-4.1 2.3-6.1 3.4l-.2.1c-.9.5-1.8.8-2.7 1.2-.4.2-.8.3-1.2.5l-.4.2-.4-.8.3-.3c.4-.3.9-.6 1.4-1 1-.7 2-1.4 2.9-2.2 1.2-1 2.4-2 3.5-3 .9-.8 1.9-1.6 2.8-2.4.7-.6 1.4-1.1 2.1-1.7.8-.7 1.7-1.3 2.5-2 2.3-2 4.6-4 6.7-6.1 3-3 5.7-6.3 8-9.9.6-.9 1.2-1.9 1.7-2.9l1.8-3c1-1.6 1.8-3.3 2.5-5.3 1-2.4 1.9-4.7 2.9-7.1.2-.6.5-1.1.7-1.7.2-.4.4-.8.5-1.2l-1-.2 1.4-7.1 1.8.4c.1-.6.3-1.2.4-1.8.7-3.8 1-8 .8-12.3 0-1.1-.2-2.3-.3-3.4-.1-.7-.2-1.5-.2-2.2 0-.5-.1-1-.1-1.5 0-.7 0-1.3-.1-1.9-.1-.8-.3-1.7-.5-2.5-.1-.6-.3-1.3-.4-1.9-.1-.6-.1-1.3 0-2.2l.2-1.7c-.2-.6-.3-1.2-.5-1.9-.1-.2-.1-.5-.2-.7-.1-.4-.3-.8-.3-1.2-.1-.7-.3-1.5-.4-2.2-.2-1.2-.4-2.3-.7-3.5-.5-1.9-1-3.9-1.7-5.9l-.2-.6c-.8-2.4-1.6-4.9-2.6-7.2-1-2.2-2-4.3-3.1-6.4-.6-1.1-1.1-2.2-1.7-3.3-.7-1.4-1.3-2.9-2-4.2-.4-.8-.7-1.7-1.1-2.5-.7-1.6-1.4-3.3-2.3-4.9-1.4-2.7-2.8-5.2-4.4-7.7-1.4-2.2-3.1-4.5-5-7.1-2.1-2.8-4.6-5.4-7.6-8.2-2.6-2.4-5.3-4.6-8-6.4-.6-.4-1.2-.8-1.8-1.1-.8-.5-1.6-1-2.4-1.6-3.5-2.6-7.1-4.9-10.8-6.9-3.5-1.9-7.3-3.7-11.3-5.2-3.1-1.2-5.9-2.1-8.7-2.7-2.1-.5-4.4-.9-7.3-1.4-2-.3-4.2-.4-6.9-.4H87c-1.7 0-3.8 0-5.7.5-.9.2-1.8.4-2.7.5-1.1.2-2.1.4-3.2.6-1.4.4-3 .9-4.4 1.5l-.4.2c-.5.2-1 .4-1.6.6-.6.3-1.3.6-2 .8-.5.2-.9.5-1.4.8-.5.4-.9.7-1.6.9 0 .1-.1.3-.1.4-.1.2-.2.3-.3.5l-.4.5-.8-.5v-.2c-.4.3-.9.6-1.4.9-1.1.7-2.3 1.4-3.6 2-3.9 1.7-6.7 3.2-9.3 4.9-2.8 1.9-5.4 3.8-7.7 5.7-1.9 1.6-3.7 3.5-5.5 5.3l-.1.1c-.9 1-1.9 2.1-2.7 3.1-.5.6-1.1 1.2-1.6 1.9l-3 3.3c-2 2.2-4.1 4.5-6 6.8-1.8 2.1-3.3 4.3-4.4 6.1-2 3.1-3.8 5.9-5.3 8.7-1.3 2.3-2.4 4.6-3.4 6.9-.8 1.8-1.6 3.8-2.5 6-.7 1.8-1.2 3.7-1.8 5.5l-.3.7c-.4 1.2-.8 2.5-1.1 3.8-.5 2.1-1.1 4.9-1.5 7.7-.4 2.2-.6 4.5-.8 6.3v.3c-.2 2.2-.4 4.4-.4 6.6 0 3.4.1 6.7.3 9.4.1 1.4.3 2.9.5 4.3l.1.3c.3 1.8.6 3.7 1 5.6.3 1.3.7 2.7 1.2 4.3l.1.4c.7 2.1 1.4 4.4 2.3 6.5.7 1.8 1.6 3.6 2.6 5.4 1.2 2.1 2.6 4.7 4.3 7 1.5 2.1 3.2 4.2 4.8 6.1 2.8 3.3 6.3 6.6 11 10.3 1.8 1.4 3.8 2.9 6.3 4.5 1.6 1.1 3.3 2.1 4.9 3.1l1.4.9c.4.2.8.5 1.2.7.6.3 1.1.6 1.7 1 1 .7 2 1.4 2.9 2.1 1 .7 2.1 1.5 3.2 2.2 1.6 1.1 3.1 2 4.6 2.9 1.8 1 3.7 2 5.7 3 1.1.5 2.2 1 3.2 1.5.7.3 1.4.6 2 .9 1 .4 1.9.9 2.9 1.3 1.9.9 3.9 1.8 5.9 2.6 2.7 1 5.6 1.9 8.4 2.7l.5.2c1.6.5 3.4.9 5.7 1.3 2 .4 4.4.8 6.8 1.1 1.9.2 3.9.3 5.9.3h.2c2.5 0 5.2-.1 8.1-.3.8-.1 1.7-.2 2.5-.3l2.1-.3h.1c.2 0 .4 0 .5-.1V190.3h-.1c-.8.2-1.6.3-2.5.4l-1.1.1c-2.3.3-4.7.5-7.1.6-1.5 0-3 0-4.5-.1-.8 0-1.5-.1-2.3-.1-3.1-.1-6-.7-8.7-1.2l-.9-.2c-1.4-.3-2.9-.6-4.3-1s-2.8-.8-4.2-1.3l-1.8-.6-2.5-.8 2.6-.2c.7 0 1.3 0 1.9.1 3 .7 5.8 1.2 8.3 1.3l3.3.3c1.5.1 3 .3 4.5.3 3.5.2 7 .2 10.3.3h7.5v-.1-.3h-8.6c-.6 0-1.3-.1-1.9-.2-.3 0-.6-.1-.8-.1l.1-1h1.9c12.1 0 24-3.1 37.5-9.7l1.2-.6-.5 1.2c-.1.2-.2.4-.4.6-.6.4-1.1.8-1.7 1.1-1.4 1-2.9 2-4.4 2.9-1.5.9-3.1 1.9-4.9 2.5-1.3.5-2.7.8-4.1 1.1-.5.1-1 .2-1.4.3-1.1.3-2.3.6-3.5.7l-2.4.3-2.4.3c-.6.1-1.3.3-1.8.6v.1h.1c1.5-.2 3.1-.3 5-.6.3 0 .7-.1 1-.2.2 0 .3-.1.5-.1l.5-.1.3 1.1-1.3.4c-.6.2-1.2.4-1.9.5-.1 0-.3.1-.4.1-.7.2-1.2.3-1.4.7l.3-.1c.4 0 1.3-.3 2.1-.5zm59.8-84.1l.6-2.6.3 2.6c.8 6.1.8 11.5 0 16.5l-.2 1.3-.7-1.1c-.8-1.5-.8-13.5 0-16.7zm-31.3 66.4l-3 1.8 9.9-10.3.7.6c-.4.4-.7.9-1 1.3-1.9 2.5-3.8 5-6.6 6.6zm2.7-6.3c-2.6 1.9-5.2 3.9-8 5.6-1.9 1.1-3.9 2.1-5.9 3-.6.3-1.2.5-1.7.8-1 .5-2 .9-3.1 1.3-.5.2-.9.4-1.4.6l-.4.2-.5-1 .4-.3c11.5-5.4 21.5-13 29.7-22.5l.3-.4.8.7-.6.9c-.3.4-.5.8-.7 1.2-2 3.7-4.9 6.9-8.9 9.9zm24-29.8c-.1.4-.2.9-.4 1.3-1.4 4.1-3 7.8-4.8 11.2-.3.5-.6.9-1.1 1.2l.3.1-.3.5c-3 5.1-6.9 9.9-11.4 14.2l-3.1 3 3.9-5.8c2.6-3.9 5.3-7.9 7.8-11.9h.1c3-4.8 5.9-9.6 8.4-14.7l.9.4c-.2.2-.2.3-.3.5zm2.1-11.9c-.2 3.9-1.6 7.5-3.5 11.6l-1.6 3.3.6-3.6c.5-2.9 1.5-5.7 2.4-8.4.4-1 .7-2.1 1.1-3.1l1.2-3.6-.2 3.8zm.1-39.1l1.4 8.9-1.3.2-1.4-8.9 1.3-.2zm-1.4 33l.6-4.3 1.2.2v.5l-.7 4.3-1.1-.1v-.6zm-3.6-38.5c.1.4.3.8.4 1.2.9 2.7 1.9 5.5 1.8 8.6v4.1l-3.1-13.6.9-.3zm-6.8-21.4c1.4 2.1 2.3 4.5 3.1 6.7.1.4.3.8.4 1.2l-.9.4-.3-.6c-1.3-2.3-2.6-4.7-3.2-7.3l-.6-2.6 1.5 2.2zm.4 6.7c.5.7.7 1.5 1 2.3l.1.3c.3 1 .6 1.9.9 2.9l.2.8c.6 1.9 1.1 3.9 1.7 5.8l.3 1.2c.3 1 .6 2.1.9 3.1.4 1.8.8 3.6 1.2 5.3l.3 1.4.6 3 .2 1.1c.3 1.6.6 3.3.8 5 .3 1.9.5 3.8.6 5.9 0 .5.1 1 .2 1.5.2 1.5.3 3.1.3 4.6-.1 2.1-.3 4.2-.6 6.3-.1.8-.2 1.6-.3 2.3-.2 1.5-.3 2.9-.5 4.1-.1 1-.3 2-.5 2.8-.2.9-.4 1.8-.6 2.8l-.4 1.6-1.1-.1v-.5c.1-.4.1-.8.2-1.2.1-.8.3-1.7.4-2.5l.1-.8c.2-1.5.4-3 .5-4.5v-.9c.1-2.8.3-5.7.2-8.5-.1-3.1-.4-6.1-.7-9.5-.3-2.9-.6-5.3-1.1-7.7-.7-3.1-1.5-6.2-2.5-9.8-.6-2-1.3-4.1-2.2-6.5-1-2.7-1.9-4.9-2.9-6.9-1-2.2-2.3-4.4-3.4-6.5-1.4-2.5-2.6-4.6-3.8-6.6-.9-1.5-2-3.1-3.4-5-1.9-2.7-3.6-4.9-5.3-6.9l.7-.7c.3.3.6.5.9.8.7.6 1.3 1.1 1.9 1.8 2 2.2 4 4.5 6.2 7.1 1.5 1.8 3 3.7 4.7 5.8 1.7 1.9 3.1 3.7 4.2 5.5zM88.3 5.7l.2 1.1-.8.1-4.4.3V6h.5l4.5-.3zm-4.4-1.6l.5-.1c.3 0 .5-.1.8-.1.6-.1 1.2-.2 1.8-.2h3l.1.9-.5.2-5.6.4-.1-1.1zm.1 3.8c2.7-.4 5.6-.7 8.5-.7.9 0 1.7 0 2.5.1 1.9.1 3.8.7 5 1.1 2.1.7 4.2 1.5 6.3 2.2l1.2.5c.4.2.8.4 1.1.6.1.1.3.2.4.3l.2.1v.8h-.6l-.4-.1c-.3 0-.6-.1-.9-.1-.4-.1-.8-.2-1.3-.3-.7-.2-1.4-.4-2.1-.5-1.4-.2-2.9-.4-4.5-.5l-.9-.1c-1.5-.1-3-.3-4.5-.2-2.9.1-5.7.4-8.3.7-2.8.4-5.6.9-8.1 1.5-3 .7-6 1.7-8.8 2.6-1.9.6-3.8 1.3-5.7 2.1-2.3.9-4.1 1.7-5.8 2.5-1.8.8-3.7 1.8-5.7 2.9-1.3.7-2.7 1.5-3.9 2.3-.6.4-1.3.7-1.9 1.1l-.1.1H45.4h-.1l-.9-.2.7-.6.3-.3c.2-.2.4-.4.7-.6 1-.7 1.9-1.5 2.9-2.2 2.4-1.9 4.9-3.8 7.5-5.6 2.5-1.8 5.2-3.3 7.9-4.8l.2-.1c.7-.4 1.5-.6 2.3-.8l.9-.3c.7-.2 1.4-.4 2-.6.6-.2 1.2-.3 1.8-.5 1.6-.4 3.2-.9 4.8-1.2 2.1-.4 4.6-.8 7.6-1.2zm6.1 4.2h5.3c2.8.2 5.5.4 8.2.7.7.1 1.4.3 2.1.4.5.1 1.1.3 1.7.4 1.9.3 3.7.9 5.4 1.5.5.2 1.1.4 1.6.5 2.8.9 5 2 6.9 3.5 1.2.9 2.5 1.8 3.7 2.7.6.4 1.1.8 1.7 1.2l.4.3-.6 1-.4-.2c-11.6-7-23.2-10.5-35.5-10.7h-.5v-1.3zm36.4 9.1l1.3.8c15.6 9.5 26.3 23.2 33.9 34l.2.3-.8.8-.7-.8c-.2-.3-.5-.6-.7-.9l-2.7-3.3c-2.1-2.6-4.4-5.3-6.6-7.8-2.3-2.6-4.7-4.9-7.5-7.5-3.5-3.4-7.1-6.6-9.8-9-1.2-1.1-2.5-2.1-3.7-3.1-.6-.5-1.2-.9-1.7-1.4-.2-.2-.4-.3-.5-.6l-.7-1.5zm34.9 31l1.7 3.8-10.4-13.7.8-.6c.7.8 1.5 1.7 2.2 2.5 2.1 2.4 4.3 4.9 5.7 8zm-3-12l-.8.6-8.1-10.3.7-.6c3.1 3.1 5.9 6.6 8.2 10.3zm-11.3-13.7l.4.3 2.5 2.7-.8.9-2.9-3.1.8-.8zm-9.1-2.7c5.3 3.8 16.9 15.4 17.9 17.9l1.1 2.6-1.9-2.1c-6.2-6.9-12-12.6-17.7-17.7l.6-.7zm-4.1-.9c1.9 1.5 3.7 3.1 5.5 4.7.7.6 1.4 1.2 2 1.8.1.1.2.3.2.4 0 .1 0 .1.1.2l.8 1.8-1.5-1.2c-.5-.4-.9-.7-1.4-1.1-1-.8-1.9-1.5-2.8-2.3l-.4-.3c-1.9-1.4-3.8-2.8-5.8-4.1-2.8-1.7-5.5-3.3-8.1-4.7-1.1-.6-2.4-1.1-3.6-1.6-.8-.3-1.6-.6-2.3-1-.5-.2-1.1-.6-1.6-.8-.4-.2-.7-.4-1.1-.6-1.3-.7-2.6-1.3-4-1.9l-.4-.2c-1-.5-2-1-3.1-1.4-.7-.3-1.5-.6-2.2-1l-1.2-.7-.1-1 1.6.3c.8.1 1.5.2 2.3.4.3.1.7.1 1 .1.8.1 1.7.2 2.5.4 1.8.5 3.2.9 4.6 1.5 1.6.7 3.3 1.6 5 2.6 2.3 1.4 5 3 7.6 4.8 2 1.4 4.1 2.9 6.4 4.9zm-65.5-18c1.1-.4 2.1-.9 3.2-1.3.9-.3 1.9-.7 2.9-1 .5-.1 1-.2 1.5-.4 1.9-.5 4-1 6-1.2C86.1.4 89.7.4 93.1.8c.9.2 1.7.3 2.5.4 1.7.2 3.5.4 5.2.7 1.5.2 3 .7 4.5 1.1 2.1.6 4.4 1.3 6.6 2.1 1.7.6 3.3 1.3 4.8 2l3.6 1.8c.5.2 1 .5 1.4.7.3.2.7.4 1.1.8l1.3 1.3-2.5-.8c-.5-.2-1.1-.3-1.6-.5-.5-.1-.9-.3-1.4-.4-.8-.2-1.5-.4-2.3-.6-.5-.1-.9-.4-1.3-.6-.2-.1-.5-.2-.7-.3l-.4-.2c-1.2-.5-2.4-1-3.7-1.5-1-.4-2-.8-3.1-1.1-1.4-.4-2.9-.8-4.3-1.1l-.3-.1c-1-.3-2.1-.5-3.1-.7-1.4-.2-2.9-.4-4.2-.6l-.5-.1c-1-.1-2-.2-3-.2h-1.9c-1.4 0-3.1 0-4.7.2-2.2.2-4.5.5-6.9 1-1.5.3-3 .7-4.4 1.1-.9.2-1.8.5-2.7.7-.8.2-1.7.4-2.5.5-.4.1-.7.1-1.1.2l-.5.1-.4-1.1 1.8-.7zm-14 9.1c.2-.1.4-.3.6-.4.5-.3.9-.6 1.4-.8l1-.5c1.7-.9 3.5-1.7 5.3-2.5.4-.2.9-.4 1.3-.5-.2-.1-.3-.4-.3-.5-.1-.2.1-.5.2-.6.2-.2.3-.3.5-.3h.4c.2-.2.2-.6.2-.8v-.3l.8-.4.2.3.1.1c.2.1.4.3.4.6s0 .6-.1.9c.9-.3 1.9-.7 2.9-1.1 1.6-.6 3-1 4.2-1.3.8-.2 1.6-.2 2.3-.3.3 0 .5 0 .8-.1l3.7-.3-3.5 1.3c-1.1.4-2.1.8-3.2 1.2-2.5.9-5.1 1.9-7.7 2.8-3.7 1.3-7.4 2.6-10.9 4.4l-.4.2-.5-1 .3-.1zm-8.5 8.7c1.6-2.5 3.9-4.2 7-5.4l3.1-1.2-11.7 9 1.6-2.4zM41.7 25l1.7-.7-1.1 1.5c-.5.6-.9 1.3-1.4 1.9-1 1.4-2.1 2.9-3.3 4.2-1.2 1.3-2.5 2.4-4 3.6-.6.5-1.2 1-1.8 1.6l-.8.6v-1.1c.1-1.6 9-10.8 10.7-11.6zM31.3 41.6l-1.2 2C23.4 55.2 18.2 67.8 14.7 81l-.9-.2c0-.7.1-1.4.1-2.2l.3-5.1c.1-1.6.4-3.3.6-4.9l.1-.9c.2-1.6.9-3 1.6-4.3.4-.7.8-1.5 1.2-2.2.8-1.5 1.5-3 2.4-4.4 1-1.8 2.2-3.5 3.5-5.6 1.3-1.9 2.6-3.9 3.9-5.7l1.3-1.8c.2-.3.4-.5.7-.7l1.8-1.4zm1.2-10.5c.5-.4 1-.9 1.5-1.3l.7.7c-3.4 3.6-6.3 7.8-9.1 11.9-.5.7-1 1.5-1.6 2.2l-.3.4-1.1-.7.2-.4c.4-.7.8-1.4 1.3-2.2.9-1.7 1.9-3.3 2.9-4.9 1.4-2.4 3.5-4.1 5.5-5.7zM12.3 58c2.6-5.6 5.9-10.9 9.8-15.8l2.8-3.4-2.3 4.6c-.3.5-.5 1-.8 1.5-.2.4-.4.9-.6 1.3-.4.9-.8 1.8-1.3 2.7-.5.8-1 1.4-1.5 2.1-.4.5-.8 1-1.1 1.5-.9 1.2-1.7 2.5-2.5 3.8-.4.6-.8 1.2-1.2 1.9-.1.2-.3.3-.5.4l-1.3.8.5-1.4zm-6 18.7c0-.3.1-.6.2-.9.1-.4.2-.9.3-1.3.3-1.2.5-2.4.9-3.6.4-1.4 1-2.8 1.6-4.1 1.3-2.6 2.5-5.1 3.9-7.6.8-1.5 1.8-2.9 2.7-4.2l1.2-1.8.2-.4 1 .6-.2.4c-.1.3-.3.5-.4.8-.3.6-.5 1.2-.9 1.7-.5.9-1 1.8-1.5 2.8l-2.4 4.5c-1.1 2.1-1.9 3.9-2.6 5.5-.7 1.7-1.3 3.5-2 5.2-.3.8-.6 1.7-.9 2.5-.1.4-.3.6-.6.9l-1 .9.5-1.9zm8-13.4l.9.4-.3.8c-.2.6-.4 1.1-.7 1.7-.4 1-.8 1.9-1.2 2.9-.4 1-.9 2-1.3 3l-.1.3c-.5 1.2-1 2.5-1.5 3.7-.5 1.3-.9 2.7-1.3 4l-.4 1.3c-.3 1-.6 2-.9 2.9-.3 1.1-.5 2.2-.8 3.3-.2.7-.3 1.3-.5 2-.1.3-.2.5-.2.8l-.3.8-1.1-.3.1-.4c1.9-9.2 5-18 9.6-27.2zM9 102.5c.1 2.2.2 4.2.4 6.2.3 2.6.6 5 1.1 7.2.5 2.6 1.1 5.3 1.9 8.5.2.8.5 1.7.8 2.5.2.4.3.8.5 1.2.1.2 0 .3 0 .4v.4l-.4.2-.4.1-.2-.4c-.1-.3-.2-.6-.4-.8-.3-.6-.6-1.3-.8-1.9-.5-1.3-1.1-2.9-1.6-4.4l-.1-.4c-.6-1.7-1.1-3.5-1.6-5.3-.8-3.4-1.5-6.5-2.1-9.6-.3-1.8-.6-3.6-.6-5.5 0-1.5.3-3.1.5-4.6.1-.4.2-.9.2-1.3.3-1.7.6-3.5 1-5.8.1-.7.3-1.4.5-2l.1-.4c.6-2.2 1.2-4.2 1.9-6.3l.9.2c-.1.4-.1.7-.2 1.1-.1.8-.3 1.6-.4 2.4-.2 1.5-.4 3-.5 4.6-.1 2.2-.3 4.7-.4 7.2-.1 2.2-.2 4.4-.1 6.5zm-5.9-7v.4c-.4 4.1-.8 8.3-.8 12.4 0 .7.1 1.3.1 2 0 .3 0 .6.1.9l-1 .1c-.7-4.9-.9-10.1-.5-16.4.4-5.3 1.3-10.7 2.8-16.1l.9.2-.1.7c-.1.5-.2 1-.2 1.5l-.2 1c-.2 1.3-.4 2.6-.6 3.8-.3 1.8-.3 3.6-.4 5.4 0 1.4 0 2.8-.1 4.1zm1.5 5.5H3.4l.2-3.7h1.2l-.2 3.7zm.6 8.3v-3.8l4.3 16-.9.3c-.3-.9-.6-1.8-1-2.7-1.2-3-2.4-6.3-2.4-9.8zm23 47.1C16.1 146.1 9 134.2 6.4 119.8l.9-.2c4.9 13.8 13.3 25.6 21.6 36.2l2.9 3.7-3.6-3.1zm19.2 12c-3.2-2.1-5.8-4-8.2-5.8-3.6-2.7-7-6-10.5-9.8-3.1-3.4-5.8-7-8.1-10.8-1.5-2.4-2.7-4.9-3.8-7.3-1-2.1-1.9-4.3-2.6-6.3-.7-2.2-1.4-4.5-2.1-7.1-.6-2.5-1.2-5.1-1.6-7.8-.9-5.8-1.2-11.9-.9-18.1.1-2.3.4-4.6.7-6.8.1-.6.1-1.1.2-1.7.2-2.1.6-4.2.9-6.6.1-.8.3-1.6.5-2.4.1-.4.2-.7.3-1.1.2-.7.3-1.3.6-1.9l1-2.1-.1 2.4c0 .6-.1 1.1-.1 1.7-.1 1.2-.2 2.5-.2 3.8 0 1.3 0 2.7.1 4.1 0 .9.1 1.8.1 2.7 0 .3-.1.6-.1.9 0 .2-.1.3-.1.5-.1.6-.1 1.2-.2 1.7-.1 1.2-.2 2.4-.5 3.6-.1.7-.2 1.3-.3 2l.1-.1c.4-.4 1-.6 1.9-.5l.5.1c-.1-.6-.2-1.3-.3-1.9l-.1-1.8c0-.2-.1-.5-.1-.7-.3-1.8.1-3.6.4-5.3l.1-.4 1.5-6.9c.3-1.1.6-2.2.9-3.2l.4-1.4c.5-1.5.9-3.1 1.4-4.6.4-1.3.9-2.5 1.4-3.8l.3-.7c.6-1.5 1-2.7 1.5-3.8.7-1.6 1.4-3.3 2.1-4.9.9-1.9 1.9-4 3-6.1 1.2-2.3 2.3-4.3 3.4-6.1 1.7-2.9 3.6-5.8 5.3-8.5.3-.5.8-1 1.4-1.4.5-.4 1-.8 1.6-1.2 1.6-1.3 3.2-2.6 5-3.7 2.6-1.7 5.5-3.4 9.4-5.6 2.4-1.4 4.8-2.6 7.2-3.6 3.1-1.3 5.8-2.4 8.5-3.2 2.2-.7 4.7-1.3 7.5-1.9 2.4-.4 4.7-.7 7.4-1h.2c2.1-.2 4.3-.4 6.4-.4h.4c3.8 0 6.8.3 9.6.9.3.1.7.1 1 .1.4 0 .8 0 1.3.1l3.3.9.8.2c1.1.3 2.2.6 3.2 1l.7.2c.8.3 1.7.5 2.5.9.5.2 1.1.5 1.6.7 2.1.9 4.3 1.8 6.3 2.9 4 2.1 7.5 4.3 10.7 6.7.4.3.9.6 1.3.9 1 .7 2 1.4 2.9 2.3 2.7 2.6 5 5.1 7.3 7.6 2.2 2.4 4.3 5.1 6.3 7.8 1.5 2 2.9 4.2 4.3 6.2l1.1 1.7c1.1 1.7 2.2 3.4 3.2 5.2 1.8 3.3 3.4 6.3 4.8 9.2 1.3 2.6 2.2 4.9 3 7.1.9 2.5 1.7 5.1 2.4 7.6l.4 1.5c.5 1.8.9 3.3 1.3 4.8.4 1.7.7 3.5 1 5.3l.1.4c.3 1.6.6 3.4.8 5.1.1 1.2.2 2.4.3 3.5 0 .6.1 1.3.1 1.9.3 3.6.3 7.4-.2 11.8-.2 2.5-.6 5.1-1.1 8-.4 2.2-.8 4.3-1.3 6.4l-.1.6c-.4 1.6-.7 3.2-1.3 4.7-.6 1.5-1.4 3.1-2.4 4.6-1.9 2.9-4 6-6.2 9-2.8 3.7-6 7.1-9.5 9.9l-.9.8c-2.3 1.9-4.6 3.8-7.1 5.5-2.8 1.9-5.8 3.5-8.7 5l-.4.2c-2.4 1.3-4.6 2.3-6.7 3.1-2.4.9-4.9 1.7-7.3 2.4l-1.7.5c-1.5.5-3 .9-4.6 1.2-2.8.5-5.2.9-7.6.9h-1c-1.9 0-3.8-.1-5.6-.3-.7 0-1.4-.1-2.1-.1-1.5-.1-3.5-.2-5.5-.5-1.6-.2-3.1-.5-4.6-.8h-.1c-2.2-.5-4.5-.9-6.8-1.5-1.7-.4-3.3-1-4.9-1.5-2.1-.7-4.1-1.4-6.1-2.2-1.8-.7-3.6-1.6-5.4-2.4-.4-.2-.7-.3-1-.5-1.2-.6-2.4-1.1-3.6-1.9-2-1.3-3.8-2.7-5.3-4.1-3.7-3.4-6.5-6.1-9.1-8.7-2-2.1-4-4.4-6-7.1-2-2.6-4.5-5.9-6.8-9.6-1.9-2.9-3.5-6-5.1-9l-.6-1.1c-1.1-2.1-2.1-4.2-3-6.2-1.2-2.9-2.3-5.9-3.4-8.8-.5-1.5-1.2-3.4-1.8-5.4-.5-1.8-.9-3.7-1.3-5.5l-.2-1-.6-2.7c-.1.1-.3.2-.5.3 0 .1-.1.2-.1.2l.1.4c.5 2.2 1.1 4.5 1.7 6.7.6 2.3 1.4 4.9 2.3 7.5 1.1 3.2 2.1 5.8 3.1 8.1 1.6 3.6 2.9 6.4 4.3 8.9 1.7 3.1 3.6 6.3 5.7 9.4 1.7 2.5 3.6 5.2 6 8.3 3.2 4.1 6.8 8.1 10.7 11.7.4.3.8.8 1.1 1.4l1 1.8-2.2-1.5c-.4-.3-.9-.6-1.3-.9-4.3-3.1-7.7-5.9-10.6-8.7-2.3-2.3-4.6-4.7-6.8-7l-1.3-1.4c-2.4-2.6-4.6-5.7-6.7-9.5-1.6-2.8-2.9-5.8-4.3-9.1-.9-2.1-1.6-4.3-2.2-6.4-.7-2.7-1.3-5.6-1.7-8.4-.6-3.8-.8-7.9-.6-12 0-.4.1-.7.1-1.1h-1c-.1 1.8 0 3.6.1 5.3.1 2.9.5 5.8.8 8.6v.2c.3 2 .6 3.9 1.1 5.8.7 2.8 1.4 5.1 2.1 7.1.8 2.3 1.8 4.6 3 6.8 1.2 2.4 2.5 4.6 3.8 6.6 3.3 5 7.5 9.9 12.4 14.3 2.9 2.6 5.8 5.1 8.8 7.5 2.5 1.9 5.1 3.6 7.5 5.2 1.3.8 2.6 1.6 3.9 2.3 1.2.7 2.5 1.5 3.7 2.2l4.5 3c.9.6 1.7 1.2 2.6 1.8.5.3 1.1.7 1.6 1 .3.1.5.3.8.5l.4.3-.6.9-.3-.1c-.9-.3-1.7-.6-2.6-.9-2-.7-4.1-1.5-6.1-2.2-2.2-.8-4.5-1.8-6.7-2.8-2.1-1.3-3.9-2.4-5.9-3.7zm45.3 13.4l-.6.1-1.5-.1-3.3-.3h-.5c-1.4-.1-2.9-.3-4.4-.5-1.1-.2-2.1-.4-3.2-.6l-1.1-.2c-.3 0-.5-.1-.8-.1-.7-.1-1.4-.2-2.1-.5-.8-.2-1.6-.7-2.2-1-2.2-1.2-3.9-2.3-5.5-3.3l-3.4-2.2 3.8 1.3 2.4.9c1.8.6 3.6 1.3 5.4 1.9 2.7.8 5.5 1.6 8.2 2.2 1.9.4 3.9.8 5.8 1.1.8.1 1.7.3 2.5.5l.4.1.1.7zm.4 5.6l-1.8-.2-3.3-.3-.7-.1c-1.4-.1-2.7-.3-4.1-.5-1.3-.2-2.7-.5-4.3-.8l-.3-.1c-2-.4-4.1-.9-6.1-1.4-1-.3-1.9-.6-2.9-.9-.6-.2-1.3-.4-1.9-.6-2.6-.8-4.9-2.1-7.2-3.4-.6-.3-1.2-.7-1.8-1-1-.5-1.9-1.1-2.8-1.9l-2.3-1.9 3.7 1.4c.6.2 1.3.5 1.9.7l1.5.5c1.9.7 3.8 1.4 5.7 2 1.8.6 3.4 1.2 5 1.6 3 .9 5.8 1.7 8.3 2.5 1.5.4 3.1.8 4.8 1.2.9.2 1.9.4 2.8.6.8.2 1.6.3 2.3.5.7.2 1.5.4 2.2.5.3.1.7.2 1 .3l.4.1-.1 1.2zm46.5-11.2c-3 1.8-5.5 3.1-8 4.1-2.3 1-4.7 1.6-7.1 2.3l-.3.1c-2 .5-4 1-6.3 1.4-2 .3-4.2.7-6.4.8-3.7.1-6.5.2-9.2.2h-3.6c-1.8 0-3.7-.3-5.5-.5l-2.4-.3h-.3l-.4-.9H95c1 0 1.8 0 2.6-.1 2.8-.2 5.7-.4 9.4-.9 1.9-.2 3.8-.6 5.7-.9l1.6-.3 6.3-1.2c3.2-.7 5.6-1.4 7.8-2.1 2.9-.9 5.5-1.8 7.9-2.8 1.8-.8 3.7-1.7 5.4-2.7l.5-.3 2.1-1.2c.9-.5 1.8-1.1 2.8-1.5l3.7-1.9-3.2 2.7c-.3.2-.5.5-.8.7-.6.5-1.2 1.1-1.8 1.5l-1.2.9c-1.3.9-2.7 2-4.2 2.9z"/>
        <path d="M15 97.6h.2v-.4c-.1-.5-.1-.9-.2-1.4l-.1.4c0 .1-.1.2-.1.2 0 .1-.1.2-.1.3v.8l.3.1z"/>
        <path d="M97.6 126.8c.7-1.7 1.2-3.4 1.7-5 .2-.6.3-1.2.4-1.8 0-.3.1-.5.1-.8.1-.3.1-.6.1-.9.1-.7.2-1.5.5-2.2.9-2.1 1.4-4.4 1.4-6.9.1-7.3.4-14.5.8-22.4.2-3.5.2-7.1.3-10.4 0-1.4.1-2.9.1-4.2l-.1-3.5c-.1-2.8-.2-5.3-.3-7.9v-.6c0-.9-.1-1.9-.2-2.9-.3-2.4-.6-4.2-.9-5.8-.4-1.9-.7-3.5-1.2-4.9-.3-.9-.7-1.8-1.1-2.8l-.6-1.5c-.2-.5-.4-1.1-.6-1.6-.4-1-.7-2-1.1-2.9-.1-.1-.1-.3-.2-.4l-2.1-.6c-.1 0-.1 0-.2-.1l.8 1c.2.2.4.5.6.7.4.5.8.9 1.1 1.4 1.4 2 2.3 3.9 2.6 5.9.1.9.4 1.7.6 2.7l.6 2.4c.3 1.6.5 3.1.6 4.5.2 1.7.3 3.4.3 5.2v16.8c0 1.1 0 2.2-.1 3.3 0 .6 0 1.2-.1 1.9v1.6c-.1 2.5-.1 5-.2 7.5 0 1.9-.1 3.7-.1 5.6-.1 4.1-.1 8.4-.3 12.6-.1 1.8-.4 3.6-.8 5.3l-.3 1.5c-.1.5-.4.9-.6 1.2-.1.1-.2.2-.2.3l-.3.5-1.4-.5.1-.7c0-.3.1-.6.1-.8l.3-1.8c.1-.5.1-1.1.2-1.6.2-1.4.4-2.8.4-4.2 0-15.2.1-31.6 0-48 0-2.3-.3-4.7-.7-7-.1-.5-.1-1.1-.2-1.6-.2-1.7-.5-3.8-1.1-5.7-.5-1.8-1.1-3.5-1.7-5.2-.3-.8-.6-1.6-.8-2.4-.1-.2 0-.4 0-.5v-.2l.1-1.7c-1.7-.7-3-1.9-4.3-3.1l-.9-.9-1.1-1h-.1c-2.5.9-3.9 3.1-4.9 5.2-1 2.1-1.6 4.1-1.8 6.1-.1 1-.2 1.9-.3 2.9-.2 1.8-.5 3.6-.5 5.4-.1 7.5 0 16.4.6 25.3.1 1.2.2 2.4.4 3.9.2 1.2.3 2.4.5 3.6.1.6.2 1.3.3 1.9.1.5.1 1 .2 1.5.1.8.2 1.7.4 2.5.1.7.2 1.4.4 2.1.1.8.3 1.5.4 2.3.3 2.2.7 4.5 1 6.8.3 2.4.6 4.4.8 6.2.1.7.1 1.3.2 2 .1.9.2 1.9.3 2.8.3 2.2.7 4.6 1.3 6.9.3 1.3.8 2.6 1.3 3.9.3.7.5 1.5.8 2.2.1.3.3.6.4.9.3.5.7 1.1.7 1.9.1.7.6 1 .9 1.1.5.2 1.1.5 1.7.9.6.5 1.3.5 2.2.1 1.3-.8 2.2-1.8 2.8-3.3zm-13-87.7c0-1.7 1.1-4.7 3-5.5.9-.4 2-.2 2.9.7l1.1 1-1.4.3c-1.7.4-2.6 1.8-3.6 3.3-.1.2-.3.4-.4.6l-1.5 2.3-.1-2.7zM82 56.2l1.6-.1L85.2 79l-1.8.1-.1-.7C82.4 72 82 65 82 56.2zm3.2 51.4l-1.8-17.9 1.7-.2.1.7c1.1 5.7 1.5 11.5 1.7 16.4v.8l-1.7.2zm5.2 5.7l1.4-.2.3.6c.2.4.3.7.4 1.1.1.2.1.4.2.5-.2-.6-.3-1.3-.5-1.9-.5-1.8-.9-3.6-1.3-5.4-.4-2.1-.7-4.3-1-6.4l-.3-2.1c-.1-.9-.2-1.8-.3-2.6-.2-1.4-.3-2.9-.6-4.3l-.6-3.3c-.2-1.2-.5-2.4-.7-3.6-.2-1.5-.4-3.1-.6-4.6-.1-1-.2-1.9-.4-2.9-.1-.9-.3-1.9-.4-2.8-.2-1-.3-2-.4-3-.1-.7-.2-1.4-.2-2.1l-.3-2.7c-.6-3.7-.5-7.5-.5-11.1 0-1.6.1-3.3 0-5 0-2.1.1-4.4.5-7.2.1-.9.5-1.7.8-2.5.1-.3.3-.7.4-1 0-.1.1-.1.1-.2v-.1c-.1-1.5.5-2.5 1.9-2.9 1.7-.6 2.9-.2 4.1 1.2 1.1 1.3 1.8 2.9 2.1 4.7l.2 1.4c.3 1.8.6 3.7.8 5.6.2 1.8.2 3.6.3 5.3.1 1.3.1 2.6.2 3.9.6 9.3.5 18.7.4 27.8 0 2-.1 4-.1 6v.4c0 1.9 0 3.8-.2 5.7-.1 1.9-.3 3.8-.5 5.6l1.1 5.1c.5 2.2.1 4.3-.2 6.3-.1.5-.2 1.1-.2 1.6l-.1.8-1.9-.1.4-4.3c0 .1 0 .3-.1.4l-.2 1.2-1.4.2.3.6c.9 1.4.8 2.7.6 4-.1.5-.1 1-.2 1.5 0 .5-.1 1-.2 1.5-.1.4-.3.7-.5.9-.1.1-.1.1-.1.2l-.4.6-1.3-.6-.8-11.8zm3.6 15.3l-1.4-.9 4.9-6.9-.9 4c-.3 1.4-1 2.6-2.1 3.5l-.5.3z"/>
        <path d="M96.7 37c-1-1.9-2.3-3.4-3.8-4.6-.9-.7-2-1.1-3-1.2 3 .8 4.6 2.7 5.8 4.3l1 1.5z"/>
        <path d="M99.8 153.9c.1-.8-.2-1.7-.4-2.5-.3-1.1-.7-2.4-1.3-3.7-.2-.4-.5-.7-.8-1.1-.2-.3-.5-.6-.7-.9-.7-1.1-1.8-1.8-3.4-2-1.1-.2-2.1-.1-3.7.3-1.7.4-2.9 1.1-3.7 2.2-.4.6-.8 1.2-1.2 1.9l-.6.9c-.1.1-.1.2-.2.2-.1.1-.2.2-.2.3-.8 1.6-.3 3.3.3 5.1.3.7.7 1.4 1.1 2.1.1.2.3.5.4.7.6 1 1.5 1.7 2.6 1.9.5.1 1 .2 1.5.4l2.3-1.9c.2-.2.4-.3.6-.5.4-.4.9-.7 1.3-1.1.4-.4.7-.8 1.1-1.2.2-.2.3-.4.5-.6l.6-.7 1.1 1.2-.1.4c-.7 2.1-2.2 3.4-4.3 3.7l-2.9.5.9.3c1.4.4 2.3.5 3.1.2.2-.1.5-.2.7-.2.2-.1.4-.1.6-.2l.9-.3c.5-.2 1-.3 1.5-.5l-.4-.6 1.6-1.3c.8-.6 1.1-1.6 1.2-3zm-6.1-1.8c.3.5.5 1.2.5 1.9v.3l-.2.2c-.1.2-.3.5-.6.7-.2.2-.4.3-.6.4-.1.1-.2.1-.3.2-.4.3-.7.5-1.1.5-.4 0-.9-.2-1.3-.9s-.9-1.6-.9-2.7l-1.3-.2c.2 1 .6 1.9 1.3 3.1l.8 1.3-1.6-.1c-1.7-.1-2-1.3-2.1-2.5 0 0 0-.1-.2-.2l-.2-.2v-.3c-.2-1.8-.1-2.6.6-3.6l1.9-2.7-.5 3.3c-.1.4-.1.9 0 1.3l.1-.9.3-1.8c.1-.4.5-.8.9-.9.3-.1.7-.2 1.2-.2 1.3 0 3 .6 3.8 1.7.2.3.3.6.4.9 0 .1.1.2.1.3l.3.8-1.3.3z"/>
    </g>
</symbol><symbol id="icon-facebook" viewBox="0 0 10 19">
    <title>
        facebook
    </title>
    <path d="M9.766.157v2.946H8.014c-.64 0-1.071.134-1.295.402-.223.268-.335.67-.335 1.205v2.11h3.27l-.435 3.303H6.384v8.471H2.97v-8.47H.123V6.82H2.97V4.387c0-1.384.387-2.457 1.161-3.22C4.904.404 5.934.023 7.222.023c1.093 0 1.941.045 2.544.134z" fill-rule="evenodd"/>
</symbol><symbol id="icon-question" viewBox="0 0 241.1 353.1">
    
    <clipPath id="b">
        <use xlink:href="#a" overflow="visible"/>
    </clipPath>
    <g clip-path="url(#b)" fill-rule="evenodd" clip-rule="evenodd">
        <path d="M104.6 113.8c-.2.4-.4.9-.7 1.3-.7.9-1.5 1.6-2.2 2.5-.5.7-1.2.9-1.9.8-.7-.1-1.2-.6-1.2-1.6-2.4.1-4.7.1-7.1.3-1.5.1-2.8.8-4 1.7-1.4 1-2.3.8-2.8-.8-.2-.6-.5-.9-.9-1.3-4.6-4-8.1-8.8-10.9-14.1-2.2-4.2-3.9-8.6-5-13.2-1.8-7.6-2.3-15.4-1.6-23.2.9-8.8 3.1-17.3 6.5-25.5C79.2 25.6 90.1 15.1 105 8.4c10-4.5 20.5-7.2 31.5-8.1 7.3-.6 14.5-.3 21.7 1.3 4.6 1.1 8.9 2.8 13 5.2 1.1.7 2.3 1.2 3.5 1.8 5.9 2.7 10.9 6.4 15.1 11.4 4.7 5.6 7.9 11.8 9.8 18.8 2.3 8.5 3.5 17.1 3.9 25.9.3 7.1.6 14.2 1.3 21.3.5 5.2 1.8 10.3 4.2 15.1.8 1.6.7 2.1-.8 3.1-.8.5-1.7.9-2.6 1.2-2.9.7-5.3 2.2-7.7 3.9-.1.1-.3.2-.4.3-4.5 3.9-9.7 6.8-15 9.4-3.7 1.9-7.3 4-10.6 6.6-.8.6-1.7.9-2.6.3-.2-.1-.4-.2-.6-.2-2.9.4-5.9.3-8.9 1.1-1.5.4-3 .5-4.5.7-1 .1-1.7-.2-2.2-1.2-.4-.7-.8-1.5-1.3-2.1-.3-.4-.8-.6-1.3-.7-2.3-.8-4.4-2-6.3-3.6-3.6-2.9-5.3-6.8-5.5-11.4-.2-3.9.5-7.7.8-11.6.2-2.9.2-5.8.3-8.8.1-1.3-.9-2-1.4-3-1.6-3-4.2-4.9-7.4-5.9-2.4-.7-4.7-.6-6.8.8-1.8 1.2-2.8 2.9-2.8 5.1 0 .7 0 1.5.1 2.2.4.2.9.3 1.2.5.9.6 1.1 1.4.5 2.5-.4.7-.3 1.3.1 1.9 1.1 1.3 2.1 2.6 3.3 3.8.6.6 1.2 1.1.9 2-.2.9-1 1.6-1.8 1.5-1.5-.1-2.3.7-3.3 1.5-1.8 1.5-3.7 2.7-5.6 4.1-3.5 2.7-7.1 5.4-10.6 8.1-.4.3-1.1.5-1.6.6 0-1.2 0-1.2-1.2-1.2-.1.4-.2.9-.4 1.4-.6-.1-1.2-.5-1.3.5.6.1 1.1.1 1.3-.6.6.5 1.1.4 1.6-.1zm83.7-21.6c-.9 0-1.4-.6-1.7-1.3-.5-1.2-1-2.4-1.6-3.5-2.2-4-2.8-8.3-2.9-12.7-.1-3.6.3-7.3.7-11 .6-6.2 2-12.4 2.1-18.7.1-3.1.3-6.2-.9-9.2-.1-.2 0-.6 0-.8 0-.6 0-1.1-.1-1.7-1.3-6.7-4-12.7-8.8-17.6-2-2.1-4.1-4.2-7.2-4.9-.5-.1-.9-.6-1.3-.9-.5-.4-.9-.9-1.4-1.1-3.3-1.6-6.8-2.6-10.4-3.4-7.1-1.6-14.4-1.6-21.5-.7-10.4 1.3-20.3 4.1-29.8 8.6-12.3 5.7-21 14.8-26.7 26.8-5.3 11.2-7.8 23.1-7.3 35.5.4 9.9 2.7 19.3 8 27.9 2.5 4.1 5.5 7.7 9.1 10.9 8.1-6.6 16-13.3 23.1-21-1.6-1.3-3-2.5-3.8-4.2-1.1-2.4-1.5-4.9-1-7.4.5-2.4 1.3-4.6 2-6.9.1-.4.6-.7.9-1 .4-.3.8-.6 1.2-1 3.8-3.9 8.5-5.3 13.9-4.9 5.1.4 9.6 2.4 13.6 5.4 3.4 2.6 5.8 6 6.8 10.2.7 3 .8 6 .5 9.1-.3 4-.8 8-1.1 12-.2 2.7-.2 5.4 1 8 1.6 3.5 4.5 5.4 7.9 6.7 1 .4 2.1.8 3.3 1.3 2.5-1.7 5-3.9 7.4-6 3-2.6 6.1-5.2 9.1-7.7 4.6-3.7 9.9-6.2 14.9-9.3.4-.2 1-.1 1.4-.3.9-.4 2-.2 2.7-1.3-1.4.1-.7-.7-.8-1.2 0-.5-1.5-.1-.6-1.1-.5-.3-.9-.7-1.5-1.1.4-.3.6-.4.8-.5zM169.1 122c1.1-.6 2.5-1.1 3.5-2 1.6-1.3 3.4-2.3 5.2-3.2 5.5-2.8 10.9-5.6 15.7-9.7 2.4-2.1 5.1-3.9 8-5.3-1.4-.3-2.8-.5-4.2-.7-1.9-.3-3.7-.2-5.5.4-1.3.4-2.4.5-3.4-.6-2 1.1-3.8 2.4-5.8 3.3-2 1-3.8 2.2-5.6 3.5-1.6 1.1-3.1 2.3-4.6 3.5-3.6 3-7.2 6.1-10.9 9.1-.7.6-1.4 1.2-2.4 2 .9-.1 1.4-.2 2-.3 1.6-.2 3.2-.5 4.9-.6 1 .1 1.9.4 3.1.6zm-75.3-8.7c1.8 0 3.2.1 4.6 0 .8 0 1.8 0 2.5-.4 1.1-.7 1.9-1.8 3.1-2.4.9-.4 1.6-1.4 2.4-2.1 1.6-1.3 3.3-2.5 5-3.7 2.6-1.9 5.2-3.8 7.7-5.7.3-.2.5-.5 1-1-1 0-1.6 0-2.3-.1-2.1-.1-4.1-.2-6.2-.3-.7-.1-1 .2-1.5.6-4.9 4.9-9.9 9.6-15.3 14.1l-1 1zm14.6-29.9c-.3 1.2 0 2.5.6 3.6.9.1 1.7.1 2.6.2 1.6.2 3.1.4 4.7.5h1.3v-3.8c-3.1-.1-6.1-.3-9.2-.5zm78.3-15.8c.1 0 .3.1.3.1 1.4-1 2.5-.6 3.9.2 1.5.9 3.2 1.6 4.9 2.3.9.4 1.9.7 3 .5-.1-.8-.1-1.6-.2-2.3-3.8-1.7-7.6-2.9-11.6-3.7-.1 1.1-.2 2-.3 2.9zm.9-7.5c3.7 1.1 7.2 2.1 10.8 3.2 0-.8-.1-1.6-.1-2.3-3.4-1.5-6.7-2.6-10.4-3.4-.1.9-.2 1.6-.3 2.5zm5.4 32.4c.7.9 1.2 1.5 1.5 2.2.3.7.3 1.4.4 2.1 2.3.2 4.7.3 7.1.5 0-1-.4-1.7-1.3-1.9-1-.3-1.7-.8-1.6-2-.6.3-1.1.5-1.7.8-.2-.6-.4-1.1-.6-1.8-.4.5-.6.8-.7 1.1-.9-.4-1.8-.6-3.1-1zm6.3-10.8c-4.5-.4-8.4-2-12.4-4.2.2 1.1.3 1.8.4 2.3 4.1 1.5 8 2.9 12.1 4.4 0-.9 0-1.6-.1-2.5zm-10.4 3c.2.9.3 1.6.4 2.2.9.1 1.7.3 2.6.4-1 1.4.7 1.4.9 2.3 1.7-1.3 3.4-.8 5.1-.1.7.3 1.5.7 2.3.8.1-1-.1-1.5-1-1.8-1.6-.5-3.2-1.1-4.9-1.6.4-.3.6-.5 1.2-.9-1.4.1-2.4.3-3.3.1-1-.3-2-.8-3.3-1.4zm10-9.3c-4.6-.3-8.4-2.4-12.3-4.7v1.5c4.1 2 7.6 4.9 12.3 5v-1.8zm-9.6-37c0 .8.1 1.6.1 2.4 2 .9 4 1.7 6.3 2.3-.3-1.1-.5-1.9-.8-2.7-.1-.3-.4-.7-.7-.8-1.6-.4-3.1-.7-4.9-1.2zm-1.4-8.9c.2 1.2.4 2.3.7 3.4.1.3.4.7.7.8 1 .4 2.1.6 3.5 1.1-.8-2.1-1.6-3.7-2.5-5.3h-2.4zm-69.5 50.2c-2.7-1.2-5.4-2-8.4-2.1-.2.6-.5 1.2-.7 1.8 3.2.7 6.1.7 9.1.3zm1.4 14.3c-.4-.9-.8-1.6-1.1-2.3-1.7-.1-3.4-.2-5-.3.2 1 .4 1.7.6 2.7 1.6 0 3.5 0 5.5-.1zm68.8-41c3.2 1 6.2 1.9 9.2 2.8.5-.9-.1-1-.6-1.2-2.3-.8-4.6-1.7-7-2.5-.5-.2-1-.1-1.5-.2 0 .5-.1.8-.1 1.1zm8.2-5.1c-2.6-.7-5-1.3-7.5-1.9v1.1c2.7.7 5.1 1.4 7.7 2.1-.1-.5-.1-1-.2-1.3zm-4.9 45c-.9.6-2 .6-1.4 1.6.5 1 1.2.1 2.1-.1-.3-.5-.5-.9-.7-1.5zm1.2-7.5c.9-.4 1.4-.6 2-.9-.5-.3-1-.5-1.7-.9-.1.6-.2 1-.3 1.8zm5.5-34.2c.8.2 1.3.3 2.1.5-1-1.4-1-1.4-2.1-.5zm-7.4 44.5c1.2.9 1.2.9 2 .1-.8-.1-1.4-.1-2-.1zm-1.1-3c1.4-1 1.4-1 1-2-.4.7-.7 1.3-1 2zm10-45.5c-1.3-.3-1.3-.3-1.5.7.6-.2 1.1-.4 1.5-.7zm-9.4 43.4c-.3-.5-.5-.9-.7-1.3-.3.3-.6.5-.9.9.6.1 1 .2 1.6.4zm-81.3 17.3c-.1.8-.2 1.3-.3 1.8.8-.4.8-.9.3-1.8zm13-35.1c-.7-.9-.7-.9-1.7-.7.4.2.9.4 1.7.7zm63.2-50.3c-.1 0-.1.1-.2.1.1.2.1.4.2.5.1.1.4.2.5.3 0-.1.1-.1.1-.2-.2-.2-.4-.4-.6-.7zm12.5 26.6c0 .1-.1.1-.1.2.2.2.3.4.5.6l.3-.3c-.3-.2-.5-.4-.7-.5zm-93.4 63.1c-.3-.5-.4-.7-.5-.7-.2 0-.4.1-.6.2.1.2.1.4.2.5.3.1.5 0 .9 0z"/>
        <path d="M146.1 204.7c.4-2.3.7-4.4 1.1-6.4.4-1.7 1-3.5 1.7-5.1.9-2.1 2.3-2.4 4-.9 2.7 2.2 4.8 4.9 6.9 7.7 1.5 1.9 3 3.8 4.6 5.6 2.2 2.4 4.9 4.1 8 5.2.9.3 1.5 1.2 2.6 1.1.9 0 1.8.6 2.8.9.9.3 1.8.5 2.8.8 1 .3 1.9.6 2.9 1 2.3 1 4.6 1.9 6.8 3.1 2 1.1 2 2.9 0 4.1-3.5 2.1-7.1 4.1-10.7 6.2-.6.4-1.5.3-2 1.1 0 .1-.6-.1-.7-.2-.3.5-.6.9-.9 1.2-1.8 1.3-3.7 2.4-5.4 3.8-3.1 2.6-6.2 5.2-9.3 7.9-.7.6-1.1 1.5-2.2 1.7-.1 0-.1.3-.2.4-3.7 4.4-7.9 8.2-12.6 11.4-1.4 1-2.6.6-3.2-1.1-.3-.8-.5-1.7-.6-2.6-.5-3.3-.3-6.6.5-9.9.2-.7.3-1.3.4-2.2-1.7-.4-3.3-.9-4.9-1.2-2.2-.5-4.3-1.4-6.3-2.3-1.9-.8-3.7-1.9-5.4-3.1-3.6-2.5-6-6-8.2-9.8-1-1.7-2-3.3-3-4.9-2.1-3.2-5.1-5.1-9-5.4-6.1-.6-11.8.8-17 4.1-6.3 4-7.8 12.1-3.5 18.3 1.2-.8 2.3-1.7 3.6-2.5 4.6-2.9 9.7-4 15-2.8 2.7.6 5.1 2 7.3 3.7 2.6 2.1 4.7 4.7 6.1 7.8.9 2 1.6 4.1 1.7 6.3.2 3.1.3 6.2-.3 9.3-1.7 9.4-8.3 15.3-16.9 17-7.7 1.6-14.9.1-21.9-3.2-4.3-2.1-8.2-5-11.6-8.3-3.3-3.3-6.1-7-8.4-11-3.6-6-6-12.5-6.9-19.5-1.3-9.4-.1-18.5 4.1-27 2.1-4.4 4.9-8.3 8.3-11.9 5.4-5.8 11.6-10.5 18.8-14 5.2-2.5 10.7-4 16.4-4.4 1.1-.1 2.2-.3 3.3-.2 1.2.1 2.4 0 3.5.1 1.2.1 2.3.2 3.5.5 1.2.2 2.3.5 3.4.8 1.1.3 2.3.6 3.4 1 4.9 1.9 9.3 4.7 13.2 8.3 5.4 5.2 9.6 11.3 13.3 17.7.2.5.6 1 1.1 1.8zm-13.5-13.1c-1.9-1.7-3.7-3.4-5.5-5-7.1-6.2-15.4-8.6-24.7-8-6.1.4-11.9 2.1-17.3 4.8-10 5-17.8 12.5-23.2 22.3-3.7 6.8-5.2 14.1-4.5 21.9.8 9.1 3.8 17.5 9.1 25 2.6 3.7 5.7 7.1 9.2 9.9 5 4 10.8 6.5 17.2 7.6 4.2.7 8.3.6 12.3-.9 2.8-1.1 5.2-2.7 7-5.1.9-1.3 1.6-2.7 2.3-4.1 1.1-2.4 1.8-4.9 1.8-7.5.1-3.6-.6-7.2-2.3-10.5-5.4-10.4-17.7-10.6-24.9-3.5.7.7 1.4 1.3 2 2 .6.9.4 2-.3 2.8-.8.8-1.5.8-2.6.2-.4-.2-.7-.5-1.1-.8-3.1-2.8-5.4-6.2-6.7-10.2-2-6.4-.8-12.1 4.2-16.8 2.2-2 4.7-3.5 7.3-4.4.6.4 1 .7 1.6 1.1.6-.7 1.1-1.3 1.7-2 1.2.1 2.4-1.3 3.9-.8 3.8-1.3 7.6-1 11.4 0 2.2.6 4.2 1.8 5.8 3.4 1.6 1.6 2.9 3.4 4.2 5.3 1.7 2.4 3.3 5 4.9 7.5.9 1.5 2.3 2.6 3.6 3.6 3.4 2.6 7.3 4.2 11.5 5.2 2 .5 4.1.8 6.1 1.3 1.3.3 1.8 1.3 1.6 2.6-.1.5-.3 1.1-.5 1.6-.9 2.8-1.3 5.7-1.2 8.7 0 .4.1.7.2 1.3 2.1-1.9 4-3.5 5.8-5.3 3.4-3.2 6.6-6.5 10-9.6 5.6-5 12-8.8 18.4-12.6 1.5-.9 2.9-1.7 4.7-2.8-.8-.3-1.4-.6-1.9-.7-3-1-6-2-9-2.9-5.3-1.5-9.8-4.3-13.3-8.5-2.1-2.5-4.1-5-6.2-7.5-1-1.1-2-2.2-3.3-3.6-.4 1.7-.8 3.1-1 4.5-.5 3.1-.8 6.2-1.2 9.2-.1.7-.3 1.5-.6 2.1-.7 1.5-2.4 1.7-3.4.3-.4-.6-.7-1.2-1-1.8-2.9-6-6.4-11.7-10.4-17l-1.2-1.8c.4-.3.7-.5 1-.7-.1-.2-.2-.3-.3-.5-.6.2-1 .5-1.2.7zm42.3 20.8c-.9.3-.9.3-.5 1 .1-.3.3-.6.5-1z"/>
        <path d="M186.1 169.7c-.8-.6-1.5-1-2-1.5-3.7-4.8-8.1-8.8-12.5-12.9-3.2-2.9-6.3-6-9.4-9-1.5-1.5-1.3-3.7.3-5.2 6.1-5.6 12.5-10.9 19.1-15.9 4.4-3.3 8.8-6.5 13.3-9.7 1.9-1.3 2.6-1.3 4 .5.4.5.9.5 1.5.6 4.4.4 8.8.8 13.1 1.3 1.7.2 3.4.7 5.1 1 1.6.3 2.9.7 3.8 2.3 1.3 2.2 3.1 4.1 4.6 6.3 2.5 3.6 4.9 7.2 7.4 10.7 1.8 2.5 3.7 5 5.7 7.3 1.1 1.3 1.2 2.5.6 4.1-1.7 4.3-4.7 7.6-8.6 10-3.8 2.3-7.7 4.3-11.6 6.3-2.9 1.5-5.8 3.1-8.3 5.2-.7.6-1.3 1.4-1.8 2.1-.9 1.3-2.5 1.9-4.1 1.5-.6-.2-1.2-.1-1.8-.1h-10.1c-2.5 0-4.7-1-7-1.7-1.3-.5-1.7-1.7-1.3-3.2zm-20.6-25.8c3.3 3.1 6.5 6.1 9.7 9 4.2 3.8 8.4 7.7 12 12.1.7.8 1.4 1.6 1.2 3 .6-.3 1-.5 1.4-.8 4.3-2.4 8.5-4.9 12.8-7.2 3.8-2 7.5-4.2 11.5-5.7 1.4-.5 2.7-1.1 4-1.8.9-.5 1.7-1.2 2.7-1.8-8.2-10.5-17.3-19.9-25.5-30.3-10.3 7.3-20.2 14.9-29.8 23.5zm69.9 5.6c-3 .4-5.7.8-8.3 1.2-.4.1-.8.5-1.1.9-.9.9-1.6 2.1-2.6 2.8-1.8 1.2-3.8 2.2-5.8 3.1-2.8 1.3-5.7 2.4-8.4 3.9-5 2.7-10 5.5-14.9 8.3-.2.1-.4.3-.8.7.8.1 1.4.2 1.9.1 3.3-.1 6.6-.2 10-.3.9 0 1.6-.3 2.3-.9 2.2-1.9 4.6-3.5 7.2-4.9 2.9-1.5 5.8-2.9 8.8-4.4 2.7-1.4 5.3-2.9 7.6-5 1.6-1.4 3-3.1 4.1-5.5zm-1.8-4.3c-.4-.4-.5-.7-.6-.7-4-.4-7.9-.8-12.1-1.2.8 1 1.4 1.9 2 2.7 3.6.8 7-.5 10.7-.8zM209.4 130c.8 1 1.1 1.9 2.3 2 3.3.5 6.7 1 10 1.6 1.3.2 2.6.5 4 .7-.3-1.1-.7-1.7-1.8-1.5-.3.1-.7 0-1-.1-3-.6-6-1.1-9-1.7-1.4-.4-2.8-.7-4.5-1zm18 9.6v-.4c-3.9-.8-7.8-1.8-12.1-2.2 1.1 1.3 2 2.3 3 3.4.9-1.7 2.2-1.9 3.8-1.5 1.8.3 3.6.5 5.3.7zm-14.3-17.1c-1.1-.5-2.2-1-3.4-.8v.4c1.1.1 2.2.2 3.4.4z"/>
        <path d="M160 342.3c-1.1.3-2 .7-3 .8-1.6.1-3.2.1-4.7-.1-4.8-.7-9-2.9-11.9-6.8-5.5-7.5-6.9-15.7-2.8-24.2 3.7-7.6 10.2-11.4 19.3-10.7 1.9.1 3.9.6 6 .9l-.6-2.1c-.5-1.8-.4-3.6.6-5.2 1.3-2.3 3.6-3.3 6.2-2.7 1.1.3 2.2.6 3.2 1 .5.2 1.1.3 1.6.5.2-.3.4-.6.5-.8.3-2 2.5-2.3 3.9-1.4 1.4.9 2.7 1.8 4.1 2.7.6.4 1.3.7 2 1.1-.2.5.7.8.8 1.5.1.8.6 1.5 1 2.3-1 .7-1.8 1.8-3.3 1-.2-.1-.8.3-1 .6-.3.4-.3 1-.5 1.4-.3.9-.7 1.9-.9 2.8-.2 1-.9 1.2-1.6 1.1-.9-.1-1.8-.5-2.7-.9-1.3-.6-2.4-1.7-4.2-2.1.5 1 .8 1.7 1.2 2.4 1.3 2.2 2.7 4.3 3.9 6.5.5.9.8 1.9 1 2.8.3 1.6-.5 2.6-2.1 2.7-2.1.2-4-.6-5.8-1.6-.9-.5-1.7-1-2.6-1.5-4.2-2.4-8.6-2.7-13.1-1.3-5 1.6-7.5 8.2-5.1 12.9 1 1.9 2.5 3.1 4.8 3.3 1 .1 2 .1 2.9-.3.5-.2 1.1-.3 1.6-.5.3.4.7.7 1 1.1.1-.2.3-.3.2-.3-.5-.9-.2-1.4.6-1.9 1.2-.8 2.4-1.5 3.2-2.9.6-1.1 3.1-1.2 4.3-.3 1 .7 1.5 1.7 1.8 2.8 1 4.2 0 10.7-5.7 13.9-.6.4-1.3.7-2 1.1-.3-.4-.5-.7-.8-1.1.5-.2.8-.3 1.2-.5v-.3c-.4-.1-.8-.2-1.4-.3-.1-.8.5-1.2 1.2-1.7 3.6-2.4 5-6.3 3.8-10.6-.3.2-.7.4-.9.7-1.9 1.7-4 2.9-6.4 3.7-.7.2-1.4.6-2.3.2-.2-.1-.5.1-.8.2-3.9.8-7.2-.5-9.2-3.8-2-3.4-2.3-7-.9-10.7 2.3-6.1 7.2-8.1 13.2-8.5 4.2-.2 7.9 1.1 11.4 3.2 1.2.7 2.4 1.6 4.1 1.9-.3-1.1-.8-2-1.4-2.8-1-1.5-2.1-2.9-3.1-4.5-.6-1-1.1-2.2-1.4-3.4-.4-2 .8-3.4 2.8-3.6 1.6-.1 3 .2 4.4 1 .6.4 1.2.7 1.9 1.2 0-2.5 1.4-3.9 3.3-5.2-.8-.7-2-.8-2.2-2h-.7c-.4.6-.5 1.4-1 1.7-.6.4-1.4.5-2.1.4-1.2-.2-2.4-.5-3.6-.8-.8-.2-1.6-.6-2.4-.8-2-.4-3.5.8-3.5 2.8 0 1 .3 2 .6 2.9.4 1.1.9 2.1 1.3 3.1.3.8.3 1.6-.4 2.2-.6.6-1.3.5-2.1.2-2.7-1.1-5.4-1.9-8.3-2.2-7.9-.8-14.9 4.1-17 11.7-1.5 5.4-1.1 10.7 1.8 15.5 3.1 5.3 7.7 8.4 14.1 8.4.8 0 1.6.3 2.4-.2.3-.2 1.1.1 1.5.4 1 .5 1.2 1.3.8 2zm-2.7-12.9c.4.8.8.5 1.2.3.1 0 .1-.2.1-.4h-.6c-.2 0-.4 0-.7.1z"/>
        <path d="M46.2 119.7c-.5.8-1 1.5-1.5 2.3.8.3.8.3 1.8-1.5.2.4.5.6.6.9.8 1.8 1.7 3.7 2.5 5.5.1.2 0 .6-.1.9.5.2 1 .4 1.6.6-.3.5-.5.9-.8 1.3.6 0 1.1.1 1.7.1.5 1-.3 1.6-.9 2.1-.6.5-1.3.3-1.9-.2-1.3-.9-2.4-1.9-3-3.4-.6-1.4-1.1-2.8-1.8-4.1-.6-1.2-1.1-2.6-2.2-3.6-2.1-1.8-4.5-2.3-7.1-1.9-2.8.3-5.2 1.4-7.2 3.6-2.9 3.4-2.8 7.5.5 10.5 1.4 1.3 2.9 2.3 4.8 2.8 2.4.7 4-.4 4.5-2.8.3-1.5-.3-2.3-1.9-2.8-.8-.2-1.2-.7-1.2-1.4 0-.6.2-1 .9-1.4 1-.6 1.9-.7 2.9-.3 1.2.6 2.2 1.3 2.7 2.6 1.7 4.3-1.7 11-8 9.9-4.7-.8-8.3-3.5-10.5-7.8-1.4-2.7-1.1-5.5 0-8.2 3.5-8.3 13.4-10.6 20.1-7.2 1.5 1.1 1.9 1.5 3.5 3.5zm-8.3 8.6c-.4.4-.8.9-.2 1.4.2.2.7.2 1 .1.1 0 .2-.4.3-.6-.5-.3-.8-.6-1.1-.9zm10.4.3c-.1.1-.1.2-.2.3.2.2.4.3.6.5.1-.1.2-.2.1-.3-.1-.2-.3-.4-.5-.5z"/>
        <path d="M218.6 340.6c-.3 1.3-.7 2.5-.8 3.7 0 .3.4.9.8 1.1.5.3 1.1.3 1.9.5-1.3 2.9-3.2 5.1-6.2 6.3-7.2 2.8-15.9-.8-19.2-7.8-1.3-2.8-2.1-5.7-1.5-8.8.4-2.3 1.4-4.4 3.2-6 1.1-1 2.3-2 3.5-2.9 1.6-1.3 3-2.7 3.9-4.6.8-1.7 2.4-1.9 3.7-.6.5.5.5 1 .3 1.6-1 3-3 5.2-5.6 7-.9.6-1.8 1.4-2.6 2.2-1.8 1.6-2.5 3.7-2.3 6.1.3 4.4 4.1 9 8.3 10.2 5 1.5 9.1-1.1 10.9-5.3.5-1 .7-2 1.7-2.7z"/>
        <path d="M1.4 247.4c-.5-1-.5-1-1.4-.9-.1-.9.5-1 1.1-1.4.6-.3 1-.8 1.5-1.3.4.5.7 1 1.2 1.7v-2.7c.6-.2 1.1-.3 1.7-.4 6.1-1 12.2-2 18.4-2.9 5-.7 10-.7 15-.4h.5c1.5.2 2.3 1 2.1 2.3-.1 1.3-1 2.1-2.5 1.9-10.1-.8-19.9.8-29.8 2.6-2.5.6-5.1 1-7.8 1.5zm.5-1.4c.1.1.2.3.3.4.3-.2.6-.4.8-.6-.1-.1-.1-.2-.2-.3-.3.1-.6.3-.9.5z"/>
        <path d="M26 189.3c-4.3-1.9-8.4-4.1-12.5-6.4-.3-.2-.7-.4-1-.7-.7-.6-.8-1.3-.4-2.1.4-.9.9-1 2-1 .9-.1 1.4.3 2.1.6 3.8 1.9 7.5 3.9 11.4 5.6 5.3 2.3 10.9 3.6 16.6 4.4.3 0 .6 0 .8.1 1.5.3 1.9.8 1.7 2.2-.1 1.4-.8 2.1-2.2 1.9-2.7-.4-5.5-.7-8.2-1.4-3.5-1-6.9-2.1-10.3-3.2z"/>
        <path d="M58.4 263.3c1.9.7 2.2 2.4 1 3.5-.8.7-1.7 1.3-2.6 1.8-7.1 4.3-14.3 8.3-21.7 12-.4.2-.7.4-1.1.5-1.1.4-2.2.2-2.7-.7-.6-1-.3-2.3.7-2.9 1.8-1 3.6-2 5.4-2.8 6.4-3.1 12.6-6.6 18.5-10.5.3-.2.6-.5 1-.6.6-.3 1.2-.3 1.5-.3z"/>
        <path d="M205.3 316.5c-.2.3-.4.7-.7 1-.9.9-2.1 1-3 .1-1.8-1.7-3-3.7-3.3-6.2-.3-2.5.7-4.5 2.7-6 .5-.4 1-.9 1.8-.5.3.1.7-.2 1.1-.3.3-.1.6-.2 1-.3-1.3 2.5-2.1 5-2.4 7.9 1.5-.7 2.7-.6 3.9 0 .3.2 1.1-.1 1.5-.4.5-.3.9-.8 1.4-1.4-.4-1-.8-2-1.1-2.9-1.1-.3-1.8-.5-2.8-.8 1.7-1 0-2 .3-3.2 2.2-.3 4.2-.1 5.8 1.6 1.5 1.6 2.2 3.6 1.4 5.9-.3.9-.6 1.8-1.1 2.6-1.6 2.4-3.9 3-6.5 2.9zm3.9-3c-.4.3-.8.4-1 .7-.1.2.1.5.2.8.3-.1.7-.2 1-.4.2-.2-.1-.6-.2-1.1zm-3.9.3c-.4-.1-.9-.1-1.4-.2.8 1.1.8 1.1 1.4.2zm-1.6-.7c-.9 0-1.5 0-2.1.1.5.9.5.9 2.1-.1zm4.6-.2c.9.2.9.2 1.2-.5-.5.1-.8.3-1.2.5zm1.9-3.2c-.1 0-.3 0-.4.1.1.3.1.6.2.9.1 0 .2 0 .4-.1-.1-.3-.2-.6-.2-.9z"/>
        <path d="M57.1 137.6c.5-.5.8-.7 1.1-1-.6-1.3-1.2-.2-1.8-.1-1.1-1.8-1.5-3.6-.4-5.5-.1-.2-.1-.3-.1-.4-1.1-1.8-1-2.6.9-3.4 1.1-.4 2.3-.8 3.4-.9 5.9-.6 8.7 4.8 7 9.4-1.3 3.4-4.8 4.7-8.1 3-.6-.2-1.2-.6-2-1.1zm4-7.4c-.5.9-.9 1.7-1.4 2.4-.7 1-.8 1.3.1 2.1.3.3.6.5.9.7 1.2.7 2.3.3 2.8-1 .8-2.1-.3-3.8-2.4-4.2z"/>
        <path d="M136.3 151.6c0-.4-.1-.8-.1-1.4-.3.4-.5.7-.7 1-.2-.1-.3-.2-.6-.4-.3.3-.8.7-.8 1.1-.1.6.1 1.2.3 1.8 0 .1.5.2.8.2-1.6 2.3-3.2 4.6-4.7 6.9-1.7 2.5-3.4 5.1-5.6 7.2l-.7.7c-1 .8-2 .8-2.7 0-.7-.7-.8-2.1-.1-2.9.5-.6 1.2-1.1 1.6-1.7l5.7-7.5c.8-1.1 1.5-2.2 2.3-3.2.2-.2.6-.3 1-.5-.3-.7.1-1.3.7-1.8 1.3-1.2 2.4-2.6 3.8-3.8 1.1-.9 2.4-.4 3.1.8.4.8-.3 1.1-.4 1.7-.4 1-1.7 1.8-2.9 1.8z"/>
        <path d="M116.2 311.8c-.5 1.2-1.3 1.6-2.4 1.4-1.1-.2-1.7-.8-1.6-2 .6-6.4-.1-12.7-.6-19.1 0-.6 0-1.3.2-1.8.3-.9 1.2-1.3 2.2-1.3.9.1 1.5.6 1.6 1.7.5 6.6 1.4 13.2.8 19.9-.1.5-.2.9-.2 1.2z"/>
        <path d="M185.9 289.1c-1.5-.7-1.5-.7-1.1-1.8-2-1.1-2.4-2.6-1.4-5.1.4.6.7 1.6 1.7.9.5-.4.6-.6.1-1.7 1.7-.4 3.4-.1 5 .3 1.3.3 2.6.8 3.9 1.2.5.2 1 .5 1.5.8 2.2 1.6 2.7 3.9 1.4 6.2-.6 1.1-1.5 2-2.6 2.6-.7.4-1.3.9-1.3 1.8s-.6 1.3-1.5 1.3-1.8-.3-1.8-1.1c-.1-1.2-1-1.7-1.6-2.4-.6-.6-1.7-.9-1.4-2.2 0 0-.3-.2-.5-.2-.7 0-.6-.3-.4-.6.5.1 1 .3 1.3.4.4-.7.8-1.3 1.2-1.8 1 1 1.9 2 2.9 3 .8-.6 1.4-1 1.9-1.4 1.4-1.2 1.3-2.3-.3-3.2-.8-.4-1.8-.7-2.7-1-1.4-.5-3.1-.4-4.1-1.5-.9.3-1.7.5-2.5.8.5.6.5 1.5 1.4 2 .3.2.7.8.6 1.1-.3.5.2 1 .3 1.6z"/>
        <path d="M160.2 162.3l-.9.9c-2.7 2.2-5.4 4.5-8.3 6.7-1.8 1.4-3.8 2.6-5.7 3.8-.6.4-1.2.5-1.9.7-1 .3-2-.3-2.4-1.4-.3-.9 0-1.8.9-2.3 4.8-2.2 8.5-5.8 12.6-9.1 1-.8 2-1.5 3-2.1.8-.5 1.5-.2 2.3.5.6.6.8 1.3.4 2.3z"/>
        <path d="M139.9 292.1c-.8.5-1.3 1.1-2 1.3-.8.3-1.4-.3-1.8-.9-1.6-2.5-3.2-5-4.6-7.7-1.1-2.1-2-4.3-2.9-6.5-.2-.5-.2-1.2-.1-1.8.2-.9.9-1.2 1.7-1.4.8-.1 1.5.2 1.8.9.8 1.7 1.7 3.3 2.3 5.1.9 2.5 2.4 4.7 3.8 6.9.4.7 1 1.3 1.3 2 .3.7.3 1.3.5 2.1z"/>
        <path d="M67.6 312.7c-.1-.5-.3-1-.4-1.6.4-.2.9-.5 1.4-.8.1-.4.1-1 .3-1.5 1.6-3.3 3.1-6.7 4.7-10 .2-.5.5-1 .9-1.4.7-.8 1.8-.9 2.8-.3.8.5 1.1 1.3.7 2.3-1.2 2.6-2.3 5.3-3.9 7.7-.9 1.3-1 3-2.2 4.1-.2.1-.3.3-.5.6l-1.2-1.2c-.6 1.1-1.6 1.6-2.6 2.1z"/>
        <path d="M86.4 158.2c-.2.2-.4.3-.6.5-2.5-2.4-4.2-5.3-4.7-8.8-.1-.8 0-1.7.1-2.5.2-1.1 1.1-1.7 2.2-1.6 1 .1 1.8.9 1.7 1.9-.3 2.6.9 4.6 2.1 6.6 1.1 1.9 2 3.8 3 5.7.1.2.2.5.2.8 0 .2-.1.7-.3.7-.3 0-.7 0-.8-.2-1-1-1.9-2-2.9-3.1z"/>
        <path d="M58.7 165.8c1.5.8 3 1.5 4.4 2.3.4.2.8.4 1.1.7 1.2.9 1.4 1.5.8 2.5-.6 1.1-1.8 1.5-2.9.9-1.2-.6-2.4-1.3-3.5-2-1.6-1-3.3-1.9-4.8-3-.9-.6-1.7-1.3-2.4-2-.2-.2-.2-.6-.3-.9 1.4-.8 1.6-.8 2.4.1.5-.4.9-.7 1.7-1.4-.1 1.4.4 2.1 1.4 2.4.2-.2.3-.4.5-.6.7.1.7.6.7 1.1 0 .2.4.4.6.6 0-.2.1-.4.3-.7z"/>
        <path d="M213.9 330.5c-.6.8-1.2 1.5-1.4 2.6-.2 1-.3 2.1-1.1 2.9-.2.2-.2.7-.3 1.1-.1 1.5-.7 2.2-2 2.2s-2.2-.8-2.4-2.1c-.2-2.2.5-4 2.3-5.3 1.6-1 3.1-1.6 4.9-1.4z"/>
        <path d="M70.1 314c-.5.9-1 1.8-1.6 2.5-.8 1-2.2 1.1-3.1.3-.8-.6-.7-1.4 0-2.6.4-.7.9-1.4 1.3-2.1.4.3.7.5.9.7v-.1c.4 1.1 1 .2 1.5.2-.4.9.4.9 1 1.1z"/>
        <path d="M134.6 152c.5 0 1 0 1.4.2.1.1 0 .8-.1 1.6-.7-.7-1-1.1-1.4-1.4.1-.2.1-.3.1-.4z"/>
        <path d="M213.9 330.6c.6.1 1.3.1 2 .2.1.8-.5.5-.9.6-.7 0-.9-.3-1.1-.8 0-.1 0 0 0 0z"/>
        <path d="M220.4 334.7c1.2-.5 1.4-.2 1.4 1.1l-.6-.6c-.2-.1-.5-.2-.8-.5z"/>
        <path d="M70 314c-.2-.5-.3-1.1-.5-1.6 1.2 0 1.3.3.5 1.6z"/>
        <path d="M221.7 338.2c.1.7.2 1.1.2 1.6-.7-.3-.8-.8-.2-1.6z"/>
        <path d="M216.5 331.4c.3-.1.6-.3 1.1-.5 0 .3.1.5 0 .5-.3.2-.6.3-.9.4 0-.1-.1-.3-.2-.4z"/>
        <path d="M218.8 338.8c-.1.4-.3.7-.4 1.1-.1 0-.1 0-.2-.1.1-.4.2-.7.3-1.1.1.1.2.1.3.1z"/>
        <path d="M49.2 163.5c-.1-.5-.1-.9-.2-1.6.9.6.2 1.1.2 1.6z"/>
        <path d="M49.2 163.5c1-.1 1-.1 1.4.8-.6-.3-1-.6-1.4-.8z"/>
        <path d="M52.3 163.4l-.5-1.5c.8.4.7.8.5 1.5z"/>
        <path d="M133.8 30.9c-1.1 0-1.9-.1-2.9-.1 1 1 2 1.2 3.3.8.2.5.6.9.7 1.4.3.9 0 1.9-.8 2.5-.9.7-1.7.7-2.8.1-.7-.3-1.4-1.3-2.3-.4-.1.1-.3 0-.5 0-11.5-2.5-21.9 1.7-28.8 8.1-5.8 5.3-9.7 11.8-12 19.3-.5 1.8-.9 3.6-1.4 5.4-.4 1.8-1.2 2.3-3 1.9-.7-.1-1.5-.2-2.2-.3-.7-.2-1.4-.4-2-.7-1.1-.5-1.5-1.4-1.3-2.6.5-3.5.9-7 1.5-10.5.8-4.9 2.3-9.6 4.5-13.9 5.5-10.6 13.5-18.4 25.1-22.1 4.1-1.3 8.3-1.5 12.5-.2 4.4 1.3 7.8 4 10.3 7.8.6 1 1.3 2.1 2.1 3.5zm-4.3.3c-.7-.9-1.4-1.9-2.2-2.7-2.1-2.3-4.5-4.2-7.7-5-4.4-1.1-8.8-.6-12.9 1.1-9 3.7-15.3 10.3-19.9 18.8-2.5 4.6-3.7 9.6-4.5 14.7-.4 2.6-.7 5.2-1.1 8 .8.1 1.3.2 1.9.3.5-1.7.9-3.2 1.4-4.7 2.9-9 7.6-16.7 15.1-22.6 6.2-4.9 13.2-7.8 21.1-8.1 2.9-.2 5.8.1 8.8.2zm-.1.8c.2.8.4 1.4.7 2.1.6-.3 1.1-.6 1.6-.7.5-.1 1.2.4 1.4-.7-.5 0-1.1-.1-1.6-.2-.6-.1-1.2-.3-2.1-.5zm.2-5.1c0-.1 0-.2-.1-.3-.4 0-.7.1-1.1.1 0 .1 0 .3.1.4.4-.1.8-.1 1.1-.2z"/>
        <path d="M89.6 77.3c1.5.5 1.8 1.3 1.8 2.3 0 2.1 0 4.3.1 6.4.2 4 1 7.9 2.1 11.8.2.5.3 1.1.4 1.6.4 2.1-.7 3.1-2.8 2.5-1-.3-2.1-.4-3.1-.5-1.6-.1-3.3 0-4.9-.2-2.4-.2-4.1-1.4-5-3.7-1.6-3.9-2.4-8-2.4-12.2 0-1.1.4-2.2-.1-3.4-.2-.9.4-1.6 1.3-1.9 2.7-.9 5.5-1.7 8.2-2.5 1.7-.5 3.3-.5 4.4-.2zm.2 20.3c-1.5-5.6-2.1-11.1-2-16.6-2.4-.2-4.4.4-8.6 2.5v2c.1 3.3.7 6.6 1.8 9.8.6 1.8 1.8 2.5 3.6 2.5 1.6-.2 3.3-.2 5.2-.2z"/>
        <path d="M103.7 239.5c4.3 2 8 4.6 9.6 9.4.8 2.4.9 4.8-.2 7.1-1.9 4.1-4.7 7.4-8.7 9.6-1.6.9-3.3 1.4-5.2 1.1-2.3-.4-3.9-2-4.3-4.4-.3-1.8-.1-3.5.9-5 1.3-1.9 2.7-3.7 4-5.6.5-.7 1-1.4 1.3-2.2.9-2.1.5-3.7-1.4-5-.4-.3-.8-.5-1.1-.8-1-.7-1.3-1.3-1.1-2.4.2-1 .7-1.7 1.8-1.7.2 0 .4 0 .5-.1 1.3-1 2.6-.6 3.9 0zm2 6.3c.5 3-.6 5.2-2.2 7.3-1 1.4-2.1 2.7-3 4.1-.7 1.1-1.3 2.2-1.9 3.4-.4 1 .2 1.9 1.4 1.9.6 0 1.2-.2 1.8-.4 2.8-1.4 5-3.4 6.6-6.1 2-3.4.9-7.9-2.7-10.2zm-2.1 3.1c.3-.6.4-1 .6-1.4-1.1-.1-.9.5-.6 1.4z"/>
        <path d="M151.4 216.3c.6-1.5 1.1-2.9 1.8-4.4.8-1.8 2.1-2.2 3.6-.9 3.1 2.9 6.7 4.9 10.5 6.7 1.1.5 2.2.9 3.3 1.4 1.2.5 1.6 1.1 1.5 2.2-.1 1.1-.6 1.7-2 1.9-2.3.3-4.7.5-7.1.8-2.7.3-5.4.7-8 1.1-.9.1-1.7.1-2.2-.7-.3-.5-.7-.5-1.1-.5-1.6 0-2.5-1.4-1.8-2.8.7-1.5 1.3-3.1 1.9-4.7-.2-.1-.3-.1-.4-.1zm2.6 4.7c1.3-.2 2.4-.7 3.1-.4 1.1.5 1.6-.5 2.5-.5h2.2c0-.1.1-.3.2-.5-1.7-1.7-4-2.2-5.9-3.9-.8 1.8-1.4 3.4-2.1 5.3zm-1.9-3.6c-.1 0-.2-.1-.3-.1-.1.1-.2.3-.2.4 0 .2.1.3.4.8 0-.6 0-.8.1-1.1z"/>
        <path d="M188.4 287.6c-.5-.1-1.1-.2-1.6-.3-.2-.5-.3-1-.5-1.5.1-.1.2-.1.3-.2.5.8 1.1 1.4 1.8 2 0 .1 0 0 0 0z"/>
    </g>
</symbol><symbol id="icon-quotes" viewBox="0 0 27.4 25">
    <path d="M11.4 0L7.7 13.7h2.8V25H0V13.7c1.1-2.2 2.2-4.5 3.1-6.8 1-2.3 2-4.6 3.1-6.9h5.2z"/>
    <path d="M27.4 0l-3.7 13.7h2.8V25H16V13.7c1.1-2.2 2.2-4.5 3.1-6.8 1-2.3 2-4.6 3.1-6.9h5.2z"/>
</symbol><symbol id="icon-schedule" viewBox="0 0 80.1 74.5">
    <g>
        <path d="M80.1 1.4c0-.8-.6-1.4-1.4-1.4H1.4C.6 0 0 .6 0 1.4v54c0 .8.6 1.4 1.4 1.4h29.5l-9.7 11.4c-.2.3-.4.6-.3 1 0 .4.2.7.5.9.6.5 1.5.4 1.9-.2l11.2-13.1h4.1v16.4c0 .8.6 1.4 1.4 1.4.8 0 1.4-.6 1.4-1.4V56.7h4.9l.1.1L57 69.2c.5.6 1.4.6 1.9.2.3-.2.5-.6.5-.9 0-.4-.1-.7-.3-1L50 56.9h28.8c.8 0 1.4-.6 1.4-1.4V1.4zM77.3 54H2.8V2.8h74.6V54z"/>
        <path d="M71.3 9.6c0-.8-.6-1.4-1.4-1.4H11c-.8 0-1.4.6-1.4 1.4v36.5c0 .8.6 1.4 1.4 1.4h59c.8 0 1.4-.6 1.4-1.4V9.6zm-2.7 35.1H12.4V11h56.2v33.7z"/>
        <path d="M58.1 29.1l7.2-12.4c.4-.7.2-1.5-.5-1.9-.2-.1-.5-.2-.7-.2-.5 0-.9.3-1.2.7l-6.4 11-3.7-3c-.5-.4-1.3-.4-1.8 0l-6.6 5.6-5.2-7.9c-.2-.4-.7-.6-1.1-.6H38c-.4 0-.8.2-1.1.5l-9.4 11.9-3.3-4.1c-.3-.4-.8-.5-1.1-.5-.4 0-.8.2-1.1.5l-7.1 9.2c-.2.3-.3.7-.3 1 0 .4.2.7.5.9.6.5 1.5.3 1.9-.3l6-7.8 3.3 4.1c.3.3.7.5 1.1.5.4 0 .8-.2 1.1-.5L38 24.1l4.9 7.6c.2.3.6.6 1 .6.4.1.8-.1 1.1-.3l7-5.9 4.1 3.3c.3.3.7.4 1.1.3.3 0 .7-.3.9-.6z"/>
    </g>
</symbol><symbol id="icon-target" viewBox="0 0 92.8 70.9">
    <path d="M57.4 0C38.4 0 22.9 14.8 22 33.7v.4h-6.3l-.1-.3v-.1l-4.2-11c-.3-.7-1.1-1-1.7-.8-.3.1-.6.4-.7.7s-.2.7 0 1L13 34H7.3L3.1 22.3c-.2-.7-1-1.1-1.7-.8-.7.3-1.1 1-.8 1.7l3.9 10.9h-2c-.7 0-1.3.6-1.3 1.3 0 .7.6 1.3 1.3 1.3h2.1L.1 47.9c-.1.3-.1.7 0 1 .1.3.4.6.7.7.7.3 1.5-.1 1.8-.7l4.9-12.1h5.8L8.8 47.9c-.1.3-.1.7 0 1 .1.3.4.6.7.7.7.3 1.5-.1 1.8-.7L16 37.2v-.1l.1-.3.3-.1h5.5v.4c.9 18.9 16.5 33.7 35.4 33.7 19.5 0 35.4-15.9 35.4-35.4C92.8 15.9 76.9 0 57.4 0zm0 68.2c-17.4 0-31.8-13.6-32.7-31v-.4h10.1v.4c.5 12.6 10.8 22.4 23.4 22.4 12.9 0 23.4-10.5 23.4-23.4 0-12.9-10.5-23.4-23.4-23.4-12 0-22 9-23.3 20.9v.4H24.6v-.4c.9-17.4 15.3-31 32.7-31 18.1 0 32.8 14.7 32.8 32.8 0 18-14.7 32.7-32.7 32.7zm.7-34.1h-8.8l.2-.5c1.1-3.5 4.4-6 8.1-6 4.7 0 8.5 3.8 8.5 8.5s-3.8 8.5-8.5 8.5c-4.2 0-7.7-3.1-8.3-7.2l-.1-.5h9c.7 0 1.3-.6 1.3-1.3 0-.9-.6-1.5-1.4-1.5zm-.5 13.1c6.1 0 11.1-5 11.1-11.1S63.7 25 57.6 25c-5.3 0-9.9 3.7-10.9 8.9l-.1.3h-9l.1-.4C39 23.5 47.8 15.7 58.2 15.7c11.4 0 20.7 9.3 20.7 20.7 0 11.4-9.3 20.7-20.7 20.7-11.1 0-20.1-8.6-20.7-19.7V37h9v.4c.5 5.5 5.3 9.8 11.1 9.8z"/>
</symbol><symbol id="icon-time" viewBox="0 0 75.2 69.5">
    <g>
        <path d="M37.4 33.7c-.3 0-.6-.1-.9-.4-.5-.5-.5-1.3 0-1.7l15.7-15.2c.5-.5 1.3-.5 1.7 0 .5.5.5 1.3 0 1.7L38.3 33.4c-.3.2-.6.3-.9.3z"/>
        <path d="M31.3 34.7c-.2 0-.4-.1-.6-.2l-12.9-7.8c-.6-.4-.8-1.1-.4-1.7.4-.6 1.1-.8 1.7-.4L32 32.4c.6.4.8 1.1.4 1.7-.3.4-.7.6-1.1.6z"/>
        <path d="M34.4 40.1c-2.6 0-4.8-2.1-4.8-4.8 0-2.6 2.1-4.8 4.8-4.8 2.6 0 4.8 2.1 4.8 4.8 0 2.7-2.1 4.8-4.8 4.8zm0-7.1c-1.3 0-2.3 1-2.3 2.3 0 1.3 1 2.3 2.3 2.3 1.3 0 2.3-1 2.3-2.3 0-1.2-1-2.3-2.3-2.3z"/>
        <path d="M34.6 15.3c-.7 0-1.2-.6-1.2-1.2V9c0-.7.6-1.2 1.2-1.2s1.2.6 1.2 1.2v5.1c.1.7-.5 1.2-1.2 1.2z"/>
        <path d="M14 36.6H7.7c-.7 0-1.2-.6-1.2-1.2 0-.7.6-1.2 1.2-1.2H14c.7 0 1.2.6 1.2 1.2s-.5 1.2-1.2 1.2z"/>
        <path d="M27.9 68.6h-.2C11.6 65.3 0 51 0 34.6 0 15.5 15.5 0 34.6 0s34.6 15.5 34.6 34.6c0 1.9-.2 3.8-.5 5.7-.1.5-.5.9-1 1-.5.1-1-.1-1.3-.6l-8.3-13.4c-.4-.6-.2-1.3.4-1.7.6-.4 1.3-.2 1.7.4l6.4 10.4v-1.8c0-17.7-14.4-32.2-32.2-32.2S2.5 16.9 2.5 34.6c0 15.2 10.8 28.5 25.7 31.5.7.1 1.1.8 1 1.5-.2.6-.7 1-1.3 1z"/>
        <path d="M67.6 41.3c-.2 0-.3 0-.5-.1-.6-.3-.9-1-.6-1.6l6.3-13.8c.3-.6 1-.9 1.6-.6.6.3.9 1 .6 1.6l-6.3 13.8c-.2.5-.6.7-1.1.7z"/>
        <path d="M34 69.5v-2l2.6-2.5c6.3-6 9.1-9.1 9.1-12.8 0-2.5-1.2-4.8-4.9-4.8-2.2 0-4.1 1.1-5.2 2.1l-1.1-2.3c1.7-1.4 4.1-2.5 6.9-2.5 5.3 0 7.5 3.6 7.5 7.1 0 4.5-3.3 8.2-8.4 13.1l-2 1.8v.1h11v2.8H34z"/>
        <path d="M63.5 69.5v-6.7H52.2v-2.2L63.1 45h3.6v15.2h3.4v2.6h-3.4v6.7h-3.2zm0-9.2v-8.2c0-1.3 0-2.6.1-3.8h-.1c-.8 1.4-1.4 2.5-2 3.6l-6 8.3v.1h8z"/>
    </g>
</symbol><symbol id="icon-title-arr" viewBox="0 0 127.98 16.72">
    
    <title>
        title-arr
    </title>
    <g id="Page-1">
        <g id="title-arr">
            <path class="cls-1" d="M64.07 16.72L45.17 5H0V0h46.59l17.32 10.74L79.3 0h48.68v5h-47.1L64.07 16.72z" id="Shape"/>
        </g>
    </g>
</symbol></svg>